  0
SECTION
  2
HEADER
  9
$ACADVER
  1
AC1009
  9
$DWGCODEPAGE
  3
ansi_1252
  9
$INSBASE
 10
0.0
 20
0.0
 30
0.0
  9
$EXTMIN
 10
90.75606564877599
 20
122.7013463716791
 30
0.0
  9
$EXTMAX
 10
1092.462496706248
 20
1073.955052824671
 30
0.0
  9
$LIMMIN
 10
0.0
 20
0.0
  9
$LIMMAX
 10
12.0
 20
9.0
  9
$ORTHOMODE
 70
     0
  9
$REGENMODE
 70
     1
  9
$FILLMODE
 70
     1
  9
$QTEXTMODE
 70
     0
  9
$MIRRTEXT
 70
     1
  9
$DRAGMODE
 70
     2
  9
$LTSCALE
 40
1.0
  9
$OSMODE
 70
    37
  9
$ATTMODE
 70
     1
  9
$TEXTSIZE
 40
0.2
  9
$TRACEWID
 40
0.05
  9
$TEXTSTYLE
  7
STANDARD
  9
$CLAYER
  8
0
  9
$CELTYPE
  6
BYLAYER
  9
$CECOLOR
 62
   256
  9
$DIMSCALE
 40
1.0
  9
$DIMASZ
 40
0.18
  9
$DIMEXO
 40
0.0625
  9
$DIMDLI
 40
0.38
  9
$DIMRND
 40
0.0
  9
$DIMDLE
 40
0.0
  9
$DIMEXE
 40
0.18
  9
$DIMTP
 40
0.0
  9
$DIMTM
 40
0.0
  9
$DIMTXT
 40
0.18
  9
$DIMCEN
 40
0.09
  9
$DIMTSZ
 40
0.0
  9
$DIMTOL
 70
     0
  9
$DIMLIM
 70
     0
  9
$DIMTIH
 70
     1
  9
$DIMTOH
 70
     1
  9
$DIMSE1
 70
     0
  9
$DIMSE2
 70
     0
  9
$DIMTAD
 70
     0
  9
$DIMZIN
 70
     0
  9
$DIMBLK
  1

  9
$DIMASO
 70
     1
  9
$DIMSHO
 70
     1
  9
$DIMPOST
  1

  9
$DIMAPOST
  1

  9
$DIMALT
 70
     0
  9
$DIMALTD
 70
     2
  9
$DIMALTF
 40
25.4
  9
$DIMLFAC
 40
1.0
  9
$DIMTOFL
 70
     0
  9
$DIMTVP
 40
0.0
  9
$DIMTIX
 70
     0
  9
$DIMSOXD
 70
     0
  9
$DIMSAH
 70
     0
  9
$DIMBLK1
  1

  9
$DIMBLK2
  1

  9
$DIMSTYLE
  2
STANDARD
  9
$DIMCLRD
 70
     0
  9
$DIMCLRE
 70
     0
  9
$DIMCLRT
 70
     0
  9
$DIMTFAC
 40
1.0
  9
$DIMGAP
 40
0.09
  9
$LUNITS
 70
     2
  9
$LUPREC
 70
     4
  9
$SKETCHINC
 40
0.1
  9
$FILLETRAD
 40
0.5
  9
$AUNITS
 70
     0
  9
$AUPREC
 70
     0
  9
$MENU
  1
.
  9
$ELEVATION
 40
0.0
  9
$PELEVATION
 40
0.0
  9
$THICKNESS
 40
0.0
  9
$LIMCHECK
 70
     0
  9
$CHAMFERA
 40
0.0
  9
$CHAMFERB
 40
0.0
  9
$SKPOLY
 70
     0
  9
$TDCREATE
 40
2454910.5
  9
$TDUPDATE
 40
2459299.811923565
  9
$TDINDWG
 40
0.0000000116
  9
$TDUSRTIMER
 40
0.0000000116
  9
$USRTIMER
 70
     1
  9
$ANGBASE
 50
0.0
  9
$ANGDIR
 70
     0
  9
$PDMODE
 70
     0
  9
$PDSIZE
 40
0.0
  9
$PLINEWID
 40
0.0
  9
$COORDS
 70
     1
  9
$SPLFRAME
 70
     0
  9
$SPLINETYPE
 70
     6
  9
$SPLINESEGS
 70
     8
  9
$ATTDIA
 70
     0
  9
$ATTREQ
 70
     1
  9
$HANDLING
 70
     1
  9
$HANDSEED
  5
59D
  9
$SURFTAB1
 70
     6
  9
$SURFTAB2
 70
     6
  9
$SURFTYPE
 70
     6
  9
$SURFU
 70
     6
  9
$SURFV
 70
     6
  9
$UCSNAME
  2

  9
$UCSORG
 10
0.0
 20
0.0
 30
0.0
  9
$UCSXDIR
 10
1.0
 20
0.0
 30
0.0
  9
$UCSYDIR
 10
0.0
 20
1.0
 30
0.0
  9
$PUCSNAME
  2

  9
$PUCSORG
 10
0.0
 20
0.0
 30
0.0
  9
$PUCSXDIR
 10
1.0
 20
0.0
 30
0.0
  9
$PUCSYDIR
 10
0.0
 20
1.0
 30
0.0
  9
$USERI1
 70
     0
  9
$USERI2
 70
     0
  9
$USERI3
 70
     0
  9
$USERI4
 70
     0
  9
$USERI5
 70
     0
  9
$USERR1
 40
0.0
  9
$USERR2
 40
0.0
  9
$USERR3
 40
0.0
  9
$USERR4
 40
0.0
  9
$USERR5
 40
0.0
  9
$WORLDVIEW
 70
     1
  9
$SHADEDGE
 70
     3
  9
$SHADEDIF
 70
    70
  9
$TILEMODE
 70
     1
  9
$MAXACTVP
 70
    64
  9
$PLIMCHECK
 70
     0
  9
$PEXTMIN
 10
1.000000000000000E+20
 20
1.000000000000000E+20
 30
1.000000000000000E+20
  9
$PEXTMAX
 10
-1.000000000000000E+20
 20
-1.000000000000000E+20
 30
-1.000000000000000E+20
  9
$PLIMMIN
 10
0.0
 20
0.0
  9
$PLIMMAX
 10
12.0
 20
9.0
  9
$UNITMODE
 70
     0
  9
$VISRETAIN
 70
     1
  9
$PLINEGEN
 70
     0
  9
$PSLTSCALE
 70
     1
  0
ENDSEC
  0
SECTION
  2
TABLES
  0
TABLE
  2
VPORT
 70
     1
  0
VPORT
  2
*ACTIVE
 70
     0
 10
0.0
 20
0.0
 11
1.0
 21
1.0
 12
10.42990654205607
 22
4.5
 13
0.0
 23
0.0
 14
0.5
 24
0.5
 15
0.5
 25
0.5
 16
0.0
 26
0.0
 36
1.0
 17
0.0
 27
0.0
 37
0.0
 40
9.0
 41
1.972972972850329
 42
50.0
 43
0.0
 44
0.0
 50
0.0
 51
0.0
 71
     0
 72
   100
 73
     1
 74
     3
 75
     0
 76
     0
 77
     0
 78
     0
  0
ENDTAB
  0
TABLE
  2
LTYPE
 70
     2
  0
LTYPE
  2
CONTINUOUS
 70
     0
  3
Solid line
 72
    65
 73
     0
 40
0.0
  0
LTYPE
  2
CONTINUOUS2
 70
     0
  3
Solid Line
 72
    65
 73
     0
 40
0.0
  0
ENDTAB
  0
TABLE
  2
LAYER
 70
     2
  0
LAYER
  2
0
 70
     0
 62
     7
  6
CONTINUOUS
  0
LAYER
  2
PROFILE
 70
     0
 62
     7
  6
CONTINUOUS
  0
ENDTAB
  0
TABLE
  2
STYLE
 70
     1
  0
STYLE
  2
STANDARD
 70
     0
 40
0.0
 41
1.0
 50
0.0
 71
     0
 42
0.2
  3
txt
  4

  0
ENDTAB
  0
TABLE
  2
VIEW
 70
     0
  0
ENDTAB
  0
TABLE
  2
UCS
 70
     0
  0
ENDTAB
  0
TABLE
  2
APPID
 70
     1
  0
APPID
  2
ACAD
 70
     0
  0
ENDTAB
  0
TABLE
  2
DIMSTYLE
 70
     1
  0
DIMSTYLE
  2
STANDARD
 70
     0
  3

  4

  5

  6

  7

 40
1.0
 41
0.18
 42
0.0625
 43
0.38
 44
0.18
 45
0.0
 46
0.0
 47
0.0
 48
0.0
140
0.18
141
0.09
142
0.0
143
25.4
144
1.0
145
0.0
146
1.0
147
0.09
 71
     0
 72
     0
 73
     1
 74
     1
 75
     0
 76
     0
 77
     0
 78
     0
170
     0
171
     2
172
     0
173
     0
174
     0
175
     0
176
     0
177
     0
178
     0
  0
ENDTAB
  0
ENDSEC
  0
SECTION
  2
BLOCKS
  0
BLOCK
  8
0
  2
$MODEL_SPACE
 70
     0
 10
0.0
 20
0.0
 30
0.0
  3
$MODEL_SPACE
  1

  0
ENDBLK
  5
21
  8
0
  0
BLOCK
 67
     1
  8
0
  2
$PAPER_SPACE
 70
     0
 10
0.0
 20
0.0
 30
0.0
  3
$PAPER_SPACE
  1

  0
ENDBLK
  5
1D
 67
     1
  8
0
  0
ENDSEC
  0
SECTION
  2
ENTITIES
  0
POLYLINE
  5
70
  8
PROFILE
 66
     1
 10
0.0
 20
0.0
 30
0.0
 70
     1
  0
VERTEX
  5
80
  8
PROFILE
 10
90.75606564877599
 20
178.3013463716791
 30
0.0
  0
VERTEX
  5
81
  8
PROFILE
 10
90.75606564877599
 20
853.901346371679
 30
0.0
  0
VERTEX
  5
82
  8
PROFILE
 10
105.756065648776
 20
853.901346371679
 30
0.0
 42
1.0
  0
VERTEX
  5
83
  8
PROFILE
 10
105.756065648776
 20
860.901346371679
 30
0.0
  0
VERTEX
  5
84
  8
PROFILE
 10
105.756065648776
 20
909.501346371679
 30
0.0
  0
VERTEX
  5
85
  8
PROFILE
 10
337.356065648776
 20
909.501346371679
 30
0.0
  0
VERTEX
  5
86
  8
PROFILE
 10
337.356065648776
 20
872.701346371679
 30
0.0
  0
VERTEX
  5
87
  8
PROFILE
 10
374.156065648776
 20
872.701346371679
 30
0.0
 42
-0.1989123673796628
  0
VERTEX
  5
88
  8
PROFILE
 10
371.4612568422341
 20
866.1959551782209
 30
0.0
  0
VERTEX
  5
89
  8
PROFILE
 10
142.556065648776
 20
734.0373463716791
 30
0.0
  0
VERTEX
  5
8A
  8
PROFILE
 10
142.556065648776
 20
298.165346371679
 30
0.0
  0
VERTEX
  5
8B
  8
PROFILE
 10
371.4614480356923
 20
166.0067287585953
 30
0.0
 42
-0.1989123673796461
  0
VERTEX
  5
8C
  8
PROFILE
 10
374.156065648776
 20
159.501346371679
 30
0.0
  0
VERTEX
  5
8D
  8
PROFILE
 10
337.356065648776
 20
159.501346371679
 30
0.0
  0
VERTEX
  5
8E
  8
PROFILE
 10
337.356065648776
 20
122.7013463716791
 30
0.0
  0
VERTEX
  5
8F
  8
PROFILE
 10
105.756065648776
 20
122.7013463716791
 30
0.0
  0
VERTEX
  5
90
  8
PROFILE
 10
105.756065648776
 20
171.3013463716791
 30
0.0
 42
1.0
  0
VERTEX
  5
91
  8
PROFILE
 10
105.756065648776
 20
178.3013463716791
 30
0.0
  0
SEQEND
  5
594
  8
PROFILE
  0
POLYLINE
  5
71
  8
PROFILE
 66
     1
 10
0.0
 20
0.0
 30
0.0
 70
     1
  0
VERTEX
  5
92
  8
PROFILE
 10
418.4312312978077
 20
124.4058205877511
 30
0.0
  0
VERTEX
  5
93
  8
PROFILE
 10
1088.430229877672
 20
125.5642255167465
 30
0.0
  0
VERTEX
  5
94
  8
PROFILE
 10
1088.398244069931
 20
144.0641978655934
 30
0.0
  0
VERTEX
  5
95
  8
PROFILE
 10
1076.898261258485
 20
144.0443147959166
 30
0.0
 42
-1.0
  0
VERTEX
  5
96
  8
PROFILE
 10
1069.898271721084
 20
144.0322120578525
 30
0.0
  0
VERTEX
  5
97
  8
PROFILE
 10
1069.866285913343
 20
162.5321844066995
 30
0.0
 42
-1.0
  0
VERTEX
  5
98
  8
PROFILE
 10
1076.866275450745
 20
162.5442871447636
 30
0.0
  0
VERTEX
  5
99
  8
PROFILE
 10
1088.36625826219
 20
162.5641702144404
 30
0.0
  0
VERTEX
  5
9A
  8
PROFILE
 10
1088.334272454449
 20
181.0641425632874
 30
0.0
  0
VERTEX
  5
9B
  8
PROFILE
 10
1076.834289643004
 20
181.0442594936106
 30
0.0
 42
-0.9999999999999997
  0
VERTEX
  5
9C
  8
PROFILE
 10
1069.834300105602
 20
181.0321567555465
 30
0.0
  0
VERTEX
  5
9D
  8
PROFILE
 10
1069.802314297861
 20
199.5321291043933
 30
0.0
 42
-1.0
  0
VERTEX
  5
9E
  8
PROFILE
 10
1076.802303835263
 20
199.5442318424576
 30
0.0
  0
VERTEX
  5
9F
  8
PROFILE
 10
1088.302286646708
 20
199.5641149121344
 30
0.0
  0
VERTEX
  5
A0
  8
PROFILE
 10
1088.270300838967
 20
218.0640872609813
 30
0.0
  0
VERTEX
  5
A1
  8
PROFILE
 10
418.2713022591031
 20
216.905682331986
 30
0.0
  0
VERTEX
  5
A2
  8
PROFILE
 10
418.3032880668441
 20
198.405709983139
 30
0.0
  0
VERTEX
  5
A3
  8
PROFILE
 10
429.8032708782895
 20
198.4255930528159
 30
0.0
 42
-1.0
  0
VERTEX
  5
A4
  8
PROFILE
 10
436.8032604156911
 20
198.43769579088
 30
0.0
  0
VERTEX
  5
A5
  8
PROFILE
 10
436.8352462234319
 20
179.937723442033
 30
0.0
 42
-0.9999999999999997
  0
VERTEX
  5
A6
  8
PROFILE
 10
429.8352566860304
 20
179.9256207039688
 30
0.0
  0
VERTEX
  5
A7
  8
PROFILE
 10
418.3352738745849
 20
179.9057376342921
 30
0.0
  0
VERTEX
  5
A8
  8
PROFILE
 10
418.3672596823259
 20
161.405765285445
 30
0.0
  0
VERTEX
  5
A9
  8
PROFILE
 10
429.8672424937713
 20
161.4256483551218
 30
0.0
 42
-1.0
  0
VERTEX
  5
AA
  8
PROFILE
 10
436.8672320311728
 20
161.4377510931859
 30
0.0
  0
VERTEX
  5
AB
  8
PROFILE
 10
436.8992178389138
 20
142.937778744339
 30
0.0
 42
-1.0
  0
VERTEX
  5
AC
  8
PROFILE
 10
429.8992283015122
 20
142.9256760062748
 30
0.0
  0
VERTEX
  5
AD
  8
PROFILE
 10
418.3992454900668
 20
142.9057929365981
 30
0.0
  0
SEQEND
  5
595
  8
PROFILE
  0
POLYLINE
  5
72
  8
PROFILE
 66
     1
 10
0.0
 20
0.0
 30
0.0
 70
     1
  0
VERTEX
  5
AE
  8
PROFILE
 10
418.4312312978077
 20
259.8859811962161
 30
0.0
  0
VERTEX
  5
AF
  8
PROFILE
 10
1088.430229877672
 20
261.0443861252115
 30
0.0
  0
VERTEX
  5
B0
  8
PROFILE
 10
1088.398244069931
 20
279.5443584740583
 30
0.0
  0
VERTEX
  5
B1
  8
PROFILE
 10
1076.898261258485
 20
279.5244754043816
 30
0.0
 42
-1.0
  0
VERTEX
  5
B2
  8
PROFILE
 10
1069.898271721084
 20
279.5123726663174
 30
0.0
  0
VERTEX
  5
B3
  8
PROFILE
 10
1069.866285913343
 20
298.0123450151644
 30
0.0
 42
-1.0
  0
VERTEX
  5
B4
  8
PROFILE
 10
1076.866275450745
 20
298.0244477532285
 30
0.0
  0
VERTEX
  5
B5
  8
PROFILE
 10
1088.36625826219
 20
298.0443308229053
 30
0.0
  0
VERTEX
  5
B6
  8
PROFILE
 10
1088.334272454449
 20
316.5443031717523
 30
0.0
  0
VERTEX
  5
B7
  8
PROFILE
 10
1076.834289643004
 20
316.5244201020755
 30
0.0
 42
-0.9999999999999997
  0
VERTEX
  5
B8
  8
PROFILE
 10
1069.834300105602
 20
316.5123173640114
 30
0.0
  0
VERTEX
  5
B9
  8
PROFILE
 10
1069.802314297861
 20
335.0122897128583
 30
0.0
 42
-1.0
  0
VERTEX
  5
BA
  8
PROFILE
 10
1076.802303835263
 20
335.0243924509226
 30
0.0
  0
VERTEX
  5
BB
  8
PROFILE
 10
1088.302286646708
 20
335.0442755205993
 30
0.0
  0
VERTEX
  5
BC
  8
PROFILE
 10
1088.270300838967
 20
353.5442478694462
 30
0.0
  0
VERTEX
  5
BD
  8
PROFILE
 10
418.2713022591031
 20
352.3858429404509
 30
0.0
  0
VERTEX
  5
BE
  8
PROFILE
 10
418.3032880668441
 20
333.8858705916039
 30
0.0
  0
VERTEX
  5
BF
  8
PROFILE
 10
429.8032708782895
 20
333.9057536612808
 30
0.0
 42
-1.0
  0
VERTEX
  5
C0
  8
PROFILE
 10
436.8032604156911
 20
333.9178563993449
 30
0.0
  0
VERTEX
  5
C1
  8
PROFILE
 10
436.8352462234319
 20
315.4178840504979
 30
0.0
 42
-0.9999999999999997
  0
VERTEX
  5
C2
  8
PROFILE
 10
429.8352566860304
 20
315.4057813124338
 30
0.0
  0
VERTEX
  5
C3
  8
PROFILE
 10
418.3352738745849
 20
315.385898242757
 30
0.0
  0
VERTEX
  5
C4
  8
PROFILE
 10
418.3672596823259
 20
296.8859258939099
 30
0.0
  0
VERTEX
  5
C5
  8
PROFILE
 10
429.8672424937713
 20
296.9058089635868
 30
0.0
 42
-1.0
  0
VERTEX
  5
C6
  8
PROFILE
 10
436.8672320311728
 20
296.9179117016508
 30
0.0
  0
VERTEX
  5
C7
  8
PROFILE
 10
436.8992178389138
 20
278.4179393528039
 30
0.0
 42
-1.0
  0
VERTEX
  5
C8
  8
PROFILE
 10
429.8992283015122
 20
278.4058366147398
 30
0.0
  0
VERTEX
  5
C9
  8
PROFILE
 10
418.3992454900668
 20
278.385953545063
 30
0.0
  0
SEQEND
  5
596
  8
PROFILE
  0
POLYLINE
  5
73
  8
PROFILE
 66
     1
 10
0.0
 20
0.0
 30
0.0
 70
     1
  0
VERTEX
  5
CA
  8
PROFILE
 10
383.133032227479
 20
658.5171281696541
 30
0.0
  0
VERTEX
  5
CB
  8
PROFILE
 10
383.1127146488482
 20
658.6348021235357
 30
0.0
  0
VERTEX
  5
CC
  8
PROFILE
 10
383.0889951319668
 20
658.7996787041094
 30
0.0
  0
VERTEX
  5
CD
  8
PROFILE
 10
383.0574577989703
 20
658.963240004331
 30
0.0
  0
VERTEX
  5
CE
  8
PROFILE
 10
383.0181740835971
 20
659.1251155491461
 30
0.0
  0
VERTEX
  5
CF
  8
PROFILE
 10
382.9712329655543
 20
659.2849386818261
 30
0.0
  0
VERTEX
  5
D0
  8
PROFILE
 10
382.916740768974
 20
659.4423473944648
 30
0.0
  0
VERTEX
  5
D1
  8
PROFILE
 10
382.854820921583
 20
659.5969851479464
 30
0.0
  0
VERTEX
  5
D2
  8
PROFILE
 10
382.7856136751329
 20
659.7485016795247
 30
0.0
  0
VERTEX
  5
D3
  8
PROFILE
 10
382.709275787722
 20
659.8965537961876
 30
0.0
  0
VERTEX
  5
D4
  8
PROFILE
 10
382.6259801687304
 20
660.0408061520073
 30
0.0
  0
VERTEX
  5
D5
  8
PROFILE
 10
382.5359154871704
 20
660.1809320077166
 30
0.0
  0
VERTEX
  5
D6
  8
PROFILE
 10
382.4392857443417
 20
660.3166139707905
 30
0.0
  0
VERTEX
  5
D7
  8
PROFILE
 10
382.3363098117573
 20
660.4475447143578
 30
0.0
  0
VERTEX
  5
D8
  8
PROFILE
 10
382.2272209353877
 20
660.5734276733124
 30
0.0
  0
VERTEX
  5
D9
  8
PROFILE
 10
382.112266207347
 20
660.6939777160491
 30
0.0
  0
VERTEX
  5
DA
  8
PROFILE
 10
381.9917060062153
 20
660.8089217903018
 30
0.0
  0
VERTEX
  5
DB
  8
PROFILE
 10
381.8658134072679
 20
660.9179995416217
 30
0.0
  0
VERTEX
  5
DC
  8
PROFILE
 10
381.7348735639452
 20
661.0209639030938
 30
0.0
  0
VERTEX
  5
DD
  8
PROFILE
 10
381.5991830619648
 20
661.1175816549567
 30
0.0
  0
VERTEX
  5
DE
  8
PROFILE
 10
381.4590492475388
 20
661.2076339528573
 30
0.0
  0
VERTEX
  5
DF
  8
PROFILE
 10
381.3147895312193
 20
661.2909168235459
 30
0.0
  0
VERTEX
  5
E0
  8
PROFILE
 10
381.1667306689451
 20
661.3672416268855
 30
0.0
  0
VERTEX
  5
E1
  8
PROFILE
 10
381.0152080219236
 20
661.4364354831324
 30
0.0
  0
VERTEX
  5
E2
  8
PROFILE
 10
380.8605647970186
 20
661.4983416645176
 30
0.0
  0
VERTEX
  5
E3
  8
PROFILE
 10
380.7031512693691
 20
661.5528199502439
 30
0.0
  0
VERTEX
  5
E4
  8
PROFILE
 10
380.5433239889974
 20
661.5997469440931
 30
0.0
  0
VERTEX
  5
E5
  8
PROFILE
 10
380.3814449732042
 20
661.6390163539255
 30
0.0
  0
VERTEX
  5
E6
  8
PROFILE
 10
380.2178808865804
 20
661.6705392324365
 30
0.0
  0
VERTEX
  5
E7
  8
PROFILE
 10
380.0530022104915
 20
661.6942441786279
 30
0.0
  0
VERTEX
  5
E8
  8
PROFILE
 10
379.8871824039188
 20
661.7100774995342
 30
0.0
  0
VERTEX
  5
E9
  8
PROFILE
 10
379.7207970575539
 20
661.7180033318405
 30
0.0
  0
VERTEX
  5
EA
  8
PROFILE
 10
379.5542230430661
 20
661.7180037231145
 30
0.0
  0
VERTEX
  5
EB
  8
PROFILE
 10
379.3878376594682
 20
661.7100786724701
 30
0.0
  0
VERTEX
  5
EC
  8
PROFILE
 10
379.2220177785139
 20
661.6942461305689
 30
0.0
  0
VERTEX
  5
ED
  8
PROFILE
 10
379.0571389910635
 20
661.6705419589613
 30
0.0
  0
VERTEX
  5
EE
  8
PROFILE
 10
378.8935747563501
 20
661.6390198488583
 30
0.0
  0
VERTEX
  5
EF
  8
PROFILE
 10
378.7316955560749
 20
661.599751199518
 30
0.0
  0
VERTEX
  5
F0
  8
PROFILE
 10
378.5718680552466
 20
661.5528249565218
 30
0.0
  0
VERTEX
  5
F1
  8
PROFILE
 10
378.4144542716654
 20
661.4983474103092
 30
0.0
  0
VERTEX
  5
F2
  8
PROFILE
 10
378.259810755933
 20
661.4364419554231
 30
0.0
  0
VERTEX
  5
F3
  8
PROFILE
 10
378.1082877838472
 20
661.3672488110152
 30
0.0
  0
VERTEX
  5
F4
  8
PROFILE
 10
377.9602285630085
 20
661.2909247032422
 30
0.0
  0
VERTEX
  5
F5
  8
PROFILE
 10
377.8159684554358
 20
661.2076425102723
 30
0.0
  0
VERTEX
  5
F6
  8
PROFILE
 10
377.6758342179548
 20
661.1175908707073
 30
0.0
  0
VERTEX
  5
F7
  8
PROFILE
 10
377.5401432620753
 20
661.020973756306
 30
0.0
  0
VERTEX
  5
F8
  8
PROFILE
 10
377.4092029350377
 20
660.9180100099774
 30
0.0
  0
VERTEX
  5
F9
  8
PROFILE
 10
377.2833098236553
 20
660.8089328500895
 30
0.0
  0
VERTEX
  5
FA
  8
PROFILE
 10
377.1627490825292
 20
660.6939893422178
 30
0.0
  0
VERTEX
  5
FB
  8
PROFILE
 10
377.0477937881576
 20
660.5734398395283
 30
0.0
  0
VERTEX
  5
FC
  8
PROFILE
 10
376.9387043204037
 20
660.4475573930638
 30
0.0
  0
VERTEX
  5
FD
  8
PROFILE
 10
376.8357277727208
 20
660.3166271332685
 30
0.0
  0
VERTEX
  5
FE
  8
PROFILE
 10
376.7390973924728
 20
660.1809456241531
 30
0.0
  0
VERTEX
  5
FF
  8
PROFILE
 10
376.6490320526166
 20
660.0408201915602
 30
0.0
  0
VERTEX
  5
100
  8
PROFILE
 10
376.5657357559427
 20
659.8965682270566
 30
0.0
  0
VERTEX
  5
101
  8
PROFILE
 10
376.4893971729987
 20
659.7485164690231
 30
0.0
  0
VERTEX
  5
102
  8
PROFILE
 10
376.4201892147397
 20
659.5970002625752
 30
0.0
  0
VERTEX
  5
103
  8
PROFILE
 10
376.3582686408767
 20
659.4423627999886
 30
0.0
  0
VERTEX
  5
104
  8
PROFILE
 10
376.3037757048066
 20
659.2849543433505
 30
0.0
  0
VERTEX
  5
105
  8
PROFILE
 10
376.2568338359312
 20
659.125131431197
 30
0.0
  0
VERTEX
  5
106
  8
PROFILE
 10
376.2175493600832
 20
658.9632560709347
 30
0.0
  0
VERTEX
  5
107
  8
PROFILE
 10
376.1860112586924
 20
658.799694918874
 30
0.0
  0
VERTEX
  5
108
  8
PROFILE
 10
376.1622909672376
 20
658.6348184497341
 30
0.0
  0
VERTEX
  5
109
  8
PROFILE
 10
376.1464422134421
 20
658.4690001174971
 30
0.0
  0
VERTEX
  5
10A
  8
PROFILE
 10
376.1397377048931
 20
658.3440790638225
 30
0.0
  0
VERTEX
  5
10B
  8
PROFILE
 10
376.1375018313136
 20
658.2189964173813
 30
0.0
  0
VERTEX
  5
10C
  8
PROFILE
 10
364.6375018313126
 20
658.2189946286096
 30
0.0
  0
VERTEX
  5
10D
  8
PROFILE
 10
364.6375018313126
 20
676.7189946286096
 30
0.0
  0
VERTEX
  5
10E
  8
PROFILE
 10
376.1375018313136
 20
676.7189964173813
 30
0.0
  0
VERTEX
  5
10F
  8
PROFILE
 10
376.139737449189
 20
676.5939173439125
 30
0.0
  0
VERTEX
  5
110
  8
PROFILE
 10
376.1464417023607
 20
676.4689962765322
 30
0.0
  0
VERTEX
  5
111
  8
PROFILE
 10
376.162290082143
 20
676.3031782046509
 30
0.0
  0
VERTEX
  5
112
  8
PROFILE
 10
376.1860099737316
 20
676.1383019757784
 30
0.0
  0
VERTEX
  5
113
  8
PROFILE
 10
376.2175476504989
 20
675.974741042031
 30
0.0
  0
VERTEX
  5
114
  8
PROFILE
 10
376.2568316781806
 20
675.8128658763222
 30
0.0
  0
VERTEX
  5
115
  8
PROFILE
 10
376.3037730766769
 20
675.6530431332242
 30
0.0
  0
VERTEX
  5
116
  8
PROFILE
 10
376.3582655215969
 20
675.4956348184793
 30
0.0
  0
VERTEX
  5
117
  8
PROFILE
 10
376.4201855850882
 20
675.3409974690406
 30
0.0
  0
VERTEX
  5
118
  8
PROFILE
 10
376.4893930154059
 20
675.1894813454994
 30
0.0
  0
VERTEX
  5
119
  8
PROFILE
 10
376.5657310545902
 20
675.0414296387288
 30
0.0
  0
VERTEX
  5
11A
  8
PROFILE
 10
376.649026793529
 20
674.8971776925416
 30
0.0
  0
VERTEX
  5
11B
  8
PROFILE
 10
376.7390915636061
 20
674.7570522441208
 30
0.0
  0
VERTEX
  5
11C
  8
PROFILE
 10
376.8357213640434
 20
674.6213706839454
 30
0.0
  0
VERTEX
  5
11D
  8
PROFILE
 10
376.9386973239719
 20
674.4904403368865
 30
0.0
  0
VERTEX
  5
11E
  8
PROFILE
 10
377.0477861981846
 20
674.3645577661026
 30
0.0
  0
VERTEX
  5
11F
  8
PROFILE
 10
377.1627408954469
 20
674.2440081013104
 30
0.0
  0
VERTEX
  5
120
  8
PROFILE
 10
377.2833010381697
 20
674.1290643929536
 30
0.0
  0
VERTEX
  5
121
  8
PROFILE
 10
377.4091935521766
 20
674.0199869937309
 30
0.0
  0
VERTEX
  5
122
  8
PROFILE
 10
377.5401332852287
 20
673.9170229688854
 30
0.0
  0
VERTEX
  5
123
  8
PROFILE
 10
377.675823652908
 20
673.8204055365907
 30
0.0
  0
VERTEX
  5
124
  8
PROFILE
 10
377.8159573103941
 20
673.7303535397012
 30
0.0
  0
VERTEX
  5
125
  8
PROFILE
 10
377.9602168486138
 20
673.6470709500634
 30
0.0
  0
VERTEX
  5
126
  8
PROFILE
 10
378.108275513188
 20
673.5707464065098
 30
0.0
  0
VERTEX
  5
127
  8
PROFILE
 10
378.2597979445442
 20
673.5015527875838
 30
0.0
  0
VERTEX
  5
128
  8
PROFILE
 10
378.4144409375217
 20
673.4396468199624
 30
0.0
  0
VERTEX
  5
129
  8
PROFILE
 10
378.5718542187463
 20
673.3851687234622
 30
0.0
  0
VERTEX
  5
12A
  8
PROFILE
 10
378.7316812400157
 20
673.3382418934361
 30
0.0
  0
VERTEX
  5
12B
  8
PROFILE
 10
378.8935599858975
 20
673.2989726212769
 30
0.0
  0
VERTEX
  5
12C
  8
PROFILE
 10
379.0571237937098
 20
673.267449853662
 30
0.0
  0
VERTEX
  5
12D
  8
PROFILE
 10
379.2220021840296
 20
673.243744991086
 30
0.0
  0
VERTEX
  5
12E
  8
PROFILE
 10
379.3878216998447
 20
673.2279117261351
 30
0.0
  0
VERTEX
  5
12F
  8
PROFILE
 10
379.5542067524513
 20
673.2199859218703
 30
0.0
  0
VERTEX
  5
130
  8
PROFILE
 10
379.7207804721793
 20
673.2199855305969
 30
0.0
  0
VERTEX
  5
131
  8
PROFILE
 10
379.8871655620188
 20
673.2279105532012
 30
0.0
  0
VERTEX
  5
132
  8
PROFILE
 10
380.0529851522152
 20
673.2437430391485
 30
0.0
  0
VERTEX
  5
133
  8
PROFILE
 10
380.2178636538962
 20
673.267447127142
 30
0.0
  0
VERTEX
  5
134
  8
PROFILE
 10
380.3814276097975
 20
673.29896912635
 30
0.0
  0
VERTEX
  5
135
  8
PROFILE
 10
380.5433065401606
 20
673.3382376380188
 30
0.0
  0
VERTEX
  5
136
  8
PROFILE
 10
380.7031337818859
 20
673.3851637171929
 30
0.0
  0
VERTEX
  5
137
  8
PROFILE
 10
380.8605473190414
 20
673.4396410741806
 30
0.0
  0
VERTEX
  5
138
  8
PROFILE
 10
381.0151906028452
 20
673.5015463153039
 30
0.0
  0
VERTEX
  5
139
  8
PROFILE
 10
381.1667133592645
 20
673.5707392223918
 30
0.0
  0
VERTEX
  5
13A
  8
PROFILE
 10
381.3147723824021
 20
673.6470630703798
 30
0.0
  0
VERTEX
  5
13B
  8
PROFILE
 10
381.4590323118736
 20
673.7303449822998
 30
0.0
  0
VERTEX
  5
13C
  8
PROFILE
 10
381.5991663924133
 20
673.8203963208543
 30
0.0
  0
VERTEX
  5
13D
  8
PROFILE
 10
381.7348572139902
 20
673.9170131156882
 30
0.0
  0
VERTEX
  5
13E
  8
PROFILE
 10
381.8657974307556
 20
674.0199765253908
 30
0.0
  0
VERTEX
  5
13F
  8
PROFILE
 10
381.9916904571958
 20
674.1290533331818
 30
0.0
  0
VERTEX
  5
140
  8
PROFILE
 10
382.1122511399115
 20
674.2439964751578
 30
0.0
  0
VERTEX
  5
141
  8
PROFILE
 10
382.2272064035027
 20
674.364545599903
 30
0.0
  0
VERTEX
  5
142
  8
PROFILE
 10
382.336295869098
 20
674.490427658197
 30
0.0
  0
VERTEX
  5
143
  8
PROFILE
 10
382.439272444123
 20
674.6213575214836
 30
0.0
  0
VERTEX
  5
144
  8
PROFILE
 10
382.5359028819776
 20
674.7570386277004
 30
0.0
  0
VERTEX
  5
145
  8
PROFILE
 10
382.6259683103492
 20
674.8971636530042
 30
0.0
  0
VERTEX
  5
146
  8
PROFILE
 10
382.7092647269683
 20
675.0414152078748
 30
0.0
  0
VERTEX
  5
147
  8
PROFILE
 10
382.7856034616838
 20
675.1894665560153
 30
0.0
  0
VERTEX
  5
148
  8
PROFILE
 10
382.8548116038085
 20
675.3409823544253
 30
0.0
  0
VERTEX
  5
149
  8
PROFILE
 10
382.9167323937699
 20
675.4956194129679
 30
0.0
  0
VERTEX
  5
14A
  8
PROFILE
 10
382.9712255781779
 20
675.653027471711
 30
0.0
  0
VERTEX
  5
14B
  8
PROFILE
 10
383.0181677275049
 20
675.8128499942812
 30
0.0
  0
VERTEX
  5
14C
  8
PROFILE
 10
383.0574525156595
 20
675.9747249754358
 30
0.0
  0
VERTEX
  5
14D
  8
PROFILE
 10
383.0889909608194
 20
676.1382857610205
 30
0.0
  0
VERTEX
  5
14E
  8
PROFILE
 10
383.1127116269798
 20
676.3031618784574
 30
0.0
  0
VERTEX
  5
14F
  8
PROFILE
 10
383.1285607857589
 20
676.4689798758828
 30
0.0
  0
VERTEX
  5
150
  8
PROFILE
 10
383.1352656257971
 20
676.5939009117659
 30
0.0
  0
VERTEX
  5
151
  8
PROFILE
 10
383.1375018313008
 20
676.7189881960559
 30
0.0
  0
VERTEX
  5
152
  8
PROFILE
 10
383.1375018313008
 20
695.2189881960559
 30
0.0
  0
VERTEX
  5
153
  8
PROFILE
 10
383.1335381238808
 20
695.3855186240172
 30
0.0
  0
VERTEX
  5
154
  8
PROFILE
 10
383.1216547564495
 20
695.5516782534858
 30
0.0
  0
VERTEX
  5
155
  8
PROFILE
 10
383.1018786486898
 20
695.7170842462688
 30
0.0
  0
VERTEX
  5
156
  8
PROFILE
 10
383.0742545999223
 20
695.8813619039594
 30
0.0
  0
VERTEX
  5
157
  8
PROFILE
 10
383.0388451876078
 20
696.0441390841972
 30
0.0
  0
VERTEX
  5
158
  8
PROFILE
 10
382.9957306255897
 20
696.2050470436915
 30
0.0
  0
VERTEX
  5
159
  8
PROFILE
 10
382.9450085823829
 20
696.3637212735449
 30
0.0
  0
VERTEX
  5
15A
  8
PROFILE
 10
382.8867939599234
 20
696.5198023249847
 30
0.0
  0
VERTEX
  5
15B
  8
PROFILE
 10
382.8212186332775
 20
696.672936623631
 30
0.0
  0
VERTEX
  5
15C
  8
PROFILE
 10
382.7484311519023
 20
696.8227772704586
 30
0.0
  0
VERTEX
  5
15D
  8
PROFILE
 10
382.6685964031324
 20
696.968984827635
 30
0.0
  0
VERTEX
  5
15E
  8
PROFILE
 10
382.5818952386569
 20
697.1112280874586
 30
0.0
  0
VERTEX
  5
15F
  8
PROFILE
 10
382.4885240648312
 20
697.2491848226513
 30
0.0
  0
VERTEX
  5
160
  8
PROFILE
 10
382.3886943977524
 20
697.3825425163086
 30
0.0
  0
VERTEX
  5
161
  8
PROFILE
 10
382.2826323841072
 20
697.5109990698516
 30
0.0
  0
VERTEX
  5
162
  8
PROFILE
 10
382.1705782888753
 20
697.6342634873791
 30
0.0
  0
VERTEX
  5
163
  8
PROFILE
 10
382.0527859510516
 20
697.7520565348678
 30
0.0
  0
VERTEX
  5
164
  8
PROFILE
 10
381.9295222086181
 20
697.8641113727282
 30
0.0
  0
VERTEX
  5
165
  8
PROFILE
 10
381.8010662940687
 20
697.9701741602831
 30
0.0
  0
VERTEX
  5
166
  8
PROFILE
 10
381.6677092018572
 20
698.0700046307995
 30
0.0
  0
VERTEX
  5
167
  8
PROFILE
 10
381.5297530291998
 20
698.1633766357709
 30
0.0
  0
VERTEX
  5
168
  8
PROFILE
 10
381.3875102917269
 20
698.2500786572169
 30
0.0
  0
VERTEX
  5
169
  8
PROFILE
 10
381.2413032155332
 20
698.3299142868414
 30
0.0
  0
VERTEX
  5
16A
  8
PROFILE
 10
381.0914630072307
 20
698.4027026709595
 30
0.0
  0
VERTEX
  5
16B
  8
PROFILE
 10
380.9383291036584
 20
698.4682789201916
 30
0.0
  0
VERTEX
  5
16C
  8
PROFILE
 10
380.7822484029469
 20
698.5264944829908
 30
0.0
  0
VERTEX
  5
16D
  8
PROFILE
 10
380.6235744786812
 20
698.5772174821604
 30
0.0
  0
VERTEX
  5
16E
  8
PROFILE
 10
380.4626667789419
 20
698.6203330135993
 30
0.0
  0
VERTEX
  5
16F
  8
PROFILE
 10
380.299889812038
 20
698.655743406596
 30
0.0
  0
VERTEX
  5
170
  8
PROFILE
 10
380.1356123207768
 20
698.6833684450858
 30
0.0
  0
VERTEX
  5
171
  8
PROFILE
 10
379.9702064471418
 20
698.7031455493658
 30
0.0
  0
VERTEX
  5
172
  8
PROFILE
 10
379.80404688927
 20
698.715029917858
 30
0.0
  0
VERTEX
  5
173
  8
PROFILE
 10
379.637510052638
 20
698.7189946286
 30
0.0
  0
VERTEX
  5
174
  8
PROFILE
 10
379.4709731973821
 20
698.7150307002315
 30
0.0
  0
VERTEX
  5
175
  8
PROFILE
 10
379.3048135836805
 20
698.7031471123404
 30
0.0
  0
VERTEX
  5
176
  8
PROFILE
 10
379.1394076171365
 20
698.6833707851209
 30
0.0
  0
VERTEX
  5
177
  8
PROFILE
 10
378.9751299960975
 20
698.6557465183906
 30
0.0
  0
VERTEX
  5
178
  8
PROFILE
 10
378.8123528628408
 20
698.6203368901043
 30
0.0
  0
VERTEX
  5
179
  8
PROFILE
 10
378.6514449605507
 20
698.5772221145943
 30
0.0
  0
VERTEX
  5
17A
  8
PROFILE
 10
378.4927707979953
 20
698.5264998608594
 30
0.0
  0
VERTEX
  5
17B
  8
PROFILE
 10
378.3366898237945
 20
698.4682850313125
 30
0.0
  0
VERTEX
  5
17C
  8
PROFILE
 10
378.1835556121533
 20
698.4027095014887
 30
0.0
  0
VERTEX
  5
17D
  8
PROFILE
 10
378.0337150619
 20
698.3299218213058
 30
0.0
  0
VERTEX
  5
17E
  8
PROFILE
 10
377.887507610648
 20
698.2500868785486
 30
0.0
  0
VERTEX
  5
17F
  8
PROFILE
 10
377.7452644658592
 20
698.1633855253456
 30
0.0
  0
VERTEX
  5
180
  8
PROFILE
 10
377.607307854551
 20
698.0700141684796
 30
0.0
  0
VERTEX
  5
181
  8
PROFILE
 10
377.4739502933473
 20
697.9701843244627
 30
0.0
  0
VERTEX
  5
182
  8
PROFILE
 10
377.3454938805269
 20
697.864122140382
 30
0.0
  0
VERTEX
  5
183
  8
PROFILE
 10
377.2222296116724
 20
697.7520678816037
 30
0.0
  0
VERTEX
  5
184
  8
PROFILE
 10
377.10443672047
 20
697.6342753874928
 30
0.0
  0
VERTEX
  5
185
  8
PROFILE
 10
376.9923820461555
 20
697.5110114963857
 30
0.0
  0
VERTEX
  5
186
  8
PROFILE
 10
376.8863194290353
 20
697.3825554411128
 30
0.0
  0
VERTEX
  5
187
  8
PROFILE
 10
376.7864891354565
 20
697.2491982164469
 30
0.0
  0
VERTEX
  5
188
  8
PROFILE
 10
376.6931173135248
 20
697.111241919904
 30
0.0
  0
VERTEX
  5
189
  8
PROFILE
 10
376.6064154808057
 20
696.9689990673954
 30
0.0
  0
VERTEX
  5
18A
  8
PROFILE
 10
376.5265800451681
 20
696.8227918852764
 30
0.0
  0
VERTEX
  5
18B
  8
PROFILE
 10
376.4537918598573
 20
696.6729515803988
 30
0.0
  0
VERTEX
  5
18C
  8
PROFILE
 10
376.3882158138026
 20
696.5198175898205
 30
0.0
  0
VERTEX
  5
18D
  8
PROFILE
 10
376.3300004580905
 20
696.3637368118689
 30
0.0
  0
VERTEX
  5
18E
  8
PROFILE
 10
376.2792776694486
 20
696.2050628203044
 30
0.0
  0
VERTEX
  5
18F
  8
PROFILE
 10
376.2361623515013
 20
696.0441550633598
 30
0.0
  0
VERTEX
  5
190
  8
PROFILE
 10
376.2007521744763
 20
695.8813780494736
 30
0.0
  0
VERTEX
  5
191
  8
PROFILE
 10
376.1731273539491
 20
695.7171005215598
 30
0.0
  0
VERTEX
  5
192
  8
PROFILE
 10
376.1533504691288
 20
695.5516946216849
 30
0.0
  0
VERTEX
  5
193
  8
PROFILE
 10
376.1414663210962
 20
695.385535048045
 30
0.0
  0
VERTEX
  5
194
  8
PROFILE
 10
376.1375018313136
 20
695.2189964173813
 30
0.0
  0
VERTEX
  5
195
  8
PROFILE
 10
364.6375018313126
 20
695.2189946286096
 30
0.0
  0
VERTEX
  5
196
  8
PROFILE
 10
364.6375018313126
 20
713.7189946286096
 30
0.0
  0
VERTEX
  5
197
  8
PROFILE
 10
1074.637501831313
 20
713.7189946286096
 30
0.0
  0
VERTEX
  5
198
  8
PROFILE
 10
1074.637501831313
 20
695.2189946286096
 30
0.0
  0
VERTEX
  5
199
  8
PROFILE
 10
1063.137501831301
 20
695.2189881960559
 30
0.0
  0
VERTEX
  5
19A
  8
PROFILE
 10
1063.133538123881
 20
695.3855186240172
 30
0.0
  0
VERTEX
  5
19B
  8
PROFILE
 10
1063.12165475645
 20
695.5516782534858
 30
0.0
  0
VERTEX
  5
19C
  8
PROFILE
 10
1063.10187864869
 20
695.7170842462688
 30
0.0
  0
VERTEX
  5
19D
  8
PROFILE
 10
1063.074254599922
 20
695.8813619039594
 30
0.0
  0
VERTEX
  5
19E
  8
PROFILE
 10
1063.038845187608
 20
696.0441390841972
 30
0.0
  0
VERTEX
  5
19F
  8
PROFILE
 10
1062.99573062559
 20
696.2050470436915
 30
0.0
  0
VERTEX
  5
1A0
  8
PROFILE
 10
1062.945008582383
 20
696.3637212735449
 30
0.0
  0
VERTEX
  5
1A1
  8
PROFILE
 10
1062.886793959923
 20
696.5198023249847
 30
0.0
  0
VERTEX
  5
1A2
  8
PROFILE
 10
1062.821218633278
 20
696.672936623631
 30
0.0
  0
VERTEX
  5
1A3
  8
PROFILE
 10
1062.748431151902
 20
696.8227772704586
 30
0.0
  0
VERTEX
  5
1A4
  8
PROFILE
 10
1062.668596403132
 20
696.968984827635
 30
0.0
  0
VERTEX
  5
1A5
  8
PROFILE
 10
1062.581895238657
 20
697.1112280874586
 30
0.0
  0
VERTEX
  5
1A6
  8
PROFILE
 10
1062.488524064831
 20
697.2491848226513
 30
0.0
  0
VERTEX
  5
1A7
  8
PROFILE
 10
1062.388694397752
 20
697.3825425163086
 30
0.0
  0
VERTEX
  5
1A8
  8
PROFILE
 10
1062.282632384107
 20
697.5109990698516
 30
0.0
  0
VERTEX
  5
1A9
  8
PROFILE
 10
1062.170578288875
 20
697.6342634873791
 30
0.0
  0
VERTEX
  5
1AA
  8
PROFILE
 10
1062.052785951052
 20
697.7520565348678
 30
0.0
  0
VERTEX
  5
1AB
  8
PROFILE
 10
1061.929522208618
 20
697.8641113727282
 30
0.0
  0
VERTEX
  5
1AC
  8
PROFILE
 10
1061.801066294069
 20
697.9701741602831
 30
0.0
  0
VERTEX
  5
1AD
  8
PROFILE
 10
1061.667709201857
 20
698.0700046307995
 30
0.0
  0
VERTEX
  5
1AE
  8
PROFILE
 10
1061.5297530292
 20
698.1633766357709
 30
0.0
  0
VERTEX
  5
1AF
  8
PROFILE
 10
1061.387510291727
 20
698.2500786572169
 30
0.0
  0
VERTEX
  5
1B0
  8
PROFILE
 10
1061.241303215533
 20
698.3299142868414
 30
0.0
  0
VERTEX
  5
1B1
  8
PROFILE
 10
1061.091463007231
 20
698.4027026709595
 30
0.0
  0
VERTEX
  5
1B2
  8
PROFILE
 10
1060.938329103658
 20
698.4682789201916
 30
0.0
  0
VERTEX
  5
1B3
  8
PROFILE
 10
1060.782248402947
 20
698.5264944829908
 30
0.0
  0
VERTEX
  5
1B4
  8
PROFILE
 10
1060.623574478681
 20
698.5772174821604
 30
0.0
  0
VERTEX
  5
1B5
  8
PROFILE
 10
1060.462666778942
 20
698.6203330135993
 30
0.0
  0
VERTEX
  5
1B6
  8
PROFILE
 10
1060.299889812038
 20
698.655743406596
 30
0.0
  0
VERTEX
  5
1B7
  8
PROFILE
 10
1060.135612320777
 20
698.6833684450858
 30
0.0
  0
VERTEX
  5
1B8
  8
PROFILE
 10
1059.970206447142
 20
698.7031455493658
 30
0.0
  0
VERTEX
  5
1B9
  8
PROFILE
 10
1059.80404688927
 20
698.715029917858
 30
0.0
  0
VERTEX
  5
1BA
  8
PROFILE
 10
1059.637510052638
 20
698.7189946286
 30
0.0
  0
VERTEX
  5
1BB
  8
PROFILE
 10
1059.470973197382
 20
698.7150307002315
 30
0.0
  0
VERTEX
  5
1BC
  8
PROFILE
 10
1059.30481358368
 20
698.7031471123404
 30
0.0
  0
VERTEX
  5
1BD
  8
PROFILE
 10
1059.139407617136
 20
698.6833707851209
 30
0.0
  0
VERTEX
  5
1BE
  8
PROFILE
 10
1058.975129996097
 20
698.6557465183906
 30
0.0
  0
VERTEX
  5
1BF
  8
PROFILE
 10
1058.812352862841
 20
698.6203368901043
 30
0.0
  0
VERTEX
  5
1C0
  8
PROFILE
 10
1058.651444960551
 20
698.5772221145943
 30
0.0
  0
VERTEX
  5
1C1
  8
PROFILE
 10
1058.492770797995
 20
698.5264998608594
 30
0.0
  0
VERTEX
  5
1C2
  8
PROFILE
 10
1058.336689823795
 20
698.4682850313125
 30
0.0
  0
VERTEX
  5
1C3
  8
PROFILE
 10
1058.183555612153
 20
698.4027095014887
 30
0.0
  0
VERTEX
  5
1C4
  8
PROFILE
 10
1058.0337150619
 20
698.3299218213058
 30
0.0
  0
VERTEX
  5
1C5
  8
PROFILE
 10
1057.887507610648
 20
698.2500868785486
 30
0.0
  0
VERTEX
  5
1C6
  8
PROFILE
 10
1057.745264465859
 20
698.1633855253456
 30
0.0
  0
VERTEX
  5
1C7
  8
PROFILE
 10
1057.607307854551
 20
698.0700141684796
 30
0.0
  0
VERTEX
  5
1C8
  8
PROFILE
 10
1057.473950293347
 20
697.9701843244627
 30
0.0
  0
VERTEX
  5
1C9
  8
PROFILE
 10
1057.345493880527
 20
697.864122140382
 30
0.0
  0
VERTEX
  5
1CA
  8
PROFILE
 10
1057.222229611672
 20
697.7520678816037
 30
0.0
  0
VERTEX
  5
1CB
  8
PROFILE
 10
1057.10443672047
 20
697.6342753874928
 30
0.0
  0
VERTEX
  5
1CC
  8
PROFILE
 10
1056.992382046155
 20
697.5110114963857
 30
0.0
  0
VERTEX
  5
1CD
  8
PROFILE
 10
1056.886319429035
 20
697.3825554411128
 30
0.0
  0
VERTEX
  5
1CE
  8
PROFILE
 10
1056.786489135457
 20
697.2491982164469
 30
0.0
  0
VERTEX
  5
1CF
  8
PROFILE
 10
1056.693117313525
 20
697.111241919904
 30
0.0
  0
VERTEX
  5
1D0
  8
PROFILE
 10
1056.606415480806
 20
696.9689990673954
 30
0.0
  0
VERTEX
  5
1D1
  8
PROFILE
 10
1056.526580045168
 20
696.8227918852764
 30
0.0
  0
VERTEX
  5
1D2
  8
PROFILE
 10
1056.453791859857
 20
696.6729515803988
 30
0.0
  0
VERTEX
  5
1D3
  8
PROFILE
 10
1056.388215813803
 20
696.5198175898205
 30
0.0
  0
VERTEX
  5
1D4
  8
PROFILE
 10
1056.330000458091
 20
696.3637368118689
 30
0.0
  0
VERTEX
  5
1D5
  8
PROFILE
 10
1056.279277669449
 20
696.2050628203044
 30
0.0
  0
VERTEX
  5
1D6
  8
PROFILE
 10
1056.236162351501
 20
696.0441550633598
 30
0.0
  0
VERTEX
  5
1D7
  8
PROFILE
 10
1056.200752174476
 20
695.8813780494736
 30
0.0
  0
VERTEX
  5
1D8
  8
PROFILE
 10
1056.173127353949
 20
695.7171005215598
 30
0.0
  0
VERTEX
  5
1D9
  8
PROFILE
 10
1056.153350469129
 20
695.5516946216849
 30
0.0
  0
VERTEX
  5
1DA
  8
PROFILE
 10
1056.141466321096
 20
695.385535048045
 30
0.0
  0
VERTEX
  5
1DB
  8
PROFILE
 10
1056.137501831314
 20
695.2189964173813
 30
0.0
  0
VERTEX
  5
1DC
  8
PROFILE
 10
1056.137501831314
 20
676.7189964173813
 30
0.0
  0
VERTEX
  5
1DD
  8
PROFILE
 10
1056.139737449189
 20
676.5939173439125
 30
0.0
  0
VERTEX
  5
1DE
  8
PROFILE
 10
1056.146441702361
 20
676.4689962765322
 30
0.0
  0
VERTEX
  5
1DF
  8
PROFILE
 10
1056.162290082143
 20
676.3031782046509
 30
0.0
  0
VERTEX
  5
1E0
  8
PROFILE
 10
1056.186009973732
 20
676.1383019757784
 30
0.0
  0
VERTEX
  5
1E1
  8
PROFILE
 10
1056.217547650499
 20
675.974741042031
 30
0.0
  0
VERTEX
  5
1E2
  8
PROFILE
 10
1056.256831678181
 20
675.8128658763222
 30
0.0
  0
VERTEX
  5
1E3
  8
PROFILE
 10
1056.303773076677
 20
675.6530431332242
 30
0.0
  0
VERTEX
  5
1E4
  8
PROFILE
 10
1056.358265521597
 20
675.4956348184793
 30
0.0
  0
VERTEX
  5
1E5
  8
PROFILE
 10
1056.420185585088
 20
675.3409974690406
 30
0.0
  0
VERTEX
  5
1E6
  8
PROFILE
 10
1056.489393015406
 20
675.1894813454994
 30
0.0
  0
VERTEX
  5
1E7
  8
PROFILE
 10
1056.56573105459
 20
675.0414296387288
 30
0.0
  0
VERTEX
  5
1E8
  8
PROFILE
 10
1056.649026793529
 20
674.8971776925416
 30
0.0
  0
VERTEX
  5
1E9
  8
PROFILE
 10
1056.739091563606
 20
674.7570522441208
 30
0.0
  0
VERTEX
  5
1EA
  8
PROFILE
 10
1056.835721364043
 20
674.6213706839454
 30
0.0
  0
VERTEX
  5
1EB
  8
PROFILE
 10
1056.938697323972
 20
674.4904403368865
 30
0.0
  0
VERTEX
  5
1EC
  8
PROFILE
 10
1057.047786198184
 20
674.3645577661026
 30
0.0
  0
VERTEX
  5
1ED
  8
PROFILE
 10
1057.162740895447
 20
674.2440081013104
 30
0.0
  0
VERTEX
  5
1EE
  8
PROFILE
 10
1057.28330103817
 20
674.1290643929536
 30
0.0
  0
VERTEX
  5
1EF
  8
PROFILE
 10
1057.409193552176
 20
674.0199869937309
 30
0.0
  0
VERTEX
  5
1F0
  8
PROFILE
 10
1057.540133285229
 20
673.9170229688854
 30
0.0
  0
VERTEX
  5
1F1
  8
PROFILE
 10
1057.675823652908
 20
673.8204055365907
 30
0.0
  0
VERTEX
  5
1F2
  8
PROFILE
 10
1057.815957310394
 20
673.7303535397012
 30
0.0
  0
VERTEX
  5
1F3
  8
PROFILE
 10
1057.960216848614
 20
673.6470709500634
 30
0.0
  0
VERTEX
  5
1F4
  8
PROFILE
 10
1058.108275513188
 20
673.5707464065098
 30
0.0
  0
VERTEX
  5
1F5
  8
PROFILE
 10
1058.259797944544
 20
673.5015527875838
 30
0.0
  0
VERTEX
  5
1F6
  8
PROFILE
 10
1058.414440937522
 20
673.4396468199624
 30
0.0
  0
VERTEX
  5
1F7
  8
PROFILE
 10
1058.571854218746
 20
673.3851687234622
 30
0.0
  0
VERTEX
  5
1F8
  8
PROFILE
 10
1058.731681240016
 20
673.3382418934361
 30
0.0
  0
VERTEX
  5
1F9
  8
PROFILE
 10
1058.893559985898
 20
673.2989726212769
 30
0.0
  0
VERTEX
  5
1FA
  8
PROFILE
 10
1059.05712379371
 20
673.267449853662
 30
0.0
  0
VERTEX
  5
1FB
  8
PROFILE
 10
1059.22200218403
 20
673.243744991086
 30
0.0
  0
VERTEX
  5
1FC
  8
PROFILE
 10
1059.387821699845
 20
673.2279117261351
 30
0.0
  0
VERTEX
  5
1FD
  8
PROFILE
 10
1059.554206752451
 20
673.2199859218703
 30
0.0
  0
VERTEX
  5
1FE
  8
PROFILE
 10
1059.720780472179
 20
673.2199855305969
 30
0.0
  0
VERTEX
  5
1FF
  8
PROFILE
 10
1059.887165562019
 20
673.2279105532012
 30
0.0
  0
VERTEX
  5
200
  8
PROFILE
 10
1060.052985152215
 20
673.2437430391485
 30
0.0
  0
VERTEX
  5
201
  8
PROFILE
 10
1060.217863653896
 20
673.267447127142
 30
0.0
  0
VERTEX
  5
202
  8
PROFILE
 10
1060.381427609797
 20
673.29896912635
 30
0.0
  0
VERTEX
  5
203
  8
PROFILE
 10
1060.543306540161
 20
673.3382376380188
 30
0.0
  0
VERTEX
  5
204
  8
PROFILE
 10
1060.703133781886
 20
673.3851637171929
 30
0.0
  0
VERTEX
  5
205
  8
PROFILE
 10
1060.860547319041
 20
673.4396410741806
 30
0.0
  0
VERTEX
  5
206
  8
PROFILE
 10
1061.015190602845
 20
673.5015463153039
 30
0.0
  0
VERTEX
  5
207
  8
PROFILE
 10
1061.166713359265
 20
673.5707392223918
 30
0.0
  0
VERTEX
  5
208
  8
PROFILE
 10
1061.314772382402
 20
673.6470630703798
 30
0.0
  0
VERTEX
  5
209
  8
PROFILE
 10
1061.459032311874
 20
673.7303449822998
 30
0.0
  0
VERTEX
  5
20A
  8
PROFILE
 10
1061.599166392413
 20
673.8203963208543
 30
0.0
  0
VERTEX
  5
20B
  8
PROFILE
 10
1061.73485721399
 20
673.9170131156882
 30
0.0
  0
VERTEX
  5
20C
  8
PROFILE
 10
1061.865797430756
 20
674.0199765253908
 30
0.0
  0
VERTEX
  5
20D
  8
PROFILE
 10
1061.991690457196
 20
674.1290533331818
 30
0.0
  0
VERTEX
  5
20E
  8
PROFILE
 10
1062.112251139911
 20
674.2439964751578
 30
0.0
  0
VERTEX
  5
20F
  8
PROFILE
 10
1062.227206403503
 20
674.364545599903
 30
0.0
  0
VERTEX
  5
210
  8
PROFILE
 10
1062.336295869098
 20
674.490427658197
 30
0.0
  0
VERTEX
  5
211
  8
PROFILE
 10
1062.439272444123
 20
674.6213575214836
 30
0.0
  0
VERTEX
  5
212
  8
PROFILE
 10
1062.535902881978
 20
674.7570386277004
 30
0.0
  0
VERTEX
  5
213
  8
PROFILE
 10
1062.625968310349
 20
674.8971636530042
 30
0.0
  0
VERTEX
  5
214
  8
PROFILE
 10
1062.709264726968
 20
675.0414152078748
 30
0.0
  0
VERTEX
  5
215
  8
PROFILE
 10
1062.785603461684
 20
675.1894665560153
 30
0.0
  0
VERTEX
  5
216
  8
PROFILE
 10
1062.854811603808
 20
675.3409823544253
 30
0.0
  0
VERTEX
  5
217
  8
PROFILE
 10
1062.91673239377
 20
675.4956194129679
 30
0.0
  0
VERTEX
  5
218
  8
PROFILE
 10
1062.971225578178
 20
675.653027471711
 30
0.0
  0
VERTEX
  5
219
  8
PROFILE
 10
1063.018167727505
 20
675.8128499942812
 30
0.0
  0
VERTEX
  5
21A
  8
PROFILE
 10
1063.057452515659
 20
675.9747249754358
 30
0.0
  0
VERTEX
  5
21B
  8
PROFILE
 10
1063.08899096082
 20
676.1382857610205
 30
0.0
  0
VERTEX
  5
21C
  8
PROFILE
 10
1063.11271162698
 20
676.3031618784574
 30
0.0
  0
VERTEX
  5
21D
  8
PROFILE
 10
1063.128560785759
 20
676.4689798758828
 30
0.0
  0
VERTEX
  5
21E
  8
PROFILE
 10
1063.135265625797
 20
676.5939009117659
 30
0.0
  0
VERTEX
  5
21F
  8
PROFILE
 10
1063.137501831301
 20
676.7189881960559
 30
0.0
  0
VERTEX
  5
220
  8
PROFILE
 10
1074.637501831313
 20
676.7189946286096
 30
0.0
  0
VERTEX
  5
221
  8
PROFILE
 10
1074.637501831313
 20
658.2189946286096
 30
0.0
  0
VERTEX
  5
222
  8
PROFILE
 10
1063.137501831301
 20
658.2189881960559
 30
0.0
  0
VERTEX
  5
223
  8
PROFILE
 10
1063.135266545328
 20
658.3440626316743
 30
0.0
  0
VERTEX
  5
224
  8
PROFILE
 10
1063.128562623645
 20
658.4689837168447
 30
0.0
  0
VERTEX
  5
225
  8
PROFILE
 10
1063.112714648848
 20
658.6348021235357
 30
0.0
  0
VERTEX
  5
226
  8
PROFILE
 10
1063.088995131967
 20
658.7996787041094
 30
0.0
  0
VERTEX
  5
227
  8
PROFILE
 10
1063.05745779897
 20
658.963240004331
 30
0.0
  0
VERTEX
  5
228
  8
PROFILE
 10
1063.018174083597
 20
659.1251155491461
 30
0.0
  0
VERTEX
  5
229
  8
PROFILE
 10
1062.971232965554
 20
659.2849386818261
 30
0.0
  0
VERTEX
  5
22A
  8
PROFILE
 10
1062.916740768974
 20
659.4423473944648
 30
0.0
  0
VERTEX
  5
22B
  8
PROFILE
 10
1062.854820921583
 20
659.5969851479464
 30
0.0
  0
VERTEX
  5
22C
  8
PROFILE
 10
1062.785613675133
 20
659.7485016795247
 30
0.0
  0
VERTEX
  5
22D
  8
PROFILE
 10
1062.709275787722
 20
659.8965537961876
 30
0.0
  0
VERTEX
  5
22E
  8
PROFILE
 10
1062.62598016873
 20
660.0408061520073
 30
0.0
  0
VERTEX
  5
22F
  8
PROFILE
 10
1062.53591548717
 20
660.1809320077166
 30
0.0
  0
VERTEX
  5
230
  8
PROFILE
 10
1062.439285744342
 20
660.3166139707905
 30
0.0
  0
VERTEX
  5
231
  8
PROFILE
 10
1062.336309811757
 20
660.4475447143578
 30
0.0
  0
VERTEX
  5
232
  8
PROFILE
 10
1062.227220935388
 20
660.5734276733124
 30
0.0
  0
VERTEX
  5
233
  8
PROFILE
 10
1062.112266207347
 20
660.6939777160491
 30
0.0
  0
VERTEX
  5
234
  8
PROFILE
 10
1061.991706006215
 20
660.8089217903018
 30
0.0
  0
VERTEX
  5
235
  8
PROFILE
 10
1061.865813407268
 20
660.9179995416217
 30
0.0
  0
VERTEX
  5
236
  8
PROFILE
 10
1061.734873563945
 20
661.0209639030938
 30
0.0
  0
VERTEX
  5
237
  8
PROFILE
 10
1061.599183061965
 20
661.1175816549567
 30
0.0
  0
VERTEX
  5
238
  8
PROFILE
 10
1061.459049247539
 20
661.2076339528573
 30
0.0
  0
VERTEX
  5
239
  8
PROFILE
 10
1061.314789531219
 20
661.2909168235459
 30
0.0
  0
VERTEX
  5
23A
  8
PROFILE
 10
1061.166730668945
 20
661.3672416268855
 30
0.0
  0
VERTEX
  5
23B
  8
PROFILE
 10
1061.015208021924
 20
661.4364354831324
 30
0.0
  0
VERTEX
  5
23C
  8
PROFILE
 10
1060.860564797018
 20
661.4983416645176
 30
0.0
  0
VERTEX
  5
23D
  8
PROFILE
 10
1060.703151269369
 20
661.5528199502439
 30
0.0
  0
VERTEX
  5
23E
  8
PROFILE
 10
1060.543323988997
 20
661.5997469440931
 30
0.0
  0
VERTEX
  5
23F
  8
PROFILE
 10
1060.381444973204
 20
661.6390163539255
 30
0.0
  0
VERTEX
  5
240
  8
PROFILE
 10
1060.21788088658
 20
661.6705392324365
 30
0.0
  0
VERTEX
  5
241
  8
PROFILE
 10
1060.053002210492
 20
661.6942441786279
 30
0.0
  0
VERTEX
  5
242
  8
PROFILE
 10
1059.887182403919
 20
661.7100774995342
 30
0.0
  0
VERTEX
  5
243
  8
PROFILE
 10
1059.720797057554
 20
661.7180033318405
 30
0.0
  0
VERTEX
  5
244
  8
PROFILE
 10
1059.554223043066
 20
661.7180037231145
 30
0.0
  0
VERTEX
  5
245
  8
PROFILE
 10
1059.387837659468
 20
661.7100786724701
 30
0.0
  0
VERTEX
  5
246
  8
PROFILE
 10
1059.222017778514
 20
661.6942461305689
 30
0.0
  0
VERTEX
  5
247
  8
PROFILE
 10
1059.057138991064
 20
661.6705419589613
 30
0.0
  0
VERTEX
  5
248
  8
PROFILE
 10
1058.89357475635
 20
661.6390198488583
 30
0.0
  0
VERTEX
  5
249
  8
PROFILE
 10
1058.731695556075
 20
661.599751199518
 30
0.0
  0
VERTEX
  5
24A
  8
PROFILE
 10
1058.571868055247
 20
661.5528249565218
 30
0.0
  0
VERTEX
  5
24B
  8
PROFILE
 10
1058.414454271665
 20
661.4983474103092
 30
0.0
  0
VERTEX
  5
24C
  8
PROFILE
 10
1058.259810755933
 20
661.4364419554231
 30
0.0
  0
VERTEX
  5
24D
  8
PROFILE
 10
1058.108287783847
 20
661.3672488110152
 30
0.0
  0
VERTEX
  5
24E
  8
PROFILE
 10
1057.960228563009
 20
661.2909247032422
 30
0.0
  0
VERTEX
  5
24F
  8
PROFILE
 10
1057.815968455436
 20
661.2076425102723
 30
0.0
  0
VERTEX
  5
250
  8
PROFILE
 10
1057.675834217955
 20
661.1175908707073
 30
0.0
  0
VERTEX
  5
251
  8
PROFILE
 10
1057.540143262075
 20
661.020973756306
 30
0.0
  0
VERTEX
  5
252
  8
PROFILE
 10
1057.409202935038
 20
660.9180100099774
 30
0.0
  0
VERTEX
  5
253
  8
PROFILE
 10
1057.283309823655
 20
660.8089328500895
 30
0.0
  0
VERTEX
  5
254
  8
PROFILE
 10
1057.162749082529
 20
660.6939893422178
 30
0.0
  0
VERTEX
  5
255
  8
PROFILE
 10
1057.047793788158
 20
660.5734398395283
 30
0.0
  0
VERTEX
  5
256
  8
PROFILE
 10
1056.938704320404
 20
660.4475573930638
 30
0.0
  0
VERTEX
  5
257
  8
PROFILE
 10
1056.835727772721
 20
660.3166271332685
 30
0.0
  0
VERTEX
  5
258
  8
PROFILE
 10
1056.739097392473
 20
660.1809456241531
 30
0.0
  0
VERTEX
  5
259
  8
PROFILE
 10
1056.649032052617
 20
660.0408201915602
 30
0.0
  0
VERTEX
  5
25A
  8
PROFILE
 10
1056.565735755943
 20
659.8965682270566
 30
0.0
  0
VERTEX
  5
25B
  8
PROFILE
 10
1056.489397172999
 20
659.7485164690231
 30
0.0
  0
VERTEX
  5
25C
  8
PROFILE
 10
1056.42018921474
 20
659.5970002625752
 30
0.0
  0
VERTEX
  5
25D
  8
PROFILE
 10
1056.358268640877
 20
659.4423627999886
 30
0.0
  0
VERTEX
  5
25E
  8
PROFILE
 10
1056.303775704807
 20
659.2849543433505
 30
0.0
  0
VERTEX
  5
25F
  8
PROFILE
 10
1056.256833835931
 20
659.125131431197
 30
0.0
  0
VERTEX
  5
260
  8
PROFILE
 10
1056.217549360083
 20
658.9632560709347
 30
0.0
  0
VERTEX
  5
261
  8
PROFILE
 10
1056.186011258692
 20
658.799694918874
 30
0.0
  0
VERTEX
  5
262
  8
PROFILE
 10
1056.162290967238
 20
658.6348184497341
 30
0.0
  0
VERTEX
  5
263
  8
PROFILE
 10
1056.141972022378
 20
658.3439973730533
 30
0.0
  0
VERTEX
  5
264
  8
PROFILE
 10
1056.137501831314
 20
639.7189964173813
 30
0.0
  0
VERTEX
  5
265
  8
PROFILE
 10
1056.141465967252
 20
639.552461637279
 30
0.0
  0
VERTEX
  5
266
  8
PROFILE
 10
1056.153349735489
 20
639.386302318556
 30
0.0
  0
VERTEX
  5
267
  8
PROFILE
 10
1056.173126215514
 20
639.2208966536474
 30
0.0
  0
VERTEX
  5
268
  8
PROFILE
 10
1056.200750607315
 20
639.0566193389517
 30
0.0
  0
VERTEX
  5
269
  8
PROFILE
 10
1056.236160332864
 20
638.893842514795
 30
0.0
  0
VERTEX
  5
26A
  8
PROFILE
 10
1056.279275177881
 20
638.7329349224159
 30
0.0
  0
VERTEX
  5
26B
  8
PROFILE
 10
1056.329997473538
 20
638.5742610686489
 30
0.0
  0
VERTEX
  5
26C
  8
PROFILE
 10
1056.388212317716
 20
638.4181804002005
 30
0.0
  0
VERTEX
  5
26D
  8
PROFILE
 10
1056.453787835292
 20
638.2650464893884
 30
0.0
  0
VERTEX
  5
26E
  8
PROFILE
 10
1056.526575476879
 20
638.1152062331877
 30
0.0
  0
VERTEX
  5
26F
  8
PROFILE
 10
1056.606410355335
 20
637.9689990673992
 30
0.0
  0
VERTEX
  5
270
  8
PROFILE
 10
1056.693111619289
 20
637.8267561977192
 30
0.0
  0
VERTEX
  5
271
  8
PROFILE
 10
1056.786482862823
 20
637.6887998494533
 30
0.0
  0
VERTEX
  5
272
  8
PROFILE
 10
1056.886312570397
 20
637.555442537574
 30
0.0
  0
VERTEX
  5
273
  8
PROFILE
 10
1056.992374595997
 20
637.4269863587747
 30
0.0
  0
VERTEX
  5
274
  8
PROFILE
 10
1057.104428675427
 20
637.3037223071248
 30
0.0
  0
VERTEX
  5
275
  8
PROFILE
 10
1057.222220970585
 20
637.1859296148755
 30
0.0
  0
VERTEX
  5
276
  8
PROFILE
 10
1057.345484644488
 20
637.0738751199102
 30
0.0
  0
VERTEX
  5
277
  8
PROFILE
 10
1057.473940465741
 20
636.967812661272
 30
0.0
  0
VERTEX
  5
278
  8
PROFILE
 10
1057.607297441083
 20
636.8679825041368
 30
0.0
  0
VERTEX
  5
279
  8
PROFILE
 10
1057.745253474583
 20
636.7746107955376
 30
0.0
  0
VERTEX
  5
27A
  8
PROFILE
 10
1057.887496051984
 20
636.6879090520686
 30
0.0
  0
VERTEX
  5
27B
  8
PROFILE
 10
1058.03370294864
 20
636.6080736807331
 30
0.0
  0
VERTEX
  5
27C
  8
PROFILE
 10
1058.183542959465
 20
636.5352855340197
 30
0.0
  0
VERTEX
  5
27D
  8
PROFILE
 10
1058.336676649214
 20
636.4697095002133
 30
0.0
  0
VERTEX
  5
27E
  8
PROFILE
 10
1058.492757121413
 20
636.4114941298709
 30
0.0
  0
VERTEX
  5
27F
  8
PROFILE
 10
1058.651430804189
 20
636.3607712993078
 30
0.0
  0
VERTEX
  5
280
  8
PROFILE
 10
1058.812338251222
 20
636.3176559118552
 30
0.0
  0
VERTEX
  5
281
  8
PROFILE
 10
1058.975114956008
 20
636.2822456375682
 30
0.0
  0
VERTEX
  5
282
  8
PROFILE
 10
1059.139392177578
 20
636.2546206919716
 30
0.0
  0
VERTEX
  5
283
  8
PROFILE
 10
1059.304797775817
 20
636.2348436543467
 30
0.0
  0
VERTEX
  5
284
  8
PROFILE
 10
1059.470957054478
 20
636.2229593259691
 30
0.0
  0
VERTEX
  5
285
  8
PROFILE
 10
1059.637493609987
 20
636.2189946286193
 30
0.0
  0
VERTEX
  5
286
  8
PROFILE
 10
1059.804030184121
 20
636.2229585435969
 30
0.0
  0
VERTEX
  5
287
  8
PROFILE
 10
1059.970189518611
 20
636.2348420913747
 30
0.0
  0
VERTEX
  5
288
  8
PROFILE
 10
1060.135595209759
 20
636.2546183519404
 30
0.0
  0
VERTEX
  5
289
  8
PROFILE
 10
1060.299872561106
 20
636.2822425257787
 30
0.0
  0
VERTEX
  5
28A
  8
PROFILE
 10
1060.462649432244
 20
636.3176520353566
 30
0.0
  0
VERTEX
  5
28B
  8
PROFILE
 10
1060.623557081828
 20
636.3607666668815
 30
0.0
  0
VERTEX
  5
28C
  8
PROFILE
 10
1060.782231002892
 20
636.411488752011
 30
0.0
  0
VERTEX
  5
28D
  8
PROFILE
 10
1060.93831174858
 20
636.4697033891023
 30
0.0
  0
VERTEX
  5
28E
  8
PROFILE
 10
1061.091445746397
 20
636.5352787035011
 30
0.0
  0
VERTEX
  5
28F
  8
PROFILE
 10
1061.241286099172
 20
636.6080661462804
 30
0.0
  0
VERTEX
  5
290
  8
PROFILE
 10
1061.387493370885
 20
636.6879008307495
 30
0.0
  0
VERTEX
  5
291
  8
PROFILE
 10
1061.5297363556
 20
636.7746019059762
 30
0.0
  0
VERTEX
  5
292
  8
PROFILE
 10
1061.66769282775
 20
636.8679729664707
 30
0.0
  0
VERTEX
  5
293
  8
PROFILE
 10
1061.801050272082
 20
636.967802497107
 30
0.0
  0
VERTEX
  5
294
  8
PROFILE
 10
1061.929506591604
 20
637.0738643522715
 30
0.0
  0
VERTEX
  5
295
  8
PROFILE
 10
1062.052770791927
 20
637.185918268155
 30
0.0
  0
VERTEX
  5
296
  8
PROFILE
 10
1062.170563640462
 20
637.3037104070265
 30
0.0
  0
VERTEX
  5
297
  8
PROFILE
 10
1062.282618298973
 20
637.4269739322563
 30
0.0
  0
VERTEX
  5
298
  8
PROFILE
 10
1062.388680928046
 20
637.5554296127852
 30
0.0
  0
VERTEX
  5
299
  8
PROFILE
 10
1062.488511262118
 20
637.688786455673
 30
0.0
  0
VERTEX
  5
29A
  8
PROFILE
 10
1062.581883153757
 20
637.8267423652886
 30
0.0
  0
VERTEX
  5
29B
  8
PROFILE
 10
1062.668585085952
 20
637.9689848276532
 30
0.0
  0
VERTEX
  5
29C
  8
PROFILE
 10
1062.748420651274
 20
638.1151916183838
 30
0.0
  0
VERTEX
  5
29D
  8
PROFILE
 10
1062.821208996794
 20
638.2650315326338
 30
0.0
  0
VERTEX
  5
29E
  8
PROFILE
 10
1062.886785233778
 20
638.418165135377
 30
0.0
  0
VERTEX
  5
29F
  8
PROFILE
 10
1062.945000811207
 20
638.5742455303362
 30
0.0
  0
VERTEX
  5
2A0
  8
PROFILE
 10
1062.995723852297
 20
638.7329191458132
 30
0.0
  0
VERTEX
  5
2A1
  8
PROFILE
 10
1063.038839453241
 20
638.8938265356412
 30
0.0
  0
VERTEX
  5
2A2
  8
PROFILE
 10
1063.0742499435
 20
639.0566031934446
 30
0.0
  0
VERTEX
  5
2A3
  8
PROFILE
 10
1063.101875107058
 20
639.220880378362
 30
0.0
  0
VERTEX
  5
2A4
  8
PROFILE
 10
1063.121652364142
 20
639.3862859503607
 30
0.0
  0
VERTEX
  5
2A5
  8
PROFILE
 10
1063.133536912979
 20
639.5524452132532
 30
0.0
  0
VERTEX
  5
2A6
  8
PROFILE
 10
1063.137501831301
 20
639.7189881960559
 30
0.0
  0
VERTEX
  5
2A7
  8
PROFILE
 10
1074.637501831313
 20
639.7189946286096
 30
0.0
  0
VERTEX
  5
2A8
  8
PROFILE
 10
1074.637501831313
 20
621.2189946286096
 30
0.0
  0
VERTEX
  5
2A9
  8
PROFILE
 10
364.6375018313126
 20
621.2189946286096
 30
0.0
  0
VERTEX
  5
2AA
  8
PROFILE
 10
364.6375018313126
 20
639.8921336255365
 30
0.0
  0
VERTEX
  5
2AB
  8
PROFILE
 10
376.1375018313136
 20
640.0652744112351
 30
0.0
  0
VERTEX
  5
2AC
  8
PROFILE
 10
376.139737449189
 20
639.9401953377663
 30
0.0
  0
VERTEX
  5
2AD
  8
PROFILE
 10
376.1464417023607
 20
639.815274270386
 30
0.0
  0
VERTEX
  5
2AE
  8
PROFILE
 10
376.162290082143
 20
639.6494561985047
 30
0.0
  0
VERTEX
  5
2AF
  8
PROFILE
 10
376.1860099737316
 20
639.4845799696323
 30
0.0
  0
VERTEX
  5
2B0
  8
PROFILE
 10
376.2175476504989
 20
639.3210190358849
 30
0.0
  0
VERTEX
  5
2B1
  8
PROFILE
 10
376.2568316781806
 20
639.1591438701761
 30
0.0
  0
VERTEX
  5
2B2
  8
PROFILE
 10
376.3037730766769
 20
638.999321127078
 30
0.0
  0
VERTEX
  5
2B3
  8
PROFILE
 10
376.3582655215969
 20
638.8419128123331
 30
0.0
  0
VERTEX
  5
2B4
  8
PROFILE
 10
376.4201855850882
 20
638.6872754628945
 30
0.0
  0
VERTEX
  5
2B5
  8
PROFILE
 10
376.4893930154059
 20
638.5357593393533
 30
0.0
  0
VERTEX
  5
2B6
  8
PROFILE
 10
376.5657310545902
 20
638.3877076325826
 30
0.0
  0
VERTEX
  5
2B7
  8
PROFILE
 10
376.649026793529
 20
638.2434556863955
 30
0.0
  0
VERTEX
  5
2B8
  8
PROFILE
 10
376.7390915636061
 20
638.1033302379747
 30
0.0
  0
VERTEX
  5
2B9
  8
PROFILE
 10
376.8357213640434
 20
637.9676486777993
 30
0.0
  0
VERTEX
  5
2BA
  8
PROFILE
 10
376.9386973239719
 20
637.8367183307404
 30
0.0
  0
VERTEX
  5
2BB
  8
PROFILE
 10
377.0477861981846
 20
637.7108357599565
 30
0.0
  0
VERTEX
  5
2BC
  8
PROFILE
 10
377.1627408954469
 20
637.5902860951643
 30
0.0
  0
VERTEX
  5
2BD
  8
PROFILE
 10
377.2833010381697
 20
637.4753423868075
 30
0.0
  0
VERTEX
  5
2BE
  8
PROFILE
 10
377.4091935521766
 20
637.3662649875847
 30
0.0
  0
VERTEX
  5
2BF
  8
PROFILE
 10
377.5401332852287
 20
637.2633009627392
 30
0.0
  0
VERTEX
  5
2C0
  8
PROFILE
 10
377.675823652908
 20
637.1666835304445
 30
0.0
  0
VERTEX
  5
2C1
  8
PROFILE
 10
377.8159573103941
 20
637.0766315335551
 30
0.0
  0
VERTEX
  5
2C2
  8
PROFILE
 10
377.9602168486138
 20
636.9933489439172
 30
0.0
  0
VERTEX
  5
2C3
  8
PROFILE
 10
378.108275513188
 20
636.9170244003636
 30
0.0
  0
VERTEX
  5
2C4
  8
PROFILE
 10
378.2597979445442
 20
636.8478307814377
 30
0.0
  0
VERTEX
  5
2C5
  8
PROFILE
 10
378.4144409375217
 20
636.7859248138162
 30
0.0
  0
VERTEX
  5
2C6
  8
PROFILE
 10
378.5718542187463
 20
636.7314467173161
 30
0.0
  0
VERTEX
  5
2C7
  8
PROFILE
 10
378.7316812400157
 20
636.68451988729
 30
0.0
  0
VERTEX
  5
2C8
  8
PROFILE
 10
378.8935599858975
 20
636.6452506151307
 30
0.0
  0
VERTEX
  5
2C9
  8
PROFILE
 10
379.0571237937098
 20
636.6137278475159
 30
0.0
  0
VERTEX
  5
2CA
  8
PROFILE
 10
379.2220021840296
 20
636.5900229849399
 30
0.0
  0
VERTEX
  5
2CB
  8
PROFILE
 10
379.3878216998447
 20
636.5741897199889
 30
0.0
  0
VERTEX
  5
2CC
  8
PROFILE
 10
379.5542067524513
 20
636.5662639157241
 30
0.0
  0
VERTEX
  5
2CD
  8
PROFILE
 10
379.7207804721793
 20
636.5662635244507
 30
0.0
  0
VERTEX
  5
2CE
  8
PROFILE
 10
379.8871655620188
 20
636.5741885470551
 30
0.0
  0
VERTEX
  5
2CF
  8
PROFILE
 10
380.0529851522152
 20
636.5900210330024
 30
0.0
  0
VERTEX
  5
2D0
  8
PROFILE
 10
380.2178636538962
 20
636.6137251209958
 30
0.0
  0
VERTEX
  5
2D1
  8
PROFILE
 10
380.3814276097975
 20
636.6452471202039
 30
0.0
  0
VERTEX
  5
2D2
  8
PROFILE
 10
380.5433065401606
 20
636.6845156318726
 30
0.0
  0
VERTEX
  5
2D3
  8
PROFILE
 10
380.7031337818859
 20
636.7314417110467
 30
0.0
  0
VERTEX
  5
2D4
  8
PROFILE
 10
380.8605473190414
 20
636.7859190680344
 30
0.0
  0
VERTEX
  5
2D5
  8
PROFILE
 10
381.0151906028452
 20
636.8478243091578
 30
0.0
  0
VERTEX
  5
2D6
  8
PROFILE
 10
381.1667133592645
 20
636.9170172162457
 30
0.0
  0
VERTEX
  5
2D7
  8
PROFILE
 10
381.3147723824021
 20
636.9933410642336
 30
0.0
  0
VERTEX
  5
2D8
  8
PROFILE
 10
381.4590323118736
 20
637.0766229761537
 30
0.0
  0
VERTEX
  5
2D9
  8
PROFILE
 10
381.5991663924133
 20
637.1666743147082
 30
0.0
  0
VERTEX
  5
2DA
  8
PROFILE
 10
381.7348572139902
 20
637.263291109542
 30
0.0
  0
VERTEX
  5
2DB
  8
PROFILE
 10
381.8657974307556
 20
637.3662545192446
 30
0.0
  0
VERTEX
  5
2DC
  8
PROFILE
 10
381.9916904571958
 20
637.4753313270356
 30
0.0
  0
VERTEX
  5
2DD
  8
PROFILE
 10
382.1122511399115
 20
637.5902744690117
 30
0.0
  0
VERTEX
  5
2DE
  8
PROFILE
 10
382.2272064035027
 20
637.7108235937568
 30
0.0
  0
VERTEX
  5
2DF
  8
PROFILE
 10
382.336295869098
 20
637.8367056520508
 30
0.0
  0
VERTEX
  5
2E0
  8
PROFILE
 10
382.439272444123
 20
637.9676355153374
 30
0.0
  0
VERTEX
  5
2E1
  8
PROFILE
 10
382.5359028819776
 20
638.1033166215542
 30
0.0
  0
VERTEX
  5
2E2
  8
PROFILE
 10
382.6259683103492
 20
638.2434416468581
 30
0.0
  0
VERTEX
  5
2E3
  8
PROFILE
 10
382.7092647269683
 20
638.3876932017287
 30
0.0
  0
VERTEX
  5
2E4
  8
PROFILE
 10
382.7856034616838
 20
638.5357445498692
 30
0.0
  0
VERTEX
  5
2E5
  8
PROFILE
 10
382.8548116038085
 20
638.6872603482791
 30
0.0
  0
VERTEX
  5
2E6
  8
PROFILE
 10
382.9167323937699
 20
638.8418974068218
 30
0.0
  0
VERTEX
  5
2E7
  8
PROFILE
 10
382.9712255781779
 20
638.9993054655648
 30
0.0
  0
VERTEX
  5
2E8
  8
PROFILE
 10
383.0181677275049
 20
639.1591279881351
 30
0.0
  0
VERTEX
  5
2E9
  8
PROFILE
 10
383.0574525156595
 20
639.3210029692897
 30
0.0
  0
VERTEX
  5
2EA
  8
PROFILE
 10
383.0889909608194
 20
639.4845637548743
 30
0.0
  0
VERTEX
  5
2EB
  8
PROFILE
 10
383.1127116269798
 20
639.6494398723113
 30
0.0
  0
VERTEX
  5
2EC
  8
PROFILE
 10
383.1285607857589
 20
639.8152578697367
 30
0.0
  0
VERTEX
  5
2ED
  8
PROFILE
 10
383.1352656257971
 20
639.9401789056197
 30
0.0
  0
VERTEX
  5
2EE
  8
PROFILE
 10
383.1375018313008
 20
640.0652661899097
 30
0.0
  0
SEQEND
  5
597
  8
PROFILE
  0
POLYLINE
  5
74
  8
PROFILE
 66
     1
 10
0.0
 20
0.0
 30
0.0
 70
     1
  0
VERTEX
  5
2EF
  8
PROFILE
 10
383.133032227479
 20
768.7996803194475
 30
0.0
  0
VERTEX
  5
2F0
  8
PROFILE
 10
383.1127146488482
 20
768.917354273329
 30
0.0
  0
VERTEX
  5
2F1
  8
PROFILE
 10
383.0889951319668
 20
769.0822308539027
 30
0.0
  0
VERTEX
  5
2F2
  8
PROFILE
 10
383.0574577989703
 20
769.2457921541244
 30
0.0
  0
VERTEX
  5
2F3
  8
PROFILE
 10
383.0181740835971
 20
769.4076676989395
 30
0.0
  0
VERTEX
  5
2F4
  8
PROFILE
 10
382.9712329655543
 20
769.5674908316195
 30
0.0
  0
VERTEX
  5
2F5
  8
PROFILE
 10
382.916740768974
 20
769.7248995442582
 30
0.0
  0
VERTEX
  5
2F6
  8
PROFILE
 10
382.854820921583
 20
769.8795372977397
 30
0.0
  0
VERTEX
  5
2F7
  8
PROFILE
 10
382.7856136751329
 20
770.031053829318
 30
0.0
  0
VERTEX
  5
2F8
  8
PROFILE
 10
382.709275787722
 20
770.179105945981
 30
0.0
  0
VERTEX
  5
2F9
  8
PROFILE
 10
382.6259801687304
 20
770.3233583018007
 30
0.0
  0
VERTEX
  5
2FA
  8
PROFILE
 10
382.5359154871704
 20
770.4634841575099
 30
0.0
  0
VERTEX
  5
2FB
  8
PROFILE
 10
382.4392857443417
 20
770.5991661205838
 30
0.0
  0
VERTEX
  5
2FC
  8
PROFILE
 10
382.3363098117573
 20
770.7300968641512
 30
0.0
  0
VERTEX
  5
2FD
  8
PROFILE
 10
382.2272209353877
 20
770.8559798231057
 30
0.0
  0
VERTEX
  5
2FE
  8
PROFILE
 10
382.112266207347
 20
770.9765298658424
 30
0.0
  0
VERTEX
  5
2FF
  8
PROFILE
 10
381.9917060062153
 20
771.0914739400952
 30
0.0
  0
VERTEX
  5
300
  8
PROFILE
 10
381.8658134072679
 20
771.2005516914151
 30
0.0
  0
VERTEX
  5
301
  8
PROFILE
 10
381.7348735639452
 20
771.3035160528872
 30
0.0
  0
VERTEX
  5
302
  8
PROFILE
 10
381.5991830619648
 20
771.40013380475
 30
0.0
  0
VERTEX
  5
303
  8
PROFILE
 10
381.4590492475388
 20
771.4901861026507
 30
0.0
  0
VERTEX
  5
304
  8
PROFILE
 10
381.3147895312193
 20
771.5734689733392
 30
0.0
  0
VERTEX
  5
305
  8
PROFILE
 10
381.1667306689451
 20
771.6497937766788
 30
0.0
  0
VERTEX
  5
306
  8
PROFILE
 10
381.0152080219236
 20
771.7189876329257
 30
0.0
  0
VERTEX
  5
307
  8
PROFILE
 10
380.8605647970186
 20
771.780893814311
 30
0.0
  0
VERTEX
  5
308
  8
PROFILE
 10
380.7031512693691
 20
771.8353721000373
 30
0.0
  0
VERTEX
  5
309
  8
PROFILE
 10
380.5433239889974
 20
771.8822990938864
 30
0.0
  0
VERTEX
  5
30A
  8
PROFILE
 10
380.3814449732042
 20
771.9215685037188
 30
0.0
  0
VERTEX
  5
30B
  8
PROFILE
 10
380.2178808865804
 20
771.9530913822298
 30
0.0
  0
VERTEX
  5
30C
  8
PROFILE
 10
380.0530022104915
 20
771.9767963284212
 30
0.0
  0
VERTEX
  5
30D
  8
PROFILE
 10
379.8871824039188
 20
771.9926296493276
 30
0.0
  0
VERTEX
  5
30E
  8
PROFILE
 10
379.7207970575539
 20
772.0005554816338
 30
0.0
  0
VERTEX
  5
30F
  8
PROFILE
 10
379.5542230430661
 20
772.0005558729079
 30
0.0
  0
VERTEX
  5
310
  8
PROFILE
 10
379.3878376594682
 20
771.9926308222634
 30
0.0
  0
VERTEX
  5
311
  8
PROFILE
 10
379.2220177785139
 20
771.9767982803622
 30
0.0
  0
VERTEX
  5
312
  8
PROFILE
 10
379.0571389910635
 20
771.9530941087546
 30
0.0
  0
VERTEX
  5
313
  8
PROFILE
 10
378.8935747563501
 20
771.9215719986516
 30
0.0
  0
VERTEX
  5
314
  8
PROFILE
 10
378.7316955560749
 20
771.8823033493113
 30
0.0
  0
VERTEX
  5
315
  8
PROFILE
 10
378.5718680552466
 20
771.8353771063151
 30
0.0
  0
VERTEX
  5
316
  8
PROFILE
 10
378.4144542716654
 20
771.7808995601025
 30
0.0
  0
VERTEX
  5
317
  8
PROFILE
 10
378.259810755933
 20
771.7189941052164
 30
0.0
  0
VERTEX
  5
318
  8
PROFILE
 10
378.1082877838472
 20
771.6498009608085
 30
0.0
  0
VERTEX
  5
319
  8
PROFILE
 10
377.9602285630085
 20
771.5734768530356
 30
0.0
  0
VERTEX
  5
31A
  8
PROFILE
 10
377.8159684554358
 20
771.4901946600656
 30
0.0
  0
VERTEX
  5
31B
  8
PROFILE
 10
377.6758342179548
 20
771.4001430205006
 30
0.0
  0
VERTEX
  5
31C
  8
PROFILE
 10
377.5401432620753
 20
771.3035259060994
 30
0.0
  0
VERTEX
  5
31D
  8
PROFILE
 10
377.4092029350377
 20
771.2005621597707
 30
0.0
  0
VERTEX
  5
31E
  8
PROFILE
 10
377.2833098236553
 20
771.0914849998828
 30
0.0
  0
VERTEX
  5
31F
  8
PROFILE
 10
377.1627490825292
 20
770.9765414920112
 30
0.0
  0
VERTEX
  5
320
  8
PROFILE
 10
377.0477937881576
 20
770.8559919893216
 30
0.0
  0
VERTEX
  5
321
  8
PROFILE
 10
376.9387043204037
 20
770.7301095428571
 30
0.0
  0
VERTEX
  5
322
  8
PROFILE
 10
376.8357277727208
 20
770.5991792830619
 30
0.0
  0
VERTEX
  5
323
  8
PROFILE
 10
376.7390973924728
 20
770.4634977739464
 30
0.0
  0
VERTEX
  5
324
  8
PROFILE
 10
376.6490320526166
 20
770.3233723413535
 30
0.0
  0
VERTEX
  5
325
  8
PROFILE
 10
376.5657357559427
 20
770.1791203768499
 30
0.0
  0
VERTEX
  5
326
  8
PROFILE
 10
376.4893971729987
 20
770.0310686188164
 30
0.0
  0
VERTEX
  5
327
  8
PROFILE
 10
376.4201892147397
 20
769.8795524123685
 30
0.0
  0
VERTEX
  5
328
  8
PROFILE
 10
376.3582686408767
 20
769.7249149497819
 30
0.0
  0
VERTEX
  5
329
  8
PROFILE
 10
376.3037757048066
 20
769.5675064931438
 30
0.0
  0
VERTEX
  5
32A
  8
PROFILE
 10
376.2568338359312
 20
769.4076835809904
 30
0.0
  0
VERTEX
  5
32B
  8
PROFILE
 10
376.2175493600832
 20
769.245808220728
 30
0.0
  0
VERTEX
  5
32C
  8
PROFILE
 10
376.1860112586924
 20
769.0822470686674
 30
0.0
  0
VERTEX
  5
32D
  8
PROFILE
 10
376.1622909672376
 20
768.9173705995274
 30
0.0
  0
VERTEX
  5
32E
  8
PROFILE
 10
376.1464422134421
 20
768.7515522672904
 30
0.0
  0
VERTEX
  5
32F
  8
PROFILE
 10
376.1397377048931
 20
768.6266312136158
 30
0.0
  0
VERTEX
  5
330
  8
PROFILE
 10
376.1375018313136
 20
768.5015485671746
 30
0.0
  0
VERTEX
  5
331
  8
PROFILE
 10
364.6375018313126
 20
768.5015467784029
 30
0.0
  0
VERTEX
  5
332
  8
PROFILE
 10
364.6375018313126
 20
787.0015467784029
 30
0.0
  0
VERTEX
  5
333
  8
PROFILE
 10
376.1375018313136
 20
787.0015485671746
 30
0.0
  0
VERTEX
  5
334
  8
PROFILE
 10
376.139737449189
 20
786.8764694937058
 30
0.0
  0
VERTEX
  5
335
  8
PROFILE
 10
376.1464417023607
 20
786.7515484263255
 30
0.0
  0
VERTEX
  5
336
  8
PROFILE
 10
376.162290082143
 20
786.5857303544442
 30
0.0
  0
VERTEX
  5
337
  8
PROFILE
 10
376.1860099737316
 20
786.4208541255717
 30
0.0
  0
VERTEX
  5
338
  8
PROFILE
 10
376.2175476504989
 20
786.2572931918244
 30
0.0
  0
VERTEX
  5
339
  8
PROFILE
 10
376.2568316781806
 20
786.0954180261156
 30
0.0
  0
VERTEX
  5
33A
  8
PROFILE
 10
376.3037730766769
 20
785.9355952830175
 30
0.0
  0
VERTEX
  5
33B
  8
PROFILE
 10
376.3582655215969
 20
785.7781869682726
 30
0.0
  0
VERTEX
  5
33C
  8
PROFILE
 10
376.4201855850882
 20
785.623549618834
 30
0.0
  0
VERTEX
  5
33D
  8
PROFILE
 10
376.4893930154059
 20
785.4720334952927
 30
0.0
  0
VERTEX
  5
33E
  8
PROFILE
 10
376.5657310545902
 20
785.3239817885221
 30
0.0
  0
VERTEX
  5
33F
  8
PROFILE
 10
376.649026793529
 20
785.179729842335
 30
0.0
  0
VERTEX
  5
340
  8
PROFILE
 10
376.7390915636061
 20
785.0396043939141
 30
0.0
  0
VERTEX
  5
341
  8
PROFILE
 10
376.8357213640434
 20
784.9039228337388
 30
0.0
  0
VERTEX
  5
342
  8
PROFILE
 10
376.9386973239719
 20
784.7729924866799
 30
0.0
  0
VERTEX
  5
343
  8
PROFILE
 10
377.0477861981846
 20
784.647109915896
 30
0.0
  0
VERTEX
  5
344
  8
PROFILE
 10
377.1627408954469
 20
784.5265602511038
 30
0.0
  0
VERTEX
  5
345
  8
PROFILE
 10
377.2833010381697
 20
784.411616542747
 30
0.0
  0
VERTEX
  5
346
  8
PROFILE
 10
377.4091935521766
 20
784.3025391435242
 30
0.0
  0
VERTEX
  5
347
  8
PROFILE
 10
377.5401332852287
 20
784.1995751186787
 30
0.0
  0
VERTEX
  5
348
  8
PROFILE
 10
377.675823652908
 20
784.102957686384
 30
0.0
  0
VERTEX
  5
349
  8
PROFILE
 10
377.8159573103941
 20
784.0129056894946
 30
0.0
  0
VERTEX
  5
34A
  8
PROFILE
 10
377.9602168486138
 20
783.9296230998567
 30
0.0
  0
VERTEX
  5
34B
  8
PROFILE
 10
378.108275513188
 20
783.8532985563031
 30
0.0
  0
VERTEX
  5
34C
  8
PROFILE
 10
378.2597979445442
 20
783.7841049373772
 30
0.0
  0
VERTEX
  5
34D
  8
PROFILE
 10
378.4144409375217
 20
783.7221989697557
 30
0.0
  0
VERTEX
  5
34E
  8
PROFILE
 10
378.5718542187463
 20
783.6677208732556
 30
0.0
  0
VERTEX
  5
34F
  8
PROFILE
 10
378.7316812400157
 20
783.6207940432295
 30
0.0
  0
VERTEX
  5
350
  8
PROFILE
 10
378.8935599858975
 20
783.5815247710702
 30
0.0
  0
VERTEX
  5
351
  8
PROFILE
 10
379.0571237937098
 20
783.5500020034553
 30
0.0
  0
VERTEX
  5
352
  8
PROFILE
 10
379.2220021840296
 20
783.5262971408794
 30
0.0
  0
VERTEX
  5
353
  8
PROFILE
 10
379.3878216998447
 20
783.5104638759284
 30
0.0
  0
VERTEX
  5
354
  8
PROFILE
 10
379.5542067524513
 20
783.5025380716636
 30
0.0
  0
VERTEX
  5
355
  8
PROFILE
 10
379.7207804721793
 20
783.5025376803902
 30
0.0
  0
VERTEX
  5
356
  8
PROFILE
 10
379.8871655620188
 20
783.5104627029946
 30
0.0
  0
VERTEX
  5
357
  8
PROFILE
 10
380.0529851522152
 20
783.5262951889418
 30
0.0
  0
VERTEX
  5
358
  8
PROFILE
 10
380.2178636538962
 20
783.5499992769353
 30
0.0
  0
VERTEX
  5
359
  8
PROFILE
 10
380.3814276097975
 20
783.5815212761433
 30
0.0
  0
VERTEX
  5
35A
  8
PROFILE
 10
380.5433065401606
 20
783.6207897878121
 30
0.0
  0
VERTEX
  5
35B
  8
PROFILE
 10
380.7031337818859
 20
783.6677158669862
 30
0.0
  0
VERTEX
  5
35C
  8
PROFILE
 10
380.8605473190414
 20
783.7221932239739
 30
0.0
  0
VERTEX
  5
35D
  8
PROFILE
 10
381.0151906028452
 20
783.7840984650973
 30
0.0
  0
VERTEX
  5
35E
  8
PROFILE
 10
381.1667133592645
 20
783.8532913721851
 30
0.0
  0
VERTEX
  5
35F
  8
PROFILE
 10
381.3147723824021
 20
783.9296152201731
 30
0.0
  0
VERTEX
  5
360
  8
PROFILE
 10
381.4590323118736
 20
784.0128971320931
 30
0.0
  0
VERTEX
  5
361
  8
PROFILE
 10
381.5991663924133
 20
784.1029484706477
 30
0.0
  0
VERTEX
  5
362
  8
PROFILE
 10
381.7348572139902
 20
784.1995652654815
 30
0.0
  0
VERTEX
  5
363
  8
PROFILE
 10
381.8657974307556
 20
784.3025286751841
 30
0.0
  0
VERTEX
  5
364
  8
PROFILE
 10
381.9916904571958
 20
784.4116054829751
 30
0.0
  0
VERTEX
  5
365
  8
PROFILE
 10
382.1122511399115
 20
784.5265486249511
 30
0.0
  0
VERTEX
  5
366
  8
PROFILE
 10
382.2272064035027
 20
784.6470977496963
 30
0.0
  0
VERTEX
  5
367
  8
PROFILE
 10
382.336295869098
 20
784.7729798079903
 30
0.0
  0
VERTEX
  5
368
  8
PROFILE
 10
382.439272444123
 20
784.9039096712769
 30
0.0
  0
VERTEX
  5
369
  8
PROFILE
 10
382.5359028819776
 20
785.0395907774937
 30
0.0
  0
VERTEX
  5
36A
  8
PROFILE
 10
382.6259683103492
 20
785.1797158027975
 30
0.0
  0
VERTEX
  5
36B
  8
PROFILE
 10
382.7092647269683
 20
785.3239673576682
 30
0.0
  0
VERTEX
  5
36C
  8
PROFILE
 10
382.7856034616838
 20
785.4720187058086
 30
0.0
  0
VERTEX
  5
36D
  8
PROFILE
 10
382.8548116038085
 20
785.6235345042186
 30
0.0
  0
VERTEX
  5
36E
  8
PROFILE
 10
382.9167323937699
 20
785.7781715627613
 30
0.0
  0
VERTEX
  5
36F
  8
PROFILE
 10
382.9712255781779
 20
785.9355796215043
 30
0.0
  0
VERTEX
  5
370
  8
PROFILE
 10
383.0181677275049
 20
786.0954021440746
 30
0.0
  0
VERTEX
  5
371
  8
PROFILE
 10
383.0574525156595
 20
786.2572771252292
 30
0.0
  0
VERTEX
  5
372
  8
PROFILE
 10
383.0889909608194
 20
786.4208379108138
 30
0.0
  0
VERTEX
  5
373
  8
PROFILE
 10
383.1127116269798
 20
786.5857140282508
 30
0.0
  0
VERTEX
  5
374
  8
PROFILE
 10
383.1285607857589
 20
786.7515320256762
 30
0.0
  0
VERTEX
  5
375
  8
PROFILE
 10
383.1352656257971
 20
786.8764530615592
 30
0.0
  0
VERTEX
  5
376
  8
PROFILE
 10
383.1375018313008
 20
787.0015403458492
 30
0.0
  0
VERTEX
  5
377
  8
PROFILE
 10
383.1375018313008
 20
805.5015403458492
 30
0.0
  0
VERTEX
  5
378
  8
PROFILE
 10
383.1335381238808
 20
805.6680707738105
 30
0.0
  0
VERTEX
  5
379
  8
PROFILE
 10
383.1216547564495
 20
805.8342304032791
 30
0.0
  0
VERTEX
  5
37A
  8
PROFILE
 10
383.1018786486898
 20
805.9996363960621
 30
0.0
  0
VERTEX
  5
37B
  8
PROFILE
 10
383.0742545999223
 20
806.1639140537527
 30
0.0
  0
VERTEX
  5
37C
  8
PROFILE
 10
383.0388451876078
 20
806.3266912339906
 30
0.0
  0
VERTEX
  5
37D
  8
PROFILE
 10
382.9957306255897
 20
806.4875991934848
 30
0.0
  0
VERTEX
  5
37E
  8
PROFILE
 10
382.9450085823829
 20
806.6462734233382
 30
0.0
  0
VERTEX
  5
37F
  8
PROFILE
 10
382.8867939599234
 20
806.802354474778
 30
0.0
  0
VERTEX
  5
380
  8
PROFILE
 10
382.8212186332775
 20
806.9554887734243
 30
0.0
  0
VERTEX
  5
381
  8
PROFILE
 10
382.7484311519023
 20
807.1053294202519
 30
0.0
  0
VERTEX
  5
382
  8
PROFILE
 10
382.6685964031324
 20
807.2515369774284
 30
0.0
  0
VERTEX
  5
383
  8
PROFILE
 10
382.5818952386569
 20
807.3937802372519
 30
0.0
  0
VERTEX
  5
384
  8
PROFILE
 10
382.4885240648312
 20
807.5317369724446
 30
0.0
  0
VERTEX
  5
385
  8
PROFILE
 10
382.3886943977524
 20
807.6650946661019
 30
0.0
  0
VERTEX
  5
386
  8
PROFILE
 10
382.2826323841072
 20
807.7935512196449
 30
0.0
  0
VERTEX
  5
387
  8
PROFILE
 10
382.1705782888753
 20
807.9168156371725
 30
0.0
  0
VERTEX
  5
388
  8
PROFILE
 10
382.0527859510516
 20
808.0346086846612
 30
0.0
  0
VERTEX
  5
389
  8
PROFILE
 10
381.9295222086181
 20
808.1466635225215
 30
0.0
  0
VERTEX
  5
38A
  8
PROFILE
 10
381.8010662940687
 20
808.2527263100765
 30
0.0
  0
VERTEX
  5
38B
  8
PROFILE
 10
381.6677092018572
 20
808.3525567805929
 30
0.0
  0
VERTEX
  5
38C
  8
PROFILE
 10
381.5297530291998
 20
808.4459287855642
 30
0.0
  0
VERTEX
  5
38D
  8
PROFILE
 10
381.3875102917269
 20
808.5326308070103
 30
0.0
  0
VERTEX
  5
38E
  8
PROFILE
 10
381.2413032155332
 20
808.6124664366347
 30
0.0
  0
VERTEX
  5
38F
  8
PROFILE
 10
381.0914630072307
 20
808.6852548207528
 30
0.0
  0
VERTEX
  5
390
  8
PROFILE
 10
380.9383291036584
 20
808.7508310699849
 30
0.0
  0
VERTEX
  5
391
  8
PROFILE
 10
380.7822484029469
 20
808.8090466327841
 30
0.0
  0
VERTEX
  5
392
  8
PROFILE
 10
380.6235744786812
 20
808.8597696319538
 30
0.0
  0
VERTEX
  5
393
  8
PROFILE
 10
380.4626667789419
 20
808.9028851633926
 30
0.0
  0
VERTEX
  5
394
  8
PROFILE
 10
380.299889812038
 20
808.9382955563893
 30
0.0
  0
VERTEX
  5
395
  8
PROFILE
 10
380.1356123207768
 20
808.9659205948791
 30
0.0
  0
VERTEX
  5
396
  8
PROFILE
 10
379.9702064471418
 20
808.9856976991591
 30
0.0
  0
VERTEX
  5
397
  8
PROFILE
 10
379.80404688927
 20
808.9975820676514
 30
0.0
  0
VERTEX
  5
398
  8
PROFILE
 10
379.637510052638
 20
809.0015467783933
 30
0.0
  0
VERTEX
  5
399
  8
PROFILE
 10
379.4709731973821
 20
808.9975828500249
 30
0.0
  0
VERTEX
  5
39A
  8
PROFILE
 10
379.3048135836805
 20
808.9856992621337
 30
0.0
  0
VERTEX
  5
39B
  8
PROFILE
 10
379.1394076171365
 20
808.9659229349143
 30
0.0
  0
VERTEX
  5
39C
  8
PROFILE
 10
378.9751299960975
 20
808.938298668184
 30
0.0
  0
VERTEX
  5
39D
  8
PROFILE
 10
378.8123528628408
 20
808.9028890398977
 30
0.0
  0
VERTEX
  5
39E
  8
PROFILE
 10
378.6514449605507
 20
808.8597742643876
 30
0.0
  0
VERTEX
  5
39F
  8
PROFILE
 10
378.4927707979953
 20
808.8090520106527
 30
0.0
  0
VERTEX
  5
3A0
  8
PROFILE
 10
378.3366898237945
 20
808.7508371811058
 30
0.0
  0
VERTEX
  5
3A1
  8
PROFILE
 10
378.1835556121533
 20
808.6852616512821
 30
0.0
  0
VERTEX
  5
3A2
  8
PROFILE
 10
378.0337150619
 20
808.6124739710991
 30
0.0
  0
VERTEX
  5
3A3
  8
PROFILE
 10
377.887507610648
 20
808.5326390283419
 30
0.0
  0
VERTEX
  5
3A4
  8
PROFILE
 10
377.7452644658592
 20
808.4459376751389
 30
0.0
  0
VERTEX
  5
3A5
  8
PROFILE
 10
377.607307854551
 20
808.3525663182729
 30
0.0
  0
VERTEX
  5
3A6
  8
PROFILE
 10
377.4739502933473
 20
808.252736474256
 30
0.0
  0
VERTEX
  5
3A7
  8
PROFILE
 10
377.3454938805269
 20
808.1466742901754
 30
0.0
  0
VERTEX
  5
3A8
  8
PROFILE
 10
377.2222296116724
 20
808.034620031397
 30
0.0
  0
VERTEX
  5
3A9
  8
PROFILE
 10
377.10443672047
 20
807.9168275372862
 30
0.0
  0
VERTEX
  5
3AA
  8
PROFILE
 10
376.9923820461555
 20
807.793563646179
 30
0.0
  0
VERTEX
  5
3AB
  8
PROFILE
 10
376.8863194290353
 20
807.6651075909061
 30
0.0
  0
VERTEX
  5
3AC
  8
PROFILE
 10
376.7864891354565
 20
807.5317503662402
 30
0.0
  0
VERTEX
  5
3AD
  8
PROFILE
 10
376.6931173135248
 20
807.3937940696974
 30
0.0
  0
VERTEX
  5
3AE
  8
PROFILE
 10
376.6064154808057
 20
807.2515512171888
 30
0.0
  0
VERTEX
  5
3AF
  8
PROFILE
 10
376.5265800451681
 20
807.1053440350697
 30
0.0
  0
VERTEX
  5
3B0
  8
PROFILE
 10
376.4537918598573
 20
806.9555037301922
 30
0.0
  0
VERTEX
  5
3B1
  8
PROFILE
 10
376.3882158138026
 20
806.8023697396138
 30
0.0
  0
VERTEX
  5
3B2
  8
PROFILE
 10
376.3300004580905
 20
806.6462889616622
 30
0.0
  0
VERTEX
  5
3B3
  8
PROFILE
 10
376.2792776694486
 20
806.4876149700978
 30
0.0
  0
VERTEX
  5
3B4
  8
PROFILE
 10
376.2361623515013
 20
806.3267072131531
 30
0.0
  0
VERTEX
  5
3B5
  8
PROFILE
 10
376.2007521744763
 20
806.1639301992669
 30
0.0
  0
VERTEX
  5
3B6
  8
PROFILE
 10
376.1731273539491
 20
805.9996526713531
 30
0.0
  0
VERTEX
  5
3B7
  8
PROFILE
 10
376.1533504691288
 20
805.8342467714782
 30
0.0
  0
VERTEX
  5
3B8
  8
PROFILE
 10
376.1414663210962
 20
805.6680871978383
 30
0.0
  0
VERTEX
  5
3B9
  8
PROFILE
 10
376.1375018313136
 20
805.5015485671746
 30
0.0
  0
VERTEX
  5
3BA
  8
PROFILE
 10
364.6375018313126
 20
805.5015467784029
 30
0.0
  0
VERTEX
  5
3BB
  8
PROFILE
 10
364.6375018313126
 20
824.0015467784029
 30
0.0
  0
VERTEX
  5
3BC
  8
PROFILE
 10
1074.637501831313
 20
824.0015467784029
 30
0.0
  0
VERTEX
  5
3BD
  8
PROFILE
 10
1074.637501831313
 20
805.5015467784029
 30
0.0
  0
VERTEX
  5
3BE
  8
PROFILE
 10
1063.137501831301
 20
805.5015403458492
 30
0.0
  0
VERTEX
  5
3BF
  8
PROFILE
 10
1063.133538123881
 20
805.6680707738105
 30
0.0
  0
VERTEX
  5
3C0
  8
PROFILE
 10
1063.12165475645
 20
805.8342304032791
 30
0.0
  0
VERTEX
  5
3C1
  8
PROFILE
 10
1063.10187864869
 20
805.9996363960621
 30
0.0
  0
VERTEX
  5
3C2
  8
PROFILE
 10
1063.074254599922
 20
806.1639140537527
 30
0.0
  0
VERTEX
  5
3C3
  8
PROFILE
 10
1063.038845187608
 20
806.3266912339906
 30
0.0
  0
VERTEX
  5
3C4
  8
PROFILE
 10
1062.99573062559
 20
806.4875991934848
 30
0.0
  0
VERTEX
  5
3C5
  8
PROFILE
 10
1062.945008582383
 20
806.6462734233382
 30
0.0
  0
VERTEX
  5
3C6
  8
PROFILE
 10
1062.886793959923
 20
806.802354474778
 30
0.0
  0
VERTEX
  5
3C7
  8
PROFILE
 10
1062.821218633278
 20
806.9554887734243
 30
0.0
  0
VERTEX
  5
3C8
  8
PROFILE
 10
1062.748431151902
 20
807.1053294202519
 30
0.0
  0
VERTEX
  5
3C9
  8
PROFILE
 10
1062.668596403132
 20
807.2515369774284
 30
0.0
  0
VERTEX
  5
3CA
  8
PROFILE
 10
1062.581895238657
 20
807.3937802372519
 30
0.0
  0
VERTEX
  5
3CB
  8
PROFILE
 10
1062.488524064831
 20
807.5317369724446
 30
0.0
  0
VERTEX
  5
3CC
  8
PROFILE
 10
1062.388694397752
 20
807.6650946661019
 30
0.0
  0
VERTEX
  5
3CD
  8
PROFILE
 10
1062.282632384107
 20
807.7935512196449
 30
0.0
  0
VERTEX
  5
3CE
  8
PROFILE
 10
1062.170578288875
 20
807.9168156371725
 30
0.0
  0
VERTEX
  5
3CF
  8
PROFILE
 10
1062.052785951052
 20
808.0346086846612
 30
0.0
  0
VERTEX
  5
3D0
  8
PROFILE
 10
1061.929522208618
 20
808.1466635225215
 30
0.0
  0
VERTEX
  5
3D1
  8
PROFILE
 10
1061.801066294069
 20
808.2527263100765
 30
0.0
  0
VERTEX
  5
3D2
  8
PROFILE
 10
1061.667709201857
 20
808.3525567805929
 30
0.0
  0
VERTEX
  5
3D3
  8
PROFILE
 10
1061.5297530292
 20
808.4459287855642
 30
0.0
  0
VERTEX
  5
3D4
  8
PROFILE
 10
1061.387510291727
 20
808.5326308070103
 30
0.0
  0
VERTEX
  5
3D5
  8
PROFILE
 10
1061.241303215533
 20
808.6124664366347
 30
0.0
  0
VERTEX
  5
3D6
  8
PROFILE
 10
1061.091463007231
 20
808.6852548207528
 30
0.0
  0
VERTEX
  5
3D7
  8
PROFILE
 10
1060.938329103658
 20
808.7508310699849
 30
0.0
  0
VERTEX
  5
3D8
  8
PROFILE
 10
1060.782248402947
 20
808.8090466327841
 30
0.0
  0
VERTEX
  5
3D9
  8
PROFILE
 10
1060.623574478681
 20
808.8597696319538
 30
0.0
  0
VERTEX
  5
3DA
  8
PROFILE
 10
1060.462666778942
 20
808.9028851633926
 30
0.0
  0
VERTEX
  5
3DB
  8
PROFILE
 10
1060.299889812038
 20
808.9382955563893
 30
0.0
  0
VERTEX
  5
3DC
  8
PROFILE
 10
1060.135612320777
 20
808.9659205948791
 30
0.0
  0
VERTEX
  5
3DD
  8
PROFILE
 10
1059.970206447142
 20
808.9856976991591
 30
0.0
  0
VERTEX
  5
3DE
  8
PROFILE
 10
1059.80404688927
 20
808.9975820676514
 30
0.0
  0
VERTEX
  5
3DF
  8
PROFILE
 10
1059.637510052638
 20
809.0015467783933
 30
0.0
  0
VERTEX
  5
3E0
  8
PROFILE
 10
1059.470973197382
 20
808.9975828500249
 30
0.0
  0
VERTEX
  5
3E1
  8
PROFILE
 10
1059.30481358368
 20
808.9856992621337
 30
0.0
  0
VERTEX
  5
3E2
  8
PROFILE
 10
1059.139407617136
 20
808.9659229349143
 30
0.0
  0
VERTEX
  5
3E3
  8
PROFILE
 10
1058.975129996097
 20
808.938298668184
 30
0.0
  0
VERTEX
  5
3E4
  8
PROFILE
 10
1058.812352862841
 20
808.9028890398977
 30
0.0
  0
VERTEX
  5
3E5
  8
PROFILE
 10
1058.651444960551
 20
808.8597742643876
 30
0.0
  0
VERTEX
  5
3E6
  8
PROFILE
 10
1058.492770797995
 20
808.8090520106527
 30
0.0
  0
VERTEX
  5
3E7
  8
PROFILE
 10
1058.336689823795
 20
808.7508371811058
 30
0.0
  0
VERTEX
  5
3E8
  8
PROFILE
 10
1058.183555612153
 20
808.6852616512821
 30
0.0
  0
VERTEX
  5
3E9
  8
PROFILE
 10
1058.0337150619
 20
808.6124739710991
 30
0.0
  0
VERTEX
  5
3EA
  8
PROFILE
 10
1057.887507610648
 20
808.5326390283419
 30
0.0
  0
VERTEX
  5
3EB
  8
PROFILE
 10
1057.745264465859
 20
808.4459376751389
 30
0.0
  0
VERTEX
  5
3EC
  8
PROFILE
 10
1057.607307854551
 20
808.3525663182729
 30
0.0
  0
VERTEX
  5
3ED
  8
PROFILE
 10
1057.473950293347
 20
808.252736474256
 30
0.0
  0
VERTEX
  5
3EE
  8
PROFILE
 10
1057.345493880527
 20
808.1466742901754
 30
0.0
  0
VERTEX
  5
3EF
  8
PROFILE
 10
1057.222229611672
 20
808.034620031397
 30
0.0
  0
VERTEX
  5
3F0
  8
PROFILE
 10
1057.10443672047
 20
807.9168275372862
 30
0.0
  0
VERTEX
  5
3F1
  8
PROFILE
 10
1056.992382046155
 20
807.793563646179
 30
0.0
  0
VERTEX
  5
3F2
  8
PROFILE
 10
1056.886319429035
 20
807.6651075909061
 30
0.0
  0
VERTEX
  5
3F3
  8
PROFILE
 10
1056.786489135457
 20
807.5317503662402
 30
0.0
  0
VERTEX
  5
3F4
  8
PROFILE
 10
1056.693117313525
 20
807.3937940696974
 30
0.0
  0
VERTEX
  5
3F5
  8
PROFILE
 10
1056.606415480806
 20
807.2515512171888
 30
0.0
  0
VERTEX
  5
3F6
  8
PROFILE
 10
1056.526580045168
 20
807.1053440350697
 30
0.0
  0
VERTEX
  5
3F7
  8
PROFILE
 10
1056.453791859857
 20
806.9555037301922
 30
0.0
  0
VERTEX
  5
3F8
  8
PROFILE
 10
1056.388215813803
 20
806.8023697396138
 30
0.0
  0
VERTEX
  5
3F9
  8
PROFILE
 10
1056.330000458091
 20
806.6462889616622
 30
0.0
  0
VERTEX
  5
3FA
  8
PROFILE
 10
1056.279277669449
 20
806.4876149700978
 30
0.0
  0
VERTEX
  5
3FB
  8
PROFILE
 10
1056.236162351501
 20
806.3267072131531
 30
0.0
  0
VERTEX
  5
3FC
  8
PROFILE
 10
1056.200752174476
 20
806.1639301992669
 30
0.0
  0
VERTEX
  5
3FD
  8
PROFILE
 10
1056.173127353949
 20
805.9996526713531
 30
0.0
  0
VERTEX
  5
3FE
  8
PROFILE
 10
1056.153350469129
 20
805.8342467714782
 30
0.0
  0
VERTEX
  5
3FF
  8
PROFILE
 10
1056.141466321096
 20
805.6680871978383
 30
0.0
  0
VERTEX
  5
400
  8
PROFILE
 10
1056.137501831314
 20
805.5015485671746
 30
0.0
  0
VERTEX
  5
401
  8
PROFILE
 10
1056.137501831314
 20
787.0015485671746
 30
0.0
  0
VERTEX
  5
402
  8
PROFILE
 10
1056.139737449189
 20
786.8764694937058
 30
0.0
  0
VERTEX
  5
403
  8
PROFILE
 10
1056.146441702361
 20
786.7515484263255
 30
0.0
  0
VERTEX
  5
404
  8
PROFILE
 10
1056.162290082143
 20
786.5857303544442
 30
0.0
  0
VERTEX
  5
405
  8
PROFILE
 10
1056.186009973732
 20
786.4208541255717
 30
0.0
  0
VERTEX
  5
406
  8
PROFILE
 10
1056.217547650499
 20
786.2572931918244
 30
0.0
  0
VERTEX
  5
407
  8
PROFILE
 10
1056.256831678181
 20
786.0954180261156
 30
0.0
  0
VERTEX
  5
408
  8
PROFILE
 10
1056.303773076677
 20
785.9355952830175
 30
0.0
  0
VERTEX
  5
409
  8
PROFILE
 10
1056.358265521597
 20
785.7781869682726
 30
0.0
  0
VERTEX
  5
40A
  8
PROFILE
 10
1056.420185585088
 20
785.623549618834
 30
0.0
  0
VERTEX
  5
40B
  8
PROFILE
 10
1056.489393015406
 20
785.4720334952927
 30
0.0
  0
VERTEX
  5
40C
  8
PROFILE
 10
1056.56573105459
 20
785.3239817885221
 30
0.0
  0
VERTEX
  5
40D
  8
PROFILE
 10
1056.649026793529
 20
785.179729842335
 30
0.0
  0
VERTEX
  5
40E
  8
PROFILE
 10
1056.739091563606
 20
785.0396043939141
 30
0.0
  0
VERTEX
  5
40F
  8
PROFILE
 10
1056.835721364043
 20
784.9039228337388
 30
0.0
  0
VERTEX
  5
410
  8
PROFILE
 10
1056.938697323972
 20
784.7729924866799
 30
0.0
  0
VERTEX
  5
411
  8
PROFILE
 10
1057.047786198184
 20
784.647109915896
 30
0.0
  0
VERTEX
  5
412
  8
PROFILE
 10
1057.162740895447
 20
784.5265602511038
 30
0.0
  0
VERTEX
  5
413
  8
PROFILE
 10
1057.28330103817
 20
784.411616542747
 30
0.0
  0
VERTEX
  5
414
  8
PROFILE
 10
1057.409193552176
 20
784.3025391435242
 30
0.0
  0
VERTEX
  5
415
  8
PROFILE
 10
1057.540133285229
 20
784.1995751186787
 30
0.0
  0
VERTEX
  5
416
  8
PROFILE
 10
1057.675823652908
 20
784.102957686384
 30
0.0
  0
VERTEX
  5
417
  8
PROFILE
 10
1057.815957310394
 20
784.0129056894946
 30
0.0
  0
VERTEX
  5
418
  8
PROFILE
 10
1057.960216848614
 20
783.9296230998567
 30
0.0
  0
VERTEX
  5
419
  8
PROFILE
 10
1058.108275513188
 20
783.8532985563031
 30
0.0
  0
VERTEX
  5
41A
  8
PROFILE
 10
1058.259797944544
 20
783.7841049373772
 30
0.0
  0
VERTEX
  5
41B
  8
PROFILE
 10
1058.414440937522
 20
783.7221989697557
 30
0.0
  0
VERTEX
  5
41C
  8
PROFILE
 10
1058.571854218746
 20
783.6677208732556
 30
0.0
  0
VERTEX
  5
41D
  8
PROFILE
 10
1058.731681240016
 20
783.6207940432295
 30
0.0
  0
VERTEX
  5
41E
  8
PROFILE
 10
1058.893559985898
 20
783.5815247710702
 30
0.0
  0
VERTEX
  5
41F
  8
PROFILE
 10
1059.05712379371
 20
783.5500020034553
 30
0.0
  0
VERTEX
  5
420
  8
PROFILE
 10
1059.22200218403
 20
783.5262971408794
 30
0.0
  0
VERTEX
  5
421
  8
PROFILE
 10
1059.387821699845
 20
783.5104638759284
 30
0.0
  0
VERTEX
  5
422
  8
PROFILE
 10
1059.554206752451
 20
783.5025380716636
 30
0.0
  0
VERTEX
  5
423
  8
PROFILE
 10
1059.720780472179
 20
783.5025376803902
 30
0.0
  0
VERTEX
  5
424
  8
PROFILE
 10
1059.887165562019
 20
783.5104627029946
 30
0.0
  0
VERTEX
  5
425
  8
PROFILE
 10
1060.052985152215
 20
783.5262951889418
 30
0.0
  0
VERTEX
  5
426
  8
PROFILE
 10
1060.217863653896
 20
783.5499992769353
 30
0.0
  0
VERTEX
  5
427
  8
PROFILE
 10
1060.381427609797
 20
783.5815212761433
 30
0.0
  0
VERTEX
  5
428
  8
PROFILE
 10
1060.543306540161
 20
783.6207897878121
 30
0.0
  0
VERTEX
  5
429
  8
PROFILE
 10
1060.703133781886
 20
783.6677158669862
 30
0.0
  0
VERTEX
  5
42A
  8
PROFILE
 10
1060.860547319041
 20
783.7221932239739
 30
0.0
  0
VERTEX
  5
42B
  8
PROFILE
 10
1061.015190602845
 20
783.7840984650973
 30
0.0
  0
VERTEX
  5
42C
  8
PROFILE
 10
1061.166713359265
 20
783.8532913721851
 30
0.0
  0
VERTEX
  5
42D
  8
PROFILE
 10
1061.314772382402
 20
783.9296152201731
 30
0.0
  0
VERTEX
  5
42E
  8
PROFILE
 10
1061.459032311874
 20
784.0128971320931
 30
0.0
  0
VERTEX
  5
42F
  8
PROFILE
 10
1061.599166392413
 20
784.1029484706477
 30
0.0
  0
VERTEX
  5
430
  8
PROFILE
 10
1061.73485721399
 20
784.1995652654815
 30
0.0
  0
VERTEX
  5
431
  8
PROFILE
 10
1061.865797430756
 20
784.3025286751841
 30
0.0
  0
VERTEX
  5
432
  8
PROFILE
 10
1061.991690457196
 20
784.4116054829751
 30
0.0
  0
VERTEX
  5
433
  8
PROFILE
 10
1062.112251139911
 20
784.5265486249511
 30
0.0
  0
VERTEX
  5
434
  8
PROFILE
 10
1062.227206403503
 20
784.6470977496963
 30
0.0
  0
VERTEX
  5
435
  8
PROFILE
 10
1062.336295869098
 20
784.7729798079903
 30
0.0
  0
VERTEX
  5
436
  8
PROFILE
 10
1062.439272444123
 20
784.9039096712769
 30
0.0
  0
VERTEX
  5
437
  8
PROFILE
 10
1062.535902881978
 20
785.0395907774937
 30
0.0
  0
VERTEX
  5
438
  8
PROFILE
 10
1062.625968310349
 20
785.1797158027975
 30
0.0
  0
VERTEX
  5
439
  8
PROFILE
 10
1062.709264726968
 20
785.3239673576682
 30
0.0
  0
VERTEX
  5
43A
  8
PROFILE
 10
1062.785603461684
 20
785.4720187058086
 30
0.0
  0
VERTEX
  5
43B
  8
PROFILE
 10
1062.854811603808
 20
785.6235345042186
 30
0.0
  0
VERTEX
  5
43C
  8
PROFILE
 10
1062.91673239377
 20
785.7781715627613
 30
0.0
  0
VERTEX
  5
43D
  8
PROFILE
 10
1062.971225578178
 20
785.9355796215043
 30
0.0
  0
VERTEX
  5
43E
  8
PROFILE
 10
1063.018167727505
 20
786.0954021440746
 30
0.0
  0
VERTEX
  5
43F
  8
PROFILE
 10
1063.057452515659
 20
786.2572771252292
 30
0.0
  0
VERTEX
  5
440
  8
PROFILE
 10
1063.08899096082
 20
786.4208379108138
 30
0.0
  0
VERTEX
  5
441
  8
PROFILE
 10
1063.11271162698
 20
786.5857140282508
 30
0.0
  0
VERTEX
  5
442
  8
PROFILE
 10
1063.128560785759
 20
786.7515320256762
 30
0.0
  0
VERTEX
  5
443
  8
PROFILE
 10
1063.135265625797
 20
786.8764530615592
 30
0.0
  0
VERTEX
  5
444
  8
PROFILE
 10
1063.137501831301
 20
787.0015403458492
 30
0.0
  0
VERTEX
  5
445
  8
PROFILE
 10
1074.637501831313
 20
787.0015467784029
 30
0.0
  0
VERTEX
  5
446
  8
PROFILE
 10
1074.637501831313
 20
768.5015467784029
 30
0.0
  0
VERTEX
  5
447
  8
PROFILE
 10
1063.137501831301
 20
768.5015403458492
 30
0.0
  0
VERTEX
  5
448
  8
PROFILE
 10
1063.135266545328
 20
768.6266147814677
 30
0.0
  0
VERTEX
  5
449
  8
PROFILE
 10
1063.128562623645
 20
768.751535866638
 30
0.0
  0
VERTEX
  5
44A
  8
PROFILE
 10
1063.112714648848
 20
768.917354273329
 30
0.0
  0
VERTEX
  5
44B
  8
PROFILE
 10
1063.088995131967
 20
769.0822308539027
 30
0.0
  0
VERTEX
  5
44C
  8
PROFILE
 10
1063.05745779897
 20
769.2457921541244
 30
0.0
  0
VERTEX
  5
44D
  8
PROFILE
 10
1063.018174083597
 20
769.4076676989395
 30
0.0
  0
VERTEX
  5
44E
  8
PROFILE
 10
1062.971232965554
 20
769.5674908316195
 30
0.0
  0
VERTEX
  5
44F
  8
PROFILE
 10
1062.916740768974
 20
769.7248995442582
 30
0.0
  0
VERTEX
  5
450
  8
PROFILE
 10
1062.854820921583
 20
769.8795372977397
 30
0.0
  0
VERTEX
  5
451
  8
PROFILE
 10
1062.785613675133
 20
770.031053829318
 30
0.0
  0
VERTEX
  5
452
  8
PROFILE
 10
1062.709275787722
 20
770.179105945981
 30
0.0
  0
VERTEX
  5
453
  8
PROFILE
 10
1062.62598016873
 20
770.3233583018007
 30
0.0
  0
VERTEX
  5
454
  8
PROFILE
 10
1062.53591548717
 20
770.4634841575099
 30
0.0
  0
VERTEX
  5
455
  8
PROFILE
 10
1062.439285744342
 20
770.5991661205838
 30
0.0
  0
VERTEX
  5
456
  8
PROFILE
 10
1062.336309811757
 20
770.7300968641512
 30
0.0
  0
VERTEX
  5
457
  8
PROFILE
 10
1062.227220935388
 20
770.8559798231057
 30
0.0
  0
VERTEX
  5
458
  8
PROFILE
 10
1062.112266207347
 20
770.9765298658424
 30
0.0
  0
VERTEX
  5
459
  8
PROFILE
 10
1061.991706006215
 20
771.0914739400952
 30
0.0
  0
VERTEX
  5
45A
  8
PROFILE
 10
1061.865813407268
 20
771.2005516914151
 30
0.0
  0
VERTEX
  5
45B
  8
PROFILE
 10
1061.734873563945
 20
771.3035160528872
 30
0.0
  0
VERTEX
  5
45C
  8
PROFILE
 10
1061.599183061965
 20
771.40013380475
 30
0.0
  0
VERTEX
  5
45D
  8
PROFILE
 10
1061.459049247539
 20
771.4901861026507
 30
0.0
  0
VERTEX
  5
45E
  8
PROFILE
 10
1061.314789531219
 20
771.5734689733392
 30
0.0
  0
VERTEX
  5
45F
  8
PROFILE
 10
1061.166730668945
 20
771.6497937766788
 30
0.0
  0
VERTEX
  5
460
  8
PROFILE
 10
1061.015208021924
 20
771.7189876329257
 30
0.0
  0
VERTEX
  5
461
  8
PROFILE
 10
1060.860564797018
 20
771.780893814311
 30
0.0
  0
VERTEX
  5
462
  8
PROFILE
 10
1060.703151269369
 20
771.8353721000373
 30
0.0
  0
VERTEX
  5
463
  8
PROFILE
 10
1060.543323988997
 20
771.8822990938864
 30
0.0
  0
VERTEX
  5
464
  8
PROFILE
 10
1060.381444973204
 20
771.9215685037188
 30
0.0
  0
VERTEX
  5
465
  8
PROFILE
 10
1060.21788088658
 20
771.9530913822298
 30
0.0
  0
VERTEX
  5
466
  8
PROFILE
 10
1060.053002210492
 20
771.9767963284212
 30
0.0
  0
VERTEX
  5
467
  8
PROFILE
 10
1059.887182403919
 20
771.9926296493276
 30
0.0
  0
VERTEX
  5
468
  8
PROFILE
 10
1059.720797057554
 20
772.0005554816338
 30
0.0
  0
VERTEX
  5
469
  8
PROFILE
 10
1059.554223043066
 20
772.0005558729079
 30
0.0
  0
VERTEX
  5
46A
  8
PROFILE
 10
1059.387837659468
 20
771.9926308222634
 30
0.0
  0
VERTEX
  5
46B
  8
PROFILE
 10
1059.222017778514
 20
771.9767982803622
 30
0.0
  0
VERTEX
  5
46C
  8
PROFILE
 10
1059.057138991064
 20
771.9530941087546
 30
0.0
  0
VERTEX
  5
46D
  8
PROFILE
 10
1058.89357475635
 20
771.9215719986516
 30
0.0
  0
VERTEX
  5
46E
  8
PROFILE
 10
1058.731695556075
 20
771.8823033493113
 30
0.0
  0
VERTEX
  5
46F
  8
PROFILE
 10
1058.571868055247
 20
771.8353771063151
 30
0.0
  0
VERTEX
  5
470
  8
PROFILE
 10
1058.414454271665
 20
771.7808995601025
 30
0.0
  0
VERTEX
  5
471
  8
PROFILE
 10
1058.259810755933
 20
771.7189941052164
 30
0.0
  0
VERTEX
  5
472
  8
PROFILE
 10
1058.108287783847
 20
771.6498009608085
 30
0.0
  0
VERTEX
  5
473
  8
PROFILE
 10
1057.960228563009
 20
771.5734768530356
 30
0.0
  0
VERTEX
  5
474
  8
PROFILE
 10
1057.815968455436
 20
771.4901946600656
 30
0.0
  0
VERTEX
  5
475
  8
PROFILE
 10
1057.675834217955
 20
771.4001430205006
 30
0.0
  0
VERTEX
  5
476
  8
PROFILE
 10
1057.540143262075
 20
771.3035259060994
 30
0.0
  0
VERTEX
  5
477
  8
PROFILE
 10
1057.409202935038
 20
771.2005621597707
 30
0.0
  0
VERTEX
  5
478
  8
PROFILE
 10
1057.283309823655
 20
771.0914849998828
 30
0.0
  0
VERTEX
  5
479
  8
PROFILE
 10
1057.162749082529
 20
770.9765414920112
 30
0.0
  0
VERTEX
  5
47A
  8
PROFILE
 10
1057.047793788158
 20
770.8559919893216
 30
0.0
  0
VERTEX
  5
47B
  8
PROFILE
 10
1056.938704320404
 20
770.7301095428571
 30
0.0
  0
VERTEX
  5
47C
  8
PROFILE
 10
1056.835727772721
 20
770.5991792830619
 30
0.0
  0
VERTEX
  5
47D
  8
PROFILE
 10
1056.739097392473
 20
770.4634977739464
 30
0.0
  0
VERTEX
  5
47E
  8
PROFILE
 10
1056.649032052617
 20
770.3233723413535
 30
0.0
  0
VERTEX
  5
47F
  8
PROFILE
 10
1056.565735755943
 20
770.1791203768499
 30
0.0
  0
VERTEX
  5
480
  8
PROFILE
 10
1056.489397172999
 20
770.0310686188164
 30
0.0
  0
VERTEX
  5
481
  8
PROFILE
 10
1056.42018921474
 20
769.8795524123685
 30
0.0
  0
VERTEX
  5
482
  8
PROFILE
 10
1056.358268640877
 20
769.7249149497819
 30
0.0
  0
VERTEX
  5
483
  8
PROFILE
 10
1056.303775704807
 20
769.5675064931438
 30
0.0
  0
VERTEX
  5
484
  8
PROFILE
 10
1056.256833835931
 20
769.4076835809904
 30
0.0
  0
VERTEX
  5
485
  8
PROFILE
 10
1056.217549360083
 20
769.245808220728
 30
0.0
  0
VERTEX
  5
486
  8
PROFILE
 10
1056.186011258692
 20
769.0822470686674
 30
0.0
  0
VERTEX
  5
487
  8
PROFILE
 10
1056.162290967238
 20
768.9173705995274
 30
0.0
  0
VERTEX
  5
488
  8
PROFILE
 10
1056.141972022378
 20
768.6265495228466
 30
0.0
  0
VERTEX
  5
489
  8
PROFILE
 10
1056.137501831314
 20
750.0015485671746
 30
0.0
  0
VERTEX
  5
48A
  8
PROFILE
 10
1056.141465967252
 20
749.8350137870723
 30
0.0
  0
VERTEX
  5
48B
  8
PROFILE
 10
1056.153349735489
 20
749.6688544683493
 30
0.0
  0
VERTEX
  5
48C
  8
PROFILE
 10
1056.173126215514
 20
749.5034488034407
 30
0.0
  0
VERTEX
  5
48D
  8
PROFILE
 10
1056.200750607315
 20
749.339171488745
 30
0.0
  0
VERTEX
  5
48E
  8
PROFILE
 10
1056.236160332864
 20
749.1763946645883
 30
0.0
  0
VERTEX
  5
48F
  8
PROFILE
 10
1056.279275177881
 20
749.0154870722092
 30
0.0
  0
VERTEX
  5
490
  8
PROFILE
 10
1056.329997473538
 20
748.8568132184422
 30
0.0
  0
VERTEX
  5
491
  8
PROFILE
 10
1056.388212317716
 20
748.7007325499939
 30
0.0
  0
VERTEX
  5
492
  8
PROFILE
 10
1056.453787835292
 20
748.5475986391817
 30
0.0
  0
VERTEX
  5
493
  8
PROFILE
 10
1056.526575476879
 20
748.397758382981
 30
0.0
  0
VERTEX
  5
494
  8
PROFILE
 10
1056.606410355335
 20
748.2515512171925
 30
0.0
  0
VERTEX
  5
495
  8
PROFILE
 10
1056.693111619289
 20
748.1093083475125
 30
0.0
  0
VERTEX
  5
496
  8
PROFILE
 10
1056.786482862823
 20
747.9713519992466
 30
0.0
  0
VERTEX
  5
497
  8
PROFILE
 10
1056.886312570397
 20
747.8379946873673
 30
0.0
  0
VERTEX
  5
498
  8
PROFILE
 10
1056.992374595997
 20
747.709538508568
 30
0.0
  0
VERTEX
  5
499
  8
PROFILE
 10
1057.104428675427
 20
747.5862744569181
 30
0.0
  0
VERTEX
  5
49A
  8
PROFILE
 10
1057.222220970585
 20
747.4684817646688
 30
0.0
  0
VERTEX
  5
49B
  8
PROFILE
 10
1057.345484644488
 20
747.3564272697035
 30
0.0
  0
VERTEX
  5
49C
  8
PROFILE
 10
1057.473940465741
 20
747.2503648110653
 30
0.0
  0
VERTEX
  5
49D
  8
PROFILE
 10
1057.607297441083
 20
747.1505346539301
 30
0.0
  0
VERTEX
  5
49E
  8
PROFILE
 10
1057.745253474583
 20
747.0571629453309
 30
0.0
  0
VERTEX
  5
49F
  8
PROFILE
 10
1057.887496051984
 20
746.9704612018619
 30
0.0
  0
VERTEX
  5
4A0
  8
PROFILE
 10
1058.03370294864
 20
746.8906258305265
 30
0.0
  0
VERTEX
  5
4A1
  8
PROFILE
 10
1058.183542959465
 20
746.8178376838131
 30
0.0
  0
VERTEX
  5
4A2
  8
PROFILE
 10
1058.336676649214
 20
746.7522616500066
 30
0.0
  0
VERTEX
  5
4A3
  8
PROFILE
 10
1058.492757121413
 20
746.6940462796642
 30
0.0
  0
VERTEX
  5
4A4
  8
PROFILE
 10
1058.651430804189
 20
746.6433234491011
 30
0.0
  0
VERTEX
  5
4A5
  8
PROFILE
 10
1058.812338251222
 20
746.6002080616486
 30
0.0
  0
VERTEX
  5
4A6
  8
PROFILE
 10
1058.975114956008
 20
746.5647977873615
 30
0.0
  0
VERTEX
  5
4A7
  8
PROFILE
 10
1059.139392177578
 20
746.5371728417649
 30
0.0
  0
VERTEX
  5
4A8
  8
PROFILE
 10
1059.304797775817
 20
746.51739580414
 30
0.0
  0
VERTEX
  5
4A9
  8
PROFILE
 10
1059.470957054478
 20
746.5055114757624
 30
0.0
  0
VERTEX
  5
4AA
  8
PROFILE
 10
1059.637493609987
 20
746.5015467784126
 30
0.0
  0
VERTEX
  5
4AB
  8
PROFILE
 10
1059.804030184121
 20
746.5055106933902
 30
0.0
  0
VERTEX
  5
4AC
  8
PROFILE
 10
1059.970189518611
 20
746.5173942411681
 30
0.0
  0
VERTEX
  5
4AD
  8
PROFILE
 10
1060.135595209759
 20
746.5371705017337
 30
0.0
  0
VERTEX
  5
4AE
  8
PROFILE
 10
1060.299872561106
 20
746.564794675572
 30
0.0
  0
VERTEX
  5
4AF
  8
PROFILE
 10
1060.462649432244
 20
746.6002041851499
 30
0.0
  0
VERTEX
  5
4B0
  8
PROFILE
 10
1060.623557081828
 20
746.6433188166749
 30
0.0
  0
VERTEX
  5
4B1
  8
PROFILE
 10
1060.782231002892
 20
746.6940409018043
 30
0.0
  0
VERTEX
  5
4B2
  8
PROFILE
 10
1060.93831174858
 20
746.7522555388956
 30
0.0
  0
VERTEX
  5
4B3
  8
PROFILE
 10
1061.091445746397
 20
746.8178308532945
 30
0.0
  0
VERTEX
  5
4B4
  8
PROFILE
 10
1061.241286099172
 20
746.8906182960737
 30
0.0
  0
VERTEX
  5
4B5
  8
PROFILE
 10
1061.387493370885
 20
746.9704529805429
 30
0.0
  0
VERTEX
  5
4B6
  8
PROFILE
 10
1061.5297363556
 20
747.0571540557695
 30
0.0
  0
VERTEX
  5
4B7
  8
PROFILE
 10
1061.66769282775
 20
747.150525116264
 30
0.0
  0
VERTEX
  5
4B8
  8
PROFILE
 10
1061.801050272082
 20
747.2503546469003
 30
0.0
  0
VERTEX
  5
4B9
  8
PROFILE
 10
1061.929506591604
 20
747.3564165020648
 30
0.0
  0
VERTEX
  5
4BA
  8
PROFILE
 10
1062.052770791927
 20
747.4684704179483
 30
0.0
  0
VERTEX
  5
4BB
  8
PROFILE
 10
1062.170563640462
 20
747.5862625568199
 30
0.0
  0
VERTEX
  5
4BC
  8
PROFILE
 10
1062.282618298973
 20
747.7095260820496
 30
0.0
  0
VERTEX
  5
4BD
  8
PROFILE
 10
1062.388680928046
 20
747.8379817625786
 30
0.0
  0
VERTEX
  5
4BE
  8
PROFILE
 10
1062.488511262118
 20
747.9713386054664
 30
0.0
  0
VERTEX
  5
4BF
  8
PROFILE
 10
1062.581883153757
 20
748.109294515082
 30
0.0
  0
VERTEX
  5
4C0
  8
PROFILE
 10
1062.668585085952
 20
748.2515369774466
 30
0.0
  0
VERTEX
  5
4C1
  8
PROFILE
 10
1062.748420651274
 20
748.3977437681772
 30
0.0
  0
VERTEX
  5
4C2
  8
PROFILE
 10
1062.821208996794
 20
748.5475836824271
 30
0.0
  0
VERTEX
  5
4C3
  8
PROFILE
 10
1062.886785233778
 20
748.7007172851703
 30
0.0
  0
VERTEX
  5
4C4
  8
PROFILE
 10
1062.945000811207
 20
748.8567976801295
 30
0.0
  0
VERTEX
  5
4C5
  8
PROFILE
 10
1062.995723852297
 20
749.0154712956065
 30
0.0
  0
VERTEX
  5
4C6
  8
PROFILE
 10
1063.038839453241
 20
749.1763786854345
 30
0.0
  0
VERTEX
  5
4C7
  8
PROFILE
 10
1063.0742499435
 20
749.339155343238
 30
0.0
  0
VERTEX
  5
4C8
  8
PROFILE
 10
1063.101875107058
 20
749.5034325281554
 30
0.0
  0
VERTEX
  5
4C9
  8
PROFILE
 10
1063.121652364142
 20
749.6688381001541
 30
0.0
  0
VERTEX
  5
4CA
  8
PROFILE
 10
1063.133536912979
 20
749.8349973630466
 30
0.0
  0
VERTEX
  5
4CB
  8
PROFILE
 10
1063.137501831301
 20
750.0015403458492
 30
0.0
  0
VERTEX
  5
4CC
  8
PROFILE
 10
1074.637501831313
 20
750.0015467784029
 30
0.0
  0
VERTEX
  5
4CD
  8
PROFILE
 10
1074.637501831313
 20
731.5015467784029
 30
0.0
  0
VERTEX
  5
4CE
  8
PROFILE
 10
364.6375018313126
 20
731.5015467784029
 30
0.0
  0
VERTEX
  5
4CF
  8
PROFILE
 10
364.6375018313126
 20
750.1746857753299
 30
0.0
  0
VERTEX
  5
4D0
  8
PROFILE
 10
376.1375018313136
 20
750.3478265610285
 30
0.0
  0
VERTEX
  5
4D1
  8
PROFILE
 10
376.139737449189
 20
750.2227474875597
 30
0.0
  0
VERTEX
  5
4D2
  8
PROFILE
 10
376.1464417023607
 20
750.0978264201793
 30
0.0
  0
VERTEX
  5
4D3
  8
PROFILE
 10
376.162290082143
 20
749.932008348298
 30
0.0
  0
VERTEX
  5
4D4
  8
PROFILE
 10
376.1860099737316
 20
749.7671321194256
 30
0.0
  0
VERTEX
  5
4D5
  8
PROFILE
 10
376.2175476504989
 20
749.6035711856782
 30
0.0
  0
VERTEX
  5
4D6
  8
PROFILE
 10
376.2568316781806
 20
749.4416960199694
 30
0.0
  0
VERTEX
  5
4D7
  8
PROFILE
 10
376.3037730766769
 20
749.2818732768714
 30
0.0
  0
VERTEX
  5
4D8
  8
PROFILE
 10
376.3582655215969
 20
749.1244649621265
 30
0.0
  0
VERTEX
  5
4D9
  8
PROFILE
 10
376.4201855850882
 20
748.9698276126878
 30
0.0
  0
VERTEX
  5
4DA
  8
PROFILE
 10
376.4893930154059
 20
748.8183114891466
 30
0.0
  0
VERTEX
  5
4DB
  8
PROFILE
 10
376.5657310545902
 20
748.670259782376
 30
0.0
  0
VERTEX
  5
4DC
  8
PROFILE
 10
376.649026793529
 20
748.5260078361888
 30
0.0
  0
VERTEX
  5
4DD
  8
PROFILE
 10
376.7390915636061
 20
748.385882387768
 30
0.0
  0
VERTEX
  5
4DE
  8
PROFILE
 10
376.8357213640434
 20
748.2502008275926
 30
0.0
  0
VERTEX
  5
4DF
  8
PROFILE
 10
376.9386973239719
 20
748.1192704805337
 30
0.0
  0
VERTEX
  5
4E0
  8
PROFILE
 10
377.0477861981846
 20
747.9933879097498
 30
0.0
  0
VERTEX
  5
4E1
  8
PROFILE
 10
377.1627408954469
 20
747.8728382449576
 30
0.0
  0
VERTEX
  5
4E2
  8
PROFILE
 10
377.2833010381697
 20
747.7578945366008
 30
0.0
  0
VERTEX
  5
4E3
  8
PROFILE
 10
377.4091935521766
 20
747.648817137378
 30
0.0
  0
VERTEX
  5
4E4
  8
PROFILE
 10
377.5401332852287
 20
747.5458531125325
 30
0.0
  0
VERTEX
  5
4E5
  8
PROFILE
 10
377.675823652908
 20
747.4492356802378
 30
0.0
  0
VERTEX
  5
4E6
  8
PROFILE
 10
377.8159573103941
 20
747.3591836833484
 30
0.0
  0
VERTEX
  5
4E7
  8
PROFILE
 10
377.9602168486138
 20
747.2759010937106
 30
0.0
  0
VERTEX
  5
4E8
  8
PROFILE
 10
378.108275513188
 20
747.199576550157
 30
0.0
  0
VERTEX
  5
4E9
  8
PROFILE
 10
378.2597979445442
 20
747.130382931231
 30
0.0
  0
VERTEX
  5
4EA
  8
PROFILE
 10
378.4144409375217
 20
747.0684769636096
 30
0.0
  0
VERTEX
  5
4EB
  8
PROFILE
 10
378.5718542187463
 20
747.0139988671094
 30
0.0
  0
VERTEX
  5
4EC
  8
PROFILE
 10
378.7316812400157
 20
746.9670720370833
 30
0.0
  0
VERTEX
  5
4ED
  8
PROFILE
 10
378.8935599858975
 20
746.9278027649241
 30
0.0
  0
VERTEX
  5
4EE
  8
PROFILE
 10
379.0571237937098
 20
746.8962799973092
 30
0.0
  0
VERTEX
  5
4EF
  8
PROFILE
 10
379.2220021840296
 20
746.8725751347332
 30
0.0
  0
VERTEX
  5
4F0
  8
PROFILE
 10
379.3878216998447
 20
746.8567418697822
 30
0.0
  0
VERTEX
  5
4F1
  8
PROFILE
 10
379.5542067524513
 20
746.8488160655174
 30
0.0
  0
VERTEX
  5
4F2
  8
PROFILE
 10
379.7207804721793
 20
746.8488156742441
 30
0.0
  0
VERTEX
  5
4F3
  8
PROFILE
 10
379.8871655620188
 20
746.8567406968484
 30
0.0
  0
VERTEX
  5
4F4
  8
PROFILE
 10
380.0529851522152
 20
746.8725731827957
 30
0.0
  0
VERTEX
  5
4F5
  8
PROFILE
 10
380.2178636538962
 20
746.8962772707891
 30
0.0
  0
VERTEX
  5
4F6
  8
PROFILE
 10
380.3814276097975
 20
746.9277992699972
 30
0.0
  0
VERTEX
  5
4F7
  8
PROFILE
 10
380.5433065401606
 20
746.967067781666
 30
0.0
  0
VERTEX
  5
4F8
  8
PROFILE
 10
380.7031337818859
 20
747.0139938608401
 30
0.0
  0
VERTEX
  5
4F9
  8
PROFILE
 10
380.8605473190414
 20
747.0684712178278
 30
0.0
  0
VERTEX
  5
4FA
  8
PROFILE
 10
381.0151906028452
 20
747.1303764589511
 30
0.0
  0
VERTEX
  5
4FB
  8
PROFILE
 10
381.1667133592645
 20
747.199569366039
 30
0.0
  0
VERTEX
  5
4FC
  8
PROFILE
 10
381.3147723824021
 20
747.275893214027
 30
0.0
  0
VERTEX
  5
4FD
  8
PROFILE
 10
381.4590323118736
 20
747.359175125947
 30
0.0
  0
VERTEX
  5
4FE
  8
PROFILE
 10
381.5991663924133
 20
747.4492264645015
 30
0.0
  0
VERTEX
  5
4FF
  8
PROFILE
 10
381.7348572139902
 20
747.5458432593354
 30
0.0
  0
VERTEX
  5
500
  8
PROFILE
 10
381.8657974307556
 20
747.648806669038
 30
0.0
  0
VERTEX
  5
501
  8
PROFILE
 10
381.9916904571958
 20
747.757883476829
 30
0.0
  0
VERTEX
  5
502
  8
PROFILE
 10
382.1122511399115
 20
747.872826618805
 30
0.0
  0
VERTEX
  5
503
  8
PROFILE
 10
382.2272064035027
 20
747.9933757435501
 30
0.0
  0
VERTEX
  5
504
  8
PROFILE
 10
382.336295869098
 20
748.1192578018441
 30
0.0
  0
VERTEX
  5
505
  8
PROFILE
 10
382.439272444123
 20
748.2501876651307
 30
0.0
  0
VERTEX
  5
506
  8
PROFILE
 10
382.5359028819776
 20
748.3858687713475
 30
0.0
  0
VERTEX
  5
507
  8
PROFILE
 10
382.6259683103492
 20
748.5259937966514
 30
0.0
  0
VERTEX
  5
508
  8
PROFILE
 10
382.7092647269683
 20
748.670245351522
 30
0.0
  0
VERTEX
  5
509
  8
PROFILE
 10
382.7856034616838
 20
748.8182966996625
 30
0.0
  0
VERTEX
  5
50A
  8
PROFILE
 10
382.8548116038085
 20
748.9698124980724
 30
0.0
  0
VERTEX
  5
50B
  8
PROFILE
 10
382.9167323937699
 20
749.1244495566151
 30
0.0
  0
VERTEX
  5
50C
  8
PROFILE
 10
382.9712255781779
 20
749.2818576153581
 30
0.0
  0
VERTEX
  5
50D
  8
PROFILE
 10
383.0181677275049
 20
749.4416801379284
 30
0.0
  0
VERTEX
  5
50E
  8
PROFILE
 10
383.0574525156595
 20
749.603555119083
 30
0.0
  0
VERTEX
  5
50F
  8
PROFILE
 10
383.0889909608194
 20
749.7671159046677
 30
0.0
  0
VERTEX
  5
510
  8
PROFILE
 10
383.1127116269798
 20
749.9319920221046
 30
0.0
  0
VERTEX
  5
511
  8
PROFILE
 10
383.1285607857589
 20
750.09781001953
 30
0.0
  0
VERTEX
  5
512
  8
PROFILE
 10
383.1352656257971
 20
750.2227310554131
 30
0.0
  0
VERTEX
  5
513
  8
PROFILE
 10
383.1375018313008
 20
750.347818339703
 30
0.0
  0
SEQEND
  5
598
  8
PROFILE
  0
POLYLINE
  5
75
  8
PROFILE
 66
     1
 10
0.0
 20
0.0
 30
0.0
 70
     1
  0
VERTEX
  5
514
  8
PROFILE
 10
400.977866370781
 20
869.3805752556516
 30
0.0
  0
VERTEX
  5
515
  8
PROFILE
 10
1073.977641057027
 20
869.9312768648099
 30
0.0
  0
VERTEX
  5
516
  8
PROFILE
 10
1073.962502899866
 20
888.4312706711924
 30
0.0
 42
-1.0
  0
VERTEX
  5
517
  8
PROFILE
 10
1080.962500556335
 20
888.4369986225508
 30
0.0
  0
VERTEX
  5
518
  8
PROFILE
 10
1092.462496706248
 20
888.4464088283537
 30
0.0
  0
VERTEX
  5
519
  8
PROFILE
 10
1092.447358549087
 20
906.9464026347362
 30
0.0
  0
VERTEX
  5
51A
  8
PROFILE
 10
1080.947362399173
 20
906.9369924289333
 30
0.0
 42
-0.9999999999999997
  0
VERTEX
  5
51B
  8
PROFILE
 10
1073.947364742704
 20
906.9312644775753
 30
0.0
  0
VERTEX
  5
51C
  8
PROFILE
 10
1073.947160173013
 20
907.1812643938777
 30
0.0
  0
VERTEX
  5
51D
  8
PROFILE
 10
1073.932431155235
 20
925.1812583676553
 30
0.0
  0
VERTEX
  5
51E
  8
PROFILE
 10
1073.932226585544
 20
925.4312582839577
 30
0.0
 42
-1.0
  0
VERTEX
  5
51F
  8
PROFILE
 10
1080.932224242013
 20
925.4369862353162
 30
0.0
  0
VERTEX
  5
520
  8
PROFILE
 10
1092.432220391926
 20
925.4463964411191
 30
0.0
  0
VERTEX
  5
521
  8
PROFILE
 10
1092.417082234765
 20
943.9463902475015
 30
0.0
  0
VERTEX
  5
522
  8
PROFILE
 10
1080.917086084852
 20
943.9369800416987
 30
0.0
 42
-1.0
  0
VERTEX
  5
523
  8
PROFILE
 10
1073.917088428383
 20
943.9312520903406
 30
0.0
  0
VERTEX
  5
524
  8
PROFILE
 10
1073.901950271221
 20
962.4312458967231
 30
0.0
  0
VERTEX
  5
525
  8
PROFILE
 10
400.9021755849755
 20
961.880544287565
 30
0.0
  0
VERTEX
  5
526
  8
PROFILE
 10
400.9173137421366
 20
943.3805504811824
 30
0.0
 42
-1.0
  0
VERTEX
  5
527
  8
PROFILE
 10
393.9173160856674
 20
943.3748225298241
 30
0.0
  0
VERTEX
  5
528
  8
PROFILE
 10
382.4173199357539
 20
943.3654123240212
 30
0.0
  0
VERTEX
  5
529
  8
PROFILE
 10
382.4324581010978
 20
924.865408517642
 30
0.0
  0
VERTEX
  5
52A
  8
PROFILE
 10
393.9324542478378
 20
924.8748226147911
 30
0.0
 42
-0.4142140735683044
  0
VERTEX
  5
52B
  8
PROFILE
 10
397.4295829785509
 20
928.3777015223479
 30
0.0
 42
-0.4142140735682694
  0
VERTEX
  5
52C
  8
PROFILE
 10
400.9324518911149
 20
924.8805666747962
 30
0.0
  0
VERTEX
  5
52D
  8
PROFILE
 10
400.9326564689891
 20
924.630556758497
 30
0.0
  0
VERTEX
  5
52E
  8
PROFILE
 10
400.9474877675217
 20
906.5055678265664
 30
0.0
 42
-0.9999999999999997
  0
VERTEX
  5
52F
  8
PROFILE
 10
393.9475923918068
 20
906.3748449170553
 30
0.0
  0
VERTEX
  5
530
  8
PROFILE
 10
382.4475962418933
 20
906.3654347112524
 30
0.0
  0
VERTEX
  5
531
  8
PROFILE
 10
382.4627344072372
 20
887.8654309048732
 30
0.0
  0
VERTEX
  5
532
  8
PROFILE
 10
393.9627305571507
 20
887.874841110676
 30
0.0
 42
-1.0
  0
VERTEX
  5
533
  8
PROFILE
 10
400.9627282136199
 20
887.8805690620343
 30
0.0
  0
SEQEND
  5
599
  8
PROFILE
  0
POLYLINE
  5
76
  8
PROFILE
 66
     1
 10
0.0
 20
0.0
 30
0.0
 70
     1
  0
VERTEX
  5
534
  8
PROFILE
 10
400.977866370781
 20
980.9043821835998
 30
0.0
  0
VERTEX
  5
535
  8
PROFILE
 10
1073.977641057027
 20
981.455083792758
 30
0.0
  0
VERTEX
  5
536
  8
PROFILE
 10
1073.962502899866
 20
999.9550775991405
 30
0.0
 42
-1.0
  0
VERTEX
  5
537
  8
PROFILE
 10
1080.962500556335
 20
999.960805550499
 30
0.0
  0
VERTEX
  5
538
  8
PROFILE
 10
1092.462496706248
 20
999.9702157563019
 30
0.0
  0
VERTEX
  5
539
  8
PROFILE
 10
1092.447358549087
 20
1018.470209562684
 30
0.0
  0
VERTEX
  5
53A
  8
PROFILE
 10
1080.947362399173
 20
1018.460799356881
 30
0.0
 42
-0.9999999999999997
  0
VERTEX
  5
53B
  8
PROFILE
 10
1073.947364742704
 20
1018.455071405523
 30
0.0
  0
VERTEX
  5
53C
  8
PROFILE
 10
1073.947160173013
 20
1018.705071321826
 30
0.0
  0
VERTEX
  5
53D
  8
PROFILE
 10
1073.932431155235
 20
1036.705065295604
 30
0.0
  0
VERTEX
  5
53E
  8
PROFILE
 10
1073.932226585544
 20
1036.955065211906
 30
0.0
 42
-1.0
  0
VERTEX
  5
53F
  8
PROFILE
 10
1080.932224242013
 20
1036.960793163264
 30
0.0
  0
VERTEX
  5
540
  8
PROFILE
 10
1092.432220391926
 20
1036.970203369067
 30
0.0
  0
VERTEX
  5
541
  8
PROFILE
 10
1092.417082234765
 20
1055.47019717545
 30
0.0
  0
VERTEX
  5
542
  8
PROFILE
 10
1080.917086084852
 20
1055.460786969647
 30
0.0
 42
-1.0
  0
VERTEX
  5
543
  8
PROFILE
 10
1073.917088428383
 20
1055.455059018289
 30
0.0
  0
VERTEX
  5
544
  8
PROFILE
 10
1073.901950271221
 20
1073.955052824671
 30
0.0
  0
VERTEX
  5
545
  8
PROFILE
 10
400.9021755849755
 20
1073.404351215513
 30
0.0
  0
VERTEX
  5
546
  8
PROFILE
 10
400.9173137421366
 20
1054.904357409131
 30
0.0
 42
-1.0
  0
VERTEX
  5
547
  8
PROFILE
 10
393.9173160856674
 20
1054.898629457772
 30
0.0
  0
VERTEX
  5
548
  8
PROFILE
 10
382.4173199357539
 20
1054.889219251969
 30
0.0
  0
VERTEX
  5
549
  8
PROFILE
 10
382.4324581010978
 20
1036.38921544559
 30
0.0
  0
VERTEX
  5
54A
  8
PROFILE
 10
393.9324542478378
 20
1036.398629542739
 30
0.0
 42
-0.4142140735683044
  0
VERTEX
  5
54B
  8
PROFILE
 10
397.4295829785509
 20
1039.901508450296
 30
0.0
 42
-0.4142140735682694
  0
VERTEX
  5
54C
  8
PROFILE
 10
400.9324518911149
 20
1036.404373602744
 30
0.0
  0
VERTEX
  5
54D
  8
PROFILE
 10
400.9326564689891
 20
1036.154363686445
 30
0.0
  0
VERTEX
  5
54E
  8
PROFILE
 10
400.9474877675217
 20
1018.029374754515
 30
0.0
 42
-0.9999999999999997
  0
VERTEX
  5
54F
  8
PROFILE
 10
393.9475923918068
 20
1017.898651845003
 30
0.0
  0
VERTEX
  5
550
  8
PROFILE
 10
382.4475962418933
 20
1017.889241639201
 30
0.0
  0
VERTEX
  5
551
  8
PROFILE
 10
382.4627344072372
 20
999.3892378328213
 30
0.0
  0
VERTEX
  5
552
  8
PROFILE
 10
393.9627305571507
 20
999.3986480386242
 30
0.0
 42
-1.0
  0
VERTEX
  5
553
  8
PROFILE
 10
400.9627282136199
 20
999.4043759899824
 30
0.0
  0
SEQEND
  5
59A
  8
PROFILE
  0
POLYLINE
  5
77
  8
PROFILE
 66
     1
 10
0.0
 20
0.0
 30
0.0
 70
     1
  0
VERTEX
  5
554
  8
PROFILE
 10
423.3025792962459
 20
417.0223363179625
 30
0.0
  0
VERTEX
  5
555
  8
PROFILE
 10
423.3025708788041
 20
417.0146306311775
 30
0.0
 42
0.4142135623730951
  0
VERTEX
  5
556
  8
PROFILE
 10
426.8025708788041
 20
413.5146306311775
 30
0.0
 42
0.4142135623730951
  0
VERTEX
  5
557
  8
PROFILE
 10
430.302315522607
 20
417.0107639927323
 30
0.0
  0
VERTEX
  5
558
  8
PROFILE
 10
430.4799562686977
 20
417.0065049632593
 30
0.0
 42
0.0000013027551979
  0
VERTEX
  5
559
  8
PROFILE
 10
430.4799563109908
 20
417.0065241261912
 30
0.0
  0
VERTEX
  5
55A
  8
PROFILE
 10
430.5207630806011
 20
435.5064791209351
 30
0.0
 42
1.0
  0
VERTEX
  5
55B
  8
PROFILE
 10
423.5207801096168
 20
435.521919520247
 30
0.0
  0
VERTEX
  5
55C
  8
PROFILE
 10
412.020808085857
 20
435.5472858905453
 30
0.0
  0
VERTEX
  5
55D
  8
PROFILE
 10
412.0616148334095
 20
454.0472308853135
 30
0.0
  0
VERTEX
  5
55E
  8
PROFILE
 10
423.5615868571693
 20
454.0218645150154
 30
0.0
 42
1.0
  0
VERTEX
  5
55F
  8
PROFILE
 10
430.5615698281536
 20
454.0064241157033
 30
0.0
  0
VERTEX
  5
560
  8
PROFILE
 10
430.6023765977638
 20
472.5063791104475
 30
0.0
  0
VERTEX
  5
561
  8
PROFILE
 10
1036.985901434945
 20
471.168832462335
 30
0.0
  0
VERTEX
  5
562
  8
PROFILE
 10
1036.945094665334
 20
452.6688774675908
 30
0.0
 42
1.0
  0
VERTEX
  5
563
  8
PROFILE
 10
1043.945077636319
 20
452.6534370682789
 30
0.0
  0
VERTEX
  5
564
  8
PROFILE
 10
1055.445049660078
 20
452.6280706979807
 30
0.0
  0
VERTEX
  5
565
  8
PROFILE
 10
1055.404242890468
 20
434.1281157032367
 30
0.0
  0
VERTEX
  5
566
  8
PROFILE
 10
1043.904270866708
 20
434.1534820735349
 30
0.0
 42
1.0
  0
VERTEX
  5
567
  8
PROFILE
 10
1036.904287895724
 20
434.1689224728469
 30
0.0
  0
VERTEX
  5
568
  8
PROFILE
 10
1036.863481126114
 20
415.6689674781028
 30
0.0
 42
0.9999999999999997
  0
VERTEX
  5
569
  8
PROFILE
 10
1043.863464097099
 20
415.6535270787908
 30
0.0
  0
VERTEX
  5
56A
  8
PROFILE
 10
1055.363436120858
 20
415.6281607084926
 30
0.0
  0
VERTEX
  5
56B
  8
PROFILE
 10
1055.322629351248
 20
397.1282057137487
 30
0.0
  0
VERTEX
  5
56C
  8
PROFILE
 10
1043.822657327488
 20
397.1535720840469
 30
0.0
 42
1.0
  0
VERTEX
  5
56D
  8
PROFILE
 10
1036.822674356504
 20
397.1690124833589
 30
0.0
  0
VERTEX
  5
56E
  8
PROFILE
 10
1036.781867586893
 20
378.6690574886147
 30
0.0
  0
VERTEX
  5
56F
  8
PROFILE
 10
430.3983427497128
 20
380.0066041367273
 30
0.0
  0
VERTEX
  5
570
  8
PROFILE
 10
430.439149519323
 20
398.5065591314715
 30
0.0
 42
1.0
  0
VERTEX
  5
571
  8
PROFILE
 10
423.4391665483387
 20
398.5219995307833
 30
0.0
  0
VERTEX
  5
572
  8
PROFILE
 10
411.9391945245789
 20
398.5473659010817
 30
0.0
  0
VERTEX
  5
573
  8
PROFILE
 10
411.9800012721313
 20
417.0473108958499
 30
0.0
  0
SEQEND
  5
59B
  8
PROFILE
  0
POLYLINE
  5
78
  8
PROFILE
 66
     1
 10
0.0
 20
0.0
 30
0.0
 70
     1
  0
VERTEX
  5
574
  8
PROFILE
 10
423.3025792962459
 20
531.4120425364555
 30
0.0
  0
VERTEX
  5
575
  8
PROFILE
 10
423.3025708788041
 20
531.4043368496705
 30
0.0
 42
0.4142135623730951
  0
VERTEX
  5
576
  8
PROFILE
 10
426.8025708788041
 20
527.9043368496705
 30
0.0
 42
0.4142135623730951
  0
VERTEX
  5
577
  8
PROFILE
 10
430.302315522607
 20
531.4004702112253
 30
0.0
  0
VERTEX
  5
578
  8
PROFILE
 10
430.4799562686977
 20
531.3962111817523
 30
0.0
 42
0.0000013027551979
  0
VERTEX
  5
579
  8
PROFILE
 10
430.4799563109908
 20
531.3962303446841
 30
0.0
  0
VERTEX
  5
57A
  8
PROFILE
 10
430.5207630806011
 20
549.896185339428
 30
0.0
 42
1.0
  0
VERTEX
  5
57B
  8
PROFILE
 10
423.5207801096168
 20
549.91162573874
 30
0.0
  0
VERTEX
  5
57C
  8
PROFILE
 10
412.020808085857
 20
549.9369921090382
 30
0.0
  0
VERTEX
  5
57D
  8
PROFILE
 10
412.0616148334095
 20
568.4369371038065
 30
0.0
  0
VERTEX
  5
57E
  8
PROFILE
 10
423.5615868571693
 20
568.4115707335084
 30
0.0
 42
1.0
  0
VERTEX
  5
57F
  8
PROFILE
 10
430.5615698281536
 20
568.3961303341963
 30
0.0
  0
VERTEX
  5
580
  8
PROFILE
 10
430.6023765977638
 20
586.8960853289404
 30
0.0
  0
VERTEX
  5
581
  8
PROFILE
 10
1036.985901434945
 20
585.558538680828
 30
0.0
  0
VERTEX
  5
582
  8
PROFILE
 10
1036.945094665334
 20
567.0585836860838
 30
0.0
 42
1.0
  0
VERTEX
  5
583
  8
PROFILE
 10
1043.945077636319
 20
567.0431432867719
 30
0.0
  0
VERTEX
  5
584
  8
PROFILE
 10
1055.445049660078
 20
567.0177769164736
 30
0.0
  0
VERTEX
  5
585
  8
PROFILE
 10
1055.404242890468
 20
548.5178219217297
 30
0.0
  0
VERTEX
  5
586
  8
PROFILE
 10
1043.904270866708
 20
548.5431882920278
 30
0.0
 42
1.0
  0
VERTEX
  5
587
  8
PROFILE
 10
1036.904287895724
 20
548.5586286913399
 30
0.0
  0
VERTEX
  5
588
  8
PROFILE
 10
1036.863481126114
 20
530.0586736965957
 30
0.0
 42
0.9999999999999997
  0
VERTEX
  5
589
  8
PROFILE
 10
1043.863464097099
 20
530.0432332972838
 30
0.0
  0
VERTEX
  5
58A
  8
PROFILE
 10
1055.363436120858
 20
530.0178669269856
 30
0.0
  0
VERTEX
  5
58B
  8
PROFILE
 10
1055.322629351248
 20
511.5179119322416
 30
0.0
  0
VERTEX
  5
58C
  8
PROFILE
 10
1043.822657327488
 20
511.5432783025399
 30
0.0
 42
1.0
  0
VERTEX
  5
58D
  8
PROFILE
 10
1036.822674356504
 20
511.5587187018518
 30
0.0
  0
VERTEX
  5
58E
  8
PROFILE
 10
1036.781867586893
 20
493.0587637071077
 30
0.0
  0
VERTEX
  5
58F
  8
PROFILE
 10
430.3983427497128
 20
494.3963103552203
 30
0.0
  0
VERTEX
  5
590
  8
PROFILE
 10
430.439149519323
 20
512.8962653499644
 30
0.0
 42
1.0
  0
VERTEX
  5
591
  8
PROFILE
 10
423.4391665483387
 20
512.9117057492763
 30
0.0
  0
VERTEX
  5
592
  8
PROFILE
 10
411.9391945245789
 20
512.9370721195746
 30
0.0
  0
VERTEX
  5
593
  8
PROFILE
 10
411.9800012721313
 20
531.4370171143429
 30
0.0
  0
SEQEND
  5
59C
  8
PROFILE
  0
ENDSEC
  0
EOF
