<?xml version="1.0" encoding="UTF-8" standalone="no"?>
<!-- Created with Inkscape (http://www.inkscape.org/) -->

<svg
   xmlns:dc="http://purl.org/dc/elements/1.1/"
   xmlns:cc="http://creativecommons.org/ns#"
   xmlns:rdf="http://www.w3.org/1999/02/22-rdf-syntax-ns#"
   xmlns:svg="http://www.w3.org/2000/svg"
   xmlns="http://www.w3.org/2000/svg"
   xmlns:sodipodi="http://sodipodi.sourceforge.net/DTD/sodipodi-0.dtd"
   xmlns:inkscape="http://www.inkscape.org/namespaces/inkscape"
   version="1.1"
   id="svg2"
   xml:space="preserve"
   width="884.94269"
   height="483.62534"
   viewBox="0 0 884.94269 483.62534"
   sodipodi:docname="EGLogo_Combined.ai.svg"
   inkscape:version="0.92.5 (2060ec1f9f, 2020-04-08)"><metadata
     id="metadata8"><rdf:RDF><cc:Work
         rdf:about=""><dc:format>image/svg+xml</dc:format><dc:type
           rdf:resource="http://purl.org/dc/dcmitype/StillImage" /><dc:title></dc:title></cc:Work></rdf:RDF></metadata><defs
     id="defs6"><clipPath
       clipPathUnits="userSpaceOnUse"
       id="clipPath22"><path
         d="M 0,362.719 H 663.707 V 0 H 0 Z"
         id="path20"
         inkscape:connector-curvature="0" /></clipPath></defs><sodipodi:namedview
     pagecolor="#ffffff"
     bordercolor="#666666"
     borderopacity="1"
     objecttolerance="10"
     gridtolerance="10"
     guidetolerance="10"
     inkscape:pageopacity="0"
     inkscape:pageshadow="2"
     inkscape:window-width="1848"
     inkscape:window-height="1016"
     id="namedview4"
     showgrid="false"
     inkscape:zoom="1.8487073"
     inkscape:cx="539.0518"
     inkscape:cy="101.46548"
     inkscape:window-x="72"
     inkscape:window-y="27"
     inkscape:window-maximized="1"
     inkscape:current-layer="g10" /><g
     id="g10"
     inkscape:groupmode="layer"
     inkscape:label="Energy_Generation_Final"
     transform="matrix(1.3333333,0,0,-1.3333333,0,483.62533)"><g
       id="g12"
       transform="translate(520.5854,181.2197)"><path
         d="M 0,0 H -12.536 L -13.878,4.591 -15.252,0 l -1.001,3.341 -3.622,-12.488 -3.87,23.605 -3.748,-17.111 -2.249,7.244 -2.497,-7.244 -1.624,7.992 -2.28,-5.236 -16.396,-0.091 -1.343,4.591 -1.374,-4.591 -1.001,3.342 -3.621,-12.491 -3.871,23.607 -3.747,-17.111 -2.248,7.244 -2.497,-7.244 -1.626,7.994 -2.279,-5.213 h -203.668"
         style="fill:none;stroke:#e50b14;stroke-width:0.93099999;stroke-linecap:butt;stroke-linejoin:miter;stroke-miterlimit:10;stroke-dasharray:none;stroke-opacity:1"
         id="path14"
         inkscape:connector-curvature="0" /></g><g
       id="g24"
       transform="translate(240.771,195.1631)"><path
         d="m 0,0 v 22.633 c 0,1.783 1.411,3.191 3.194,3.191 h 16.084 c 1.576,0 2.859,-1.282 2.859,-2.859 0,-1.577 -1.283,-2.82 -2.859,-2.82 H 6.345 v -5.886 h 11.068 c 1.574,0 2.862,-1.285 2.862,-2.861 0,-1.574 -1.288,-2.818 -2.862,-2.818 H 6.345 V 2.487 h 13.14 c 1.576,0 2.861,-1.285 2.861,-2.861 0,-1.574 -1.285,-2.819 -2.861,-2.819 H 3.194 C 1.411,-3.193 0,-1.782 0,0"
         style="fill:#1b1a1a;fill-opacity:1;fill-rule:nonzero;stroke:none"
         id="path26"
         inkscape:connector-curvature="0" /></g><path
       inkscape:connector-curvature="0"
       id="path30"
       style="fill:#1b1a1a;fill-opacity:1;fill-rule:nonzero;stroke:none"
       d="m 268.5444,217.9609 c 0,1.782 1.41,3.192 3.191,3.192 h 0.663 c 1.538,0 2.447,-0.746 3.317,-1.865 l 12.311,-16.167 v 14.965 c 0,1.739 1.41,3.15 3.151,3.15 1.74,0 3.15,-1.411 3.15,-3.15 v -23.089 c 0,-1.782 -1.41,-3.192 -3.194,-3.192 h -0.206 c -1.533,0 -2.443,0.746 -3.316,1.865 l -12.766,16.748 v -15.544 c 0,-1.742 -1.407,-3.152 -3.152,-3.152 -1.739,0 -3.149,1.41 -3.149,3.152 z" /><g
       id="g32"
       transform="translate(301.2886,195.1631)"><path
         d="m 0,0 v 22.633 c 0,1.783 1.41,3.191 3.194,3.191 h 16.081 c 1.577,0 2.86,-1.282 2.86,-2.859 0,-1.577 -1.283,-2.82 -2.86,-2.82 H 6.343 v -5.886 h 11.069 c 1.575,0 2.862,-1.285 2.862,-2.861 0,-1.574 -1.287,-2.818 -2.862,-2.818 H 6.343 V 2.487 h 13.141 c 1.578,0 2.862,-1.285 2.862,-2.861 0,-1.574 -1.284,-2.819 -2.862,-2.819 H 3.194 C 1.41,-3.193 0,-1.782 0,0"
         style="fill:#1b1a1a;fill-opacity:1;fill-rule:nonzero;stroke:none"
         id="path34"
         inkscape:connector-curvature="0" /></g><g
       id="g36"
       transform="translate(341.9116,206.8921)"><path
         d="M 0,0 C 3.111,0 4.89,1.659 4.89,4.106 V 4.19 c 0,2.734 -1.904,4.143 -5.014,4.143 H -6.467 V 0 Z m -12.847,10.904 c 0,1.783 1.409,3.191 3.189,3.191 H 0.416 c 3.689,0 6.547,-1.037 8.454,-2.943 1.618,-1.616 2.486,-3.895 2.486,-6.632 V 4.438 c 0,-4.561 -2.275,-7.379 -5.801,-8.83 l 4.437,-5.39 c 0.62,-0.787 1.034,-1.45 1.034,-2.444 0,-1.782 -1.49,-2.944 -3.025,-2.944 -1.451,0 -2.403,0.705 -3.149,1.659 l -6.22,7.874 h -5.099 v -6.341 c 0,-1.782 -1.408,-3.192 -3.191,-3.192 -1.78,0 -3.189,1.41 -3.189,3.192 z"
         style="fill:#1b1a1a;fill-opacity:1;fill-rule:nonzero;stroke:none"
         id="path38"
         inkscape:connector-curvature="0" /></g><g
       id="g40"
       transform="translate(357.7446,206.395)"><path
         d="m 0,0 v 0.083 c 0,8.252 6.426,15.005 15.218,15.005 4.392,0 7.292,-0.993 9.902,-2.817 0.624,-0.455 1.331,-1.326 1.331,-2.568 0,-1.744 -1.412,-3.15 -3.153,-3.15 -0.911,0 -1.493,0.329 -1.946,0.66 C 19.61,8.458 17.743,9.202 15.009,9.202 10.366,9.202 6.678,5.1 6.678,0.166 V 0.083 c 0,-5.306 3.646,-9.203 8.786,-9.203 2.322,0 4.393,0.582 6.01,1.741 v 4.149 h -4.308 c -1.537,0 -2.782,1.201 -2.782,2.735 0,1.533 1.245,2.775 2.782,2.775 h 7.294 c 1.783,0 3.19,-1.407 3.19,-3.192 v -7.045 c 0,-1.867 -0.703,-3.15 -2.238,-4.065 -2.363,-1.451 -5.802,-2.9 -10.152,-2.9 C 6.218,-14.922 0,-8.579 0,0"
         style="fill:#1b1a1a;fill-opacity:1;fill-rule:nonzero;stroke:none"
         id="path42"
         inkscape:connector-curvature="0" /></g><g
       id="g44"
       transform="translate(398.4946,203.1646)"><path
         d="m 0,0 -9.369,12.725 c -0.456,0.624 -0.789,1.366 -0.789,2.279 0,1.699 1.407,3.068 3.192,3.068 1.452,0 2.363,-0.787 3.151,-1.948 L 3.231,5.968 10.402,16.206 c 0.786,1.16 1.741,1.908 3.068,1.908 1.949,0 3.107,-1.37 3.107,-3.11 0,-0.869 -0.412,-1.655 -0.828,-2.237 L 6.383,0.124 V -8.25 c 0,-1.783 -1.411,-3.192 -3.195,-3.192 -1.78,0 -3.188,1.409 -3.188,3.192 z"
         style="fill:#1b1a1a;fill-opacity:1;fill-rule:nonzero;stroke:none"
         id="path46"
         inkscape:connector-curvature="0" /></g><g
       id="g48"
       transform="translate(239.4873,156.6563)"><path
         d="m 0,0 v 0.083 c 0,8.248 6.426,15.005 15.216,15.005 4.39,0 7.294,-0.994 9.907,-2.816 0.621,-0.456 1.323,-1.329 1.323,-2.573 0,-1.74 -1.409,-3.149 -3.147,-3.149 -0.913,0 -1.493,0.332 -1.951,0.662 C 19.606,8.456 17.743,9.2 15.007,9.2 10.365,9.2 6.675,5.101 6.675,0.167 V 0.083 c 0,-5.308 3.647,-9.204 8.786,-9.204 2.324,0 4.398,0.58 6.012,1.743 v 4.147 h -4.312 c -1.533,0 -2.78,1.199 -2.78,2.734 0,1.534 1.247,2.776 2.78,2.776 h 7.297 c 1.781,0 3.191,-1.407 3.191,-3.192 V -7.96 c 0,-1.861 -0.701,-3.15 -2.238,-4.061 -2.363,-1.454 -5.805,-2.903 -10.153,-2.903 C 6.22,-14.924 0,-8.58 0,0"
         style="fill:#1b1a1a;fill-opacity:1;fill-rule:nonzero;stroke:none"
         id="path50"
         inkscape:connector-curvature="0" /></g><g
       id="g52"
       transform="translate(273.2715,145.4219)"><path
         d="m 0,0 v 22.635 c 0,1.782 1.408,3.192 3.188,3.192 h 16.084 c 1.578,0 2.861,-1.287 2.861,-2.862 0,-1.575 -1.283,-2.819 -2.861,-2.819 H 6.341 V 14.26 h 11.066 c 1.577,0 2.86,-1.285 2.86,-2.859 0,-1.577 -1.283,-2.821 -2.86,-2.821 H 6.341 V 2.487 H 19.48 c 1.576,0 2.861,-1.284 2.861,-2.861 0,-1.575 -1.285,-2.816 -2.861,-2.816 H 3.188 C 1.408,-3.19 0,-1.781 0,0"
         style="fill:#1b1a1a;fill-opacity:1;fill-rule:nonzero;stroke:none"
         id="path54"
         inkscape:connector-curvature="0" /></g><g
       id="g56"
       transform="translate(301.042,168.2207)"><path
         d="m 0,0 c 0,1.784 1.411,3.194 3.19,3.194 h 0.665 c 1.535,0 2.444,-0.748 3.314,-1.866 L 19.483,-14.84 V 0.126 c 0,1.74 1.409,3.151 3.152,3.151 1.738,0 3.149,-1.411 3.149,-3.151 v -23.09 c 0,-1.784 -1.411,-3.192 -3.192,-3.192 h -0.21 c -1.531,0 -2.444,0.745 -3.315,1.865 L 6.299,-7.543 v -15.548 c 0,-1.737 -1.407,-3.148 -3.149,-3.148 -1.739,0 -3.15,1.411 -3.15,3.148 z"
         style="fill:#1b1a1a;fill-opacity:1;fill-rule:nonzero;stroke:none"
         id="path58"
         inkscape:connector-curvature="0" /></g><g
       id="g60"
       transform="translate(333.7896,145.4219)"><path
         d="m 0,0 v 22.635 c 0,1.782 1.407,3.192 3.191,3.192 h 16.083 c 1.576,0 2.859,-1.287 2.859,-2.862 0,-1.575 -1.283,-2.819 -2.859,-2.819 H 6.338 V 14.26 h 11.071 c 1.574,0 2.859,-1.285 2.859,-2.859 0,-1.577 -1.285,-2.821 -2.859,-2.821 H 6.338 V 2.487 h 13.141 c 1.574,0 2.862,-1.284 2.862,-2.861 0,-1.575 -1.288,-2.816 -2.862,-2.816 H 3.191 C 1.407,-3.19 0,-1.781 0,0"
         style="fill:#1b1a1a;fill-opacity:1;fill-rule:nonzero;stroke:none"
         id="path62"
         inkscape:connector-curvature="0" /></g><g
       id="g64"
       transform="translate(374.4077,157.1514)"><path
         d="m 0,0 c 3.11,0 4.895,1.659 4.895,4.106 v 0.082 c 0,2.738 -1.911,4.145 -5.018,4.145 H -6.464 V 0 Z m -12.851,10.905 c 0,1.783 1.41,3.193 3.195,3.193 H 0.413 c 3.691,0 6.554,-1.04 8.46,-2.946 1.615,-1.618 2.483,-3.893 2.483,-6.633 V 4.436 c 0,-4.558 -2.275,-7.377 -5.797,-8.828 l 4.434,-5.391 c 0.622,-0.786 1.031,-1.449 1.031,-2.443 0,-1.783 -1.489,-2.944 -3.023,-2.944 -1.45,0 -2.403,0.705 -3.15,1.659 l -6.217,7.876 h -5.098 v -6.343 c 0,-1.781 -1.409,-3.192 -3.192,-3.192 -1.785,0 -3.195,1.411 -3.195,3.192 z"
         style="fill:#1b1a1a;fill-opacity:1;fill-rule:nonzero;stroke:none"
         id="path66"
         inkscape:connector-curvature="0" /></g><g
       id="g68"
       transform="translate(426.9253,165.3613)"><path
         d="m 0,0 h -6.134 c -1.614,0 -2.943,1.324 -2.943,2.942 0,1.619 1.329,2.946 2.943,2.946 h 18.655 c 1.62,0 2.942,-1.327 2.942,-2.946 C 15.463,1.324 14.141,0 12.521,0 H 6.387 v -20.188 c 0,-1.781 -1.413,-3.192 -3.193,-3.192 -1.783,0 -3.194,1.411 -3.194,3.192 z"
         style="fill:#1b1a1a;fill-opacity:1;fill-rule:nonzero;stroke:none"
         id="path70"
         inkscape:connector-curvature="0" /></g><g
       id="g72"
       transform="translate(447.3208,168.3037)"><path
         d="M 0,0 C 0,1.783 1.41,3.194 3.192,3.194 4.974,3.194 6.385,1.783 6.385,0 v -23.13 c 0,-1.781 -1.411,-3.192 -3.193,-3.192 C 1.41,-26.322 0,-24.911 0,-23.13 Z"
         style="fill:#1b1a1a;fill-opacity:1;fill-rule:nonzero;stroke:none"
         id="path74"
         inkscape:connector-curvature="0" /></g><g
       id="g76"
       transform="translate(483.8423,156.6563)"><path
         d="M 0,0 V 0.083 C 0,5.059 -3.652,9.2 -8.79,9.2 c -5.143,0 -8.705,-4.059 -8.705,-9.033 V 0.083 c 0,-4.976 3.651,-9.118 8.787,-9.118 C -3.569,-9.035 0,-4.975 0,0 m -24.169,0 v 0.083 c 0,8.248 6.508,15.005 15.461,15.005 8.955,0 15.382,-6.675 15.382,-14.921 V 0.083 c 0,-8.248 -6.509,-15.007 -15.464,-15.007 -8.954,0 -15.379,6.674 -15.379,14.924"
         style="fill:#1b1a1a;fill-opacity:1;fill-rule:nonzero;stroke:none"
         id="path78"
         inkscape:connector-curvature="0" /></g><g
       id="g80"
       transform="translate(496.1919,168.2207)"><path
         d="m 0,0 c 0,1.784 1.406,3.194 3.19,3.194 h 0.666 c 1.536,0 2.445,-0.748 3.314,-1.866 L 19.481,-14.84 V 0.126 c 0,1.74 1.412,3.151 3.152,3.151 1.745,0 3.149,-1.411 3.149,-3.151 v -23.09 c 0,-1.784 -1.404,-3.192 -3.191,-3.192 h -0.206 c -1.536,0 -2.447,0.745 -3.317,1.865 L 6.301,-7.543 v -15.548 c 0,-1.737 -1.412,-3.148 -3.15,-3.148 -1.745,0 -3.151,1.411 -3.151,3.148 z"
         style="fill:#1b1a1a;fill-opacity:1;fill-rule:nonzero;stroke:none"
         id="path82"
         inkscape:connector-curvature="0" /></g><g
       id="g92"
       transform="translate(201.1279,155.0117)" /><g
       id="g96"
       transform="translate(201.1279,155.0117)" /><g
       id="g100"
       transform="translate(214.3252,194.6025)" /><g
       id="g104"
       transform="translate(201.1279,207.8018)" /><g
       id="g108"
       transform="translate(214.3252,168.2109)" /><g
       id="g112"
       transform="translate(214.3252,194.6025)" /><g
       id="g116"
       transform="translate(214.3252,207.8018)"><path
         id="path118"
         style="fill:#e50b14;fill-opacity:1;fill-rule:nonzero;stroke:none"
         d="m 0,0 v 13.197 h 13.198 z m 0,-13.1993 v -13.195 -13.197 l 13.198,13.197 v 13.195 z m 0,-26.3916 v -13.199 l 13.198,13.199 v 13.196 z M -13.1973,0 V -13.199 L -3e-4,0 V 13.197 Z M 0,-13.1993 v -13.195 h -13.197 z m -13.1973,-39.5908 v -13.199 l 13.197,13.199 v 13.199 z m 0,0 v -13.199 h -13.2 z m -13.1997,39.5908 v -13.195 -13.197 l 13.2,13.197 v 13.195 13.199 z m 0,-26.3916 v -13.199 -13.199 l 13.2,13.199 v 13.199 13.196 z" /></g><g
       id="g120"
       transform="translate(154.9312,155.0117)" /><g
       id="g124"
       transform="translate(141.7324,194.6025)" /><g
       id="g128"
       transform="translate(154.9312,181.4072)" /><g
       id="g136"
       transform="translate(154.9312,168.2072)" /><g
       id="g140"
       transform="translate(168.1299,194.6025)" /><g
       id="g144"
       transform="translate(154.9312,207.8018)" /><g
       id="g148"
       transform="translate(168.1299,168.207)" /><g
       id="g156"
       transform="translate(168.1299,207.8018)"><path
         id="path158"
         style="fill:#c7b79c;fill-opacity:1;fill-rule:nonzero;stroke:none"
         d="m 0,0 v 13.197 h 13.198 z m 0,-13.1993 v -13.195 l 13.198,13.195 V -3e-4 Z m 0,-26.3955 v -13.195 l 13.198,13.195 v 13.2 z M -13.1987,0 V -13.199 L 3e-4,0 V 13.197 Z M 0,-13.1993 v -13.195 h -13.199 z m -13.1987,-26.3953 v 13.2 H 3e-4 Z m 0,-13.1955 v -13.201 l 13.199,13.201 v 13.195 z m 0,26.3955 -13.199,-13.2 v -13.196 -13.201 l 13.199,13.201 v 13.196 z m -13.1988,13.1953 v -13.195 -13.201 l 13.199,13.201 v 13.195 13.199 z m 13.1988,-39.5908 v -13.201 h -13.199 z" /></g><g
       id="g160"
       transform="translate(412.3589,148.9473)"><path
         d="m 0,0 v -1.395 -1.392 -1.395 l 1.392,1.395 1.394,1.392 V 0 1.395 2.787 L 1.392,1.395 Z"
         style="fill:#1b1a1a;fill-opacity:1;fill-rule:nonzero;stroke:none"
         id="path162"
         inkscape:connector-curvature="0" /></g><g
       id="g164"
       transform="translate(413.7505,161.4873)"><path
         d="m 0,0 h -1.392 v 1.396 h -1.396 v 1.393 1.395 h -1.396 v 1.39 1.397 l -1.392,1.392 h -1.39 -1.396 -1.393 -1.378 -0.013 -1.38 v 1.394 h -1.395 -1.393 -1.393 -1.396 V 8.363 h -1.392 -1.393 V 6.971 H -22.28 V 5.574 4.184 2.789 1.396 0 -1.39 l 1.392,-1.394 1.393,-1.394 h 1.392 l 1.396,1.394 h 1.393 1.393 V -4.178 -5.57 -6.966 h 1.395 v -1.393 h 1.38 v -1.394 -0.014 l -1.38,-1.379 v -1.394 -1.395 h 1.38 v -1.392 -1.395 l 1.391,-1.393 v -1.392 h 1.393 1.396 v 1.392 h 1.39 v 1.393 h 1.392 v 1.395 1.392 l 1.396,1.395 1.396,1.394 v 1.393 1.394 h -1.396 v 1.393 L -1.392,-5.57 0,-4.178 v 1.394 L 1.395,-1.39 V 0 Z"
         style="fill:#1b1a1a;fill-opacity:1;fill-rule:nonzero;stroke:none"
         id="path166"
         inkscape:connector-curvature="0" /></g><rect
       style="fill:none;stroke:#000000;stroke-width:0.77734011"
       id="rect4084"
       width="407.65375"
       height="105.02412"
       x="128.26131"
       y="-233.22183"
       transform="scale(1,-1)"
       ry="17.444622" /></g></svg>