<?xml version="1.0" encoding="UTF-8" standalone="no"?>
<svg
   xmlns:dc="http://purl.org/dc/elements/1.1/"
   xmlns:cc="http://creativecommons.org/ns#"
   xmlns:rdf="http://www.w3.org/1999/02/22-rdf-syntax-ns#"
   xmlns:svg="http://www.w3.org/2000/svg"
   xmlns="http://www.w3.org/2000/svg"
   xmlns:sodipodi="http://sodipodi.sourceforge.net/DTD/sodipodi-0.dtd"
   xmlns:inkscape="http://www.inkscape.org/namespaces/inkscape"
   width="36.634156799999886mm"
   height="37.22312880000001mm"
   viewBox="0 0 36.634156799999886 37.22312880000001"
   version="1.1"
   id="svg7634"
   sodipodi:docname="smallgear2.svg"
   inkscape:version="0.92.5 (2060ec1f9f, 2020-04-08)">
  <metadata
     id="metadata7640">
    <rdf:RDF>
      <cc:Work
         rdf:about="">
        <dc:format>image/svg+xml</dc:format>
        <dc:type
           rdf:resource="http://purl.org/dc/dcmitype/StillImage" />
      </cc:Work>
    </rdf:RDF>
  </metadata>
  <defs
     id="defs7638" />
  <sodipodi:namedview
     pagecolor="#ffffff"
     bordercolor="#666666"
     borderopacity="1"
     objecttolerance="10"
     gridtolerance="10"
     guidetolerance="10"
     inkscape:pageopacity="0"
     inkscape:pageshadow="2"
     inkscape:window-width="1866"
     inkscape:window-height="1016"
     id="namedview7636"
     showgrid="false"
     inkscape:zoom="4.7446764"
     inkscape:cx="60.162872"
     inkscape:cy="60.316659"
     inkscape:window-x="54"
     inkscape:window-y="27"
     inkscape:window-maximized="1"
     inkscape:current-layer="svg7634" />
  <path
     inkscape:connector-curvature="0"
     style="fill:none;fill-opacity:1;fill-rule:evenodd;stroke:#191919;stroke-width:0.05;stroke-miterlimit:4;stroke-dasharray:none"
     d="m 36.036843,12.81678 -0.04369,-0.02517 -0.17408,-0.09772 -0.34537,-0.18405 -0.67743,-0.32406 -0.65609,-0.26818 -0.63065,-0.21592 -0.60149,-0.16759 -0.56898,-0.12339 -0.53351,-0.0836 -0.49548,-0.04831 -0.45529,-0.01783 -0.41338,0.0079 -0.37016,0.02853 -0.32607,0.04438 -0.28154,0.0551 -0.23701,0.06089 -0.19289,0.06161 -0.14963,0.05761 -0.10762,0.04869 -0.06729,0.03521 -0.02899,0.0173 -3.19189,2.135435 -2.85714,-2.6744 1.92016,-3.32587 0.01531,-0.030085 0.03071,-0.06947 0.0415,-0.110585 0.04758,-0.15309 0.04878,-0.19655 0.04509,-0.2405 0.0364,-0.28457 0.02278,-0.32829 0.004,-0.37123 -0.01937,-0.413 -0.04783,-0.45313 -0.08094,-0.4912 -0.11864,-0.52684 -0.16067,-0.5596 -0.20691,-0.58912 -0.25707,-0.61502 -0.31089,-0.63696 -0.36807,-0.65458 -0.20644,-0.33246 -0.10897,-0.16727 -0.02788,-0.041905 -0.007,-0.0105 -0.0019,-0.002805 -7.45e-4,-9.6e-4 -9.7e-4,-0.00114 -0.74449,-0.17335 -0.0011,4.8e-4 -0.0013,7.8e-4 -0.0031,0.00179 -0.01077,0.005945 -0.04351,0.025455 -0.17166,0.10191 -0.33207,0.20708 -0.61937,0.42464 -0.56029,0.4341 -0.50232,0.4382 -0.44587,0.43712 -0.39136,0.43105 -0.33915,0.42024 -0.28961,0.40492 -0.24308,0.38539 -0.19988,0.36192 -0.16031,0.33488 -0.124608,0.30456 -0.09304,0.27138 -0.0658,0.23569 -0.04305,0.19788 -0.02496,0.15836 -0.01162,0.11756 -0.0031,0.075885 4.35e-4,0.033765 0.253417,3.83196 -3.744683,1.13716 L 12.082796,7.81341 12.064409,7.785105 12.01961,7.723795 11.944578,7.63257 11.835769,7.5148 11.689957,7.37428 11.504214,7.21497 11.275982,7.04117 11.003052,6.85731 10.683604,6.66813 10.316221,6.47847 9.899886,6.29333 9.434021,6.11782 8.918467,5.95712 8.353503,5.81647 7.739848,5.7011 7.078688,5.61621 6.371625,5.567005 5.620704,5.55822 5.229563,5.571025 5.03022,5.58172 l -0.050221,0.0031 -0.012582,8.5e-4 -0.00313,2e-4 -0.00161,9e-5 -0.0013,3.9e-4 L 4.43899,6.14442 4.438699,6.14559 v 0.00196 0.00286 l 9e-6,0.01268 1.95e-4,0.050315 0.00241,0.19962 0.013316,0.39112 0.058063,0.74871 0.095801,0.70227 0.12832,0.65412 0.155625,0.60471 0.177627,0.55446 0.194363,0.50383 0.205873,0.45326 0.212206,0.40321 0.213494,0.35406 0.209856,0.30628 0.201461,0.2602 0.188504,0.21626 0.171211,0.17483 0.149841,0.13622 0.124675,0.10079 0.095991,0.06883 0.06414,0.04071 0.029458,0.01647 3.445308,1.696515 -0.887545,3.81156 -3.840359,2e-5 -0.03371,0.0019 -0.0755,0.008 L 5.622805,18.64074 5.466434,18.6761 5.27182,18.73208 5.040995,18.81329 4.776348,18.92404 4.480668,19.06848 4.157097,19.25053 3.809153,19.47386 3.44065,19.74185 3.055722,20.05754 2.65878,20.42369 2.254496,20.84264 1.84775,21.31638 l -0.404087,0.53015 -0.396169,0.58772 -0.382848,0.64604 -0.184708,0.34502 -0.0903785,0.178 -0.0223675,0.04509 -0.005588,0.01129 -0.001383,0.0029 -6.755e-4,0.0011 -3.88e-4,0.0014 0.222112,0.73161 0.00102,9.7e-4 0.001405,9.7e-4 0.002695,0.0018 0.0109315,0.0059 0.0436635,0.02517 0.174095,0.09771 0.34537,0.18405 0.677437,0.32406 0.656086,0.26818 0.630649,0.21592 0.601492,0.16758 0.568983,0.1234 0.533511,0.08359 0.495472,0.04831 0.455296,0.01784 0.413378,-0.0079 0.370163,-0.02854 0.32607,-0.04439 0.28154,-0.05509 0.237009,-0.06089 0.192889,-0.06166 0.149626,-0.05756 0.107623,-0.04868 0.067281,-0.03522 0.029001,-0.01729 3.1918925,-2.13543 2.857138,2.6744 -1.920165,3.32587 -0.01532,0.03008 -0.0307,0.06947 -0.0415,0.110585 -0.04757,0.15309 -0.04879,0.19653 -0.04509,0.24052 -0.03642,0.28456 -0.02275,0.32829 -0.0041,0.37123 0.01943,0.41301 0.04783,0.45313 0.08094,0.4912 0.118619,0.52684 0.16067,0.5596 0.206909,0.58911 0.257072,0.61503 0.310895,0.63695 0.368063,0.65459 0.206442,0.33245 0.108967,0.16728 0.02785,0.0419 0.007,0.01049 0.0018,0.0028 8.52e-4,9.45e-4 9.61e-4,0.0011 0.744495,0.17336 h 0.0013 l 0.0014,-9.7e-4 0.0027,-0.0018 0.01092,-0.0059 0.04351,-0.02545 0.17166,-0.10191 0.332068,-0.20708 0.619373,-0.42465 0.56029,-0.43409 0.502318,-0.4382 0.445876,-0.43712 0.391355,-0.43106 0.33915,-0.42025 0.28961,-0.40491 0.24308,-0.38539 0.19988,-0.36193 0.16031,-0.33487 0.12461,-0.30455 0.09302,-0.27139 0.06582,-0.23569 0.04303,-0.19787 0.02501,-0.15837 0.01159,-0.11756 0.0031,-0.07588 -3.85e-4,-0.03376 -0.25342,-3.83196 3.74469,-1.13715 1.9202,3.32585 0.01839,0.02829 0.04479,0.0613 0.07502,0.09128 0.10883,0.117715 0.14581,0.14053 0.18574,0.15931 0.22823,0.17381 0.27293,0.18385 0.31945,0.18918 0.36738,0.18966 0.41634,0.18514 0.46586,0.17552 0.51556,0.16069 0.56496,0.14064 0.61366,0.11538 0.66116,0.08489 0.70706,0.04921 0.75092,0.0088 0.39114,-0.01274 0.19934,-0.01074 0.05021,-0.0031 0.0126,-0.0011 h 0.0031 0.0019 9.45e-4 l 0.52254,-0.55807 2.9e-4,-0.0012 v -0.002 -0.0028 -0.01267 l -2e-4,-0.05032 -0.0022,-0.19962 -0.01351,-0.39113 -0.05809,-0.7487 -0.09578,-0.70229 -0.128315,-0.65411 -0.15563,-0.60471 -0.17763,-0.55444 -0.19436,-0.50383 -0.20587,-0.45327 -0.21221,-0.40321 -0.21349,-0.35406 -0.20986,-0.30627 -0.20146,-0.2602 -0.1885,-0.21627 -0.17121,-0.17482 -0.14984,-0.13622 -0.12468,-0.1008 -0.09599,-0.06882 -0.06412,-0.0407 -0.0295,-0.01647 -3.44528,-1.696525 0.88754,-3.8123 3.84036,-2e-5 0.0337,-0.0019 0.0755,-0.008 0.11653,-0.01946 0.15637,-0.03531 0.19461,-0.05604 0.23083,-0.08121 0.26465,-0.11076 0.29568,-0.14443 0.32357,-0.18205 0.34794,-0.22334 0.3685,-0.26799 0.38493,-0.31569 0.39694,-0.36615 0.40429,-0.41894 0.40674,-0.47375 0.40409,-0.53014 0.39617,-0.58772 0.38285,-0.64604 0.18471,-0.34502 0.09038,-0.17801 0.02237,-0.04509 0.0058,-0.01129 9.85e-4,-0.0029 8.75e-4,-0.0011 3.9e-4,-0.0014 -0.22212,-0.73161 -0.001,-9.7e-4 -0.0012,-9.7e-4 -0.003,-0.0018 z"
     id="Shape2DView001_nwe0060"
     sodipodi:nodetypes="ccccccccccccccccccccccccccccccccccccccccccccccccccccccccccccccccccccccccccccccccccccccccccccccccccccccccccccccccccccccccccccccccccccccccccccccccccccccccccccccccccccccccccccccccccccccccccccccccccccccccccccccccccccccccccccccccccccccccccccccccccccccccccccccccccccccccccccccccccccccccccccccccccccccccccccccccccccccccccccccccccccc" />
  <g
     inkscape:groupmode="layer"
     id="layer5"
     inkscape:label="circles"
     style="display:inline">
    <path
       inkscape:connector-curvature="0"
       style="fill:none;fill-opacity:1;fill-rule:evenodd;stroke:#191919;stroke-width:0.05900209;stroke-miterlimit:4;stroke-dasharray:none"
       d="m 21.567073,18.61156 c -1.06e-4,-0.179954 -0.01516,-0.359588 -0.04485,-0.537125 -0.587107,-3.505788 -5.56398,-3.658012 -6.369488,-0.200286 -0.805508,3.457725 3.726256,5.520623 5.802553,2.635256 0.397864,-0.552983 0.611795,-1.216812 0.611785,-1.897845 z"
       id="Shape2DView001_nwe0325"
       sodipodi:nodetypes="ccscc" />
    <path
       inkscape:connector-curvature="0"
       style="fill:none;fill-opacity:1;fill-rule:evenodd;stroke:#191919;stroke-width:0.05;stroke-miterlimit:4;stroke-dasharray:none"
       d="m 15.152735,17.874149 c 0.805508,-3.457726 5.782381,-3.305502 6.369638,0.200211 l -0.56708,2.43502 c -2.076302,2.885392 -6.608066,0.822494 -5.802558,-2.635231 z"
       id="Shape2DView001_nwe0324-7"
       sodipodi:nodetypes="sccs" />
  </g>
</svg>
