<?xml version="1.0" encoding="UTF-8" standalone="no"?>
<!-- Created with Inkscape (http://www.inkscape.org/) -->

<svg
   xmlns:dc="http://purl.org/dc/elements/1.1/"
   xmlns:cc="http://creativecommons.org/ns#"
   xmlns:rdf="http://www.w3.org/1999/02/22-rdf-syntax-ns#"
   xmlns:svg="http://www.w3.org/2000/svg"
   xmlns="http://www.w3.org/2000/svg"
   xmlns:sodipodi="http://sodipodi.sourceforge.net/DTD/sodipodi-0.dtd"
   xmlns:inkscape="http://www.inkscape.org/namespaces/inkscape"
   width="210mm"
   height="297mm"
   viewBox="0 0 210 297"
   version="1.1"
   id="svg8"
   inkscape:version="0.92.5 (2060ec1f9f, 2020-04-08)"
   sodipodi:docname="LouvreSlits.svg">
  <defs
     id="defs2" />
  <sodipodi:namedview
     id="base"
     pagecolor="#ffffff"
     bordercolor="#666666"
     borderopacity="1.0"
     inkscape:pageopacity="0.0"
     inkscape:pageshadow="2"
     inkscape:zoom="2.8"
     inkscape:cx="219.75514"
     inkscape:cy="150.07477"
     inkscape:document-units="mm"
     inkscape:current-layer="layer1"
     showgrid="false"
     inkscape:window-width="1848"
     inkscape:window-height="1016"
     inkscape:window-x="72"
     inkscape:window-y="27"
     inkscape:window-maximized="1" />
  <metadata
     id="metadata5">
    <rdf:RDF>
      <cc:Work
         rdf:about="">
        <dc:format>image/svg+xml</dc:format>
        <dc:type
           rdf:resource="http://purl.org/dc/dcmitype/StillImage" />
        <dc:title></dc:title>
      </cc:Work>
    </rdf:RDF>
  </metadata>
  <g
     inkscape:label="Layer 1"
     inkscape:groupmode="layer"
     id="layer1">
    <path
       style="fill:none;stroke:#000000;stroke-width:0.99560964"
       d="M 106.26172 896.49805 A 112.88802 112.88802 0 0 0 0.49804688 1009.1348 A 112.88802 112.88802 0 0 0 13.738281 1062.0098 L 94.652344 1010.7441 A 18.814671 18.814671 0 0 1 94.570312 1009.1348 A 18.814671 18.814671 0 0 1 106.26172 991.73438 L 106.26172 896.49805 z M 120.50977 896.60352 L 120.50977 991.73047 A 18.814671 18.814671 0 0 1 132.19922 1009.0938 L 217.18555 1053.4609 A 112.88802 112.88802 0 0 0 226.27344 1009.1348 A 112.88802 112.88802 0 0 0 120.50977 896.60352 z M 126.76953 1022.334 A 18.814671 18.814671 0 0 1 113.38672 1027.9492 A 18.814671 18.814671 0 0 1 101.20117 1023.4629 L 21.25 1074.1211 A 112.88802 112.88802 0 0 0 113.38672 1122.0215 A 112.88802 112.88802 0 0 0 210.68555 1066.1406 L 126.76953 1022.334 z "
       transform="scale(0.26458333)"
       id="path3721" />
    <path
       cx="85.989586"
       cy="216.49106"
       r="30"
       id="path3725"
       style="fill:none;stroke:#000000;stroke-width:0.26458332" />
    <path
       cx="85.989586"
       cy="216.49106"
       r="30"
       id="path3727"
       style="fill:none;stroke:#000000;stroke-width:0.26458332" />
  </g>
</svg>
