<?xml version="1.0" encoding="utf-8"?>
<!-- Generator: Adobe Illustrator 25.1.0, SVG Export Plug-In . SVG Version: 6.00 Build 0)  -->
<svg version="1.1" id="Layer_1" xmlns:svg="http://www.w3.org/2000/svg"
	 xmlns="http://www.w3.org/2000/svg" xmlns:xlink="http://www.w3.org/1999/xlink" x="0px" y="0px" viewBox="0 0 158.8 130"
	 style="enable-background:new 0 0 158.8 130;" xml:space="preserve">
<path d="M145.8,2.5H13L2.6,13v103.9L13,127.4h132.7l10.5-10.5V13l-8.8-8.8L145.8,2.5z M143.5,10.9c0-0.1,0-0.1,0-0.2l0.2-0.4
	c0,0,0-0.1,0.1-0.1l0.2-0.2c0,0,0.1-0.1,0.1-0.1l0.4-0.2c0.1,0,0.1,0,0.2,0h0.6c0.1,0,0.1,0,0.2,0l0.4,0.2c0,0,0.1,0,0.1,0.1
	l0.2,0.2c0,0,0.1,0.1,0.1,0.1l0.2,0.4c0,0.1,0,0.1,0,0.2v1.2c0,0.1,0,0.1,0,0.2l-0.2,0.4c0,0,0,0.1-0.1,0.1l-0.2,0.2
	c0,0-0.1,0.1-0.1,0.1l-0.4,0.2c-0.1,0-0.1,0-0.2,0h-0.6c-0.1,0-0.1,0-0.2,0l-0.4-0.2c0,0-0.1-0.1-0.1-0.1l-0.2-0.2
	c0,0-0.1-0.1-0.1-0.1l-0.2-0.4c0-0.1,0-0.1,0-0.2V10.9z M143.7,17.5c-0.2,0.1-0.4,0-0.5-0.2c-0.1-0.2,0-0.5,0.2-0.6l0.3-0.2l0.4-0.4
	l0.4-0.5c0.1-0.2,0.3-0.2,0.5-0.2c0.2,0.1,0.3,0.2,0.3,0.4v3.8h0.8c0.2,0,0.4,0.2,0.4,0.4s-0.2,0.4-0.4,0.4h-2.4
	c-0.2,0-0.4-0.2-0.4-0.4s0.2-0.4,0.4-0.4h0.8v-0.6L143.7,17.5z M141.6,8.5l0.2-0.2c0,0,0,0,0,0c0.1-0.1,0.1-0.1,0.2-0.1h0
	c0,0,0.1,0,0.1,0c0,0,0,0,0,0c0.1,0,0.2,0,0.3,0.1c0,0,0,0,0,0l0.2,0.2c0.1,0.1,0.1,0.2,0.1,0.3s0,0.2-0.1,0.3l-0.2,0.2
	c-0.1,0.1-0.2,0.1-0.3,0.1c0,0,0,0,0,0c0,0,0,0,0,0c0,0,0,0,0,0s0,0,0,0s0,0,0,0c0,0,0,0,0,0c-0.1,0-0.2,0-0.3-0.1l-0.2-0.2
	C141.5,9,141.5,8.7,141.6,8.5z M141.3,32.3h0.2c0.2,0,0.4,0.2,0.4,0.4s-0.2,0.4-0.4,0.4h-2c-0.2,0-0.4-0.2-0.4-0.4v-4.3
	c0-0.2,0.2-0.4,0.4-0.4s0.4,0.2,0.4,0.4v0.9L141.3,32.3z M141.9,20.2c0,0-0.1,0.1-0.1,0.1l-0.4,0.2c-0.1,0-0.1,0-0.2,0h-0.8
	c-0.1,0-0.1,0-0.2,0l-0.4-0.2c0,0-0.1-0.1-0.1-0.1l-0.2-0.2c0,0-0.1-0.1-0.1-0.1l-0.2-0.4c0-0.1,0-0.1,0-0.2v-1c0,0,0,0,0,0v-0.6
	c0,0,0-0.1,0-0.1l0.2-0.8c0,0,0-0.1,0.1-0.1l0.4-0.6l0.3-0.3c0,0,0.1-0.1,0.1-0.1l0.4-0.2c0.1,0,0.1,0,0.2,0h0.8
	c0.2,0,0.4,0.2,0.4,0.4c0,0.2-0.2,0.4-0.4,0.4h-0.4l-0.6,0.8h0.6c0.1,0,0.1,0,0.2,0l0.4,0.2c0,0,0.1,0,0.1,0.1l0.2,0.2
	c0,0,0.1,0.1,0.1,0.1l0.2,0.4c0,0.1,0,0.1,0,0.2v1c0,0.1,0,0.1,0,0.2l-0.2,0.4c0,0,0,0.1-0.1,0.1L141.9,20.2z M142.2,13.3
	c-0.2,0-0.4-0.2-0.4-0.4V10c0-0.2,0.2-0.4,0.4-0.4s0.4,0.2,0.4,0.4v2.8C142.6,13.1,142.4,13.3,142.2,13.3z M139.1,9.6h0.2v-1
	c0-0.2,0.2-0.4,0.4-0.4s0.4,0.2,0.4,0.4v1h0.6c0.2,0,0.4,0.2,0.4,0.4s-0.2,0.4-0.4,0.4h-0.6l0.5,2h0.1c0.2,0,0.4,0.2,0.4,0.4
	s-0.2,0.4-0.4,0.4h-0.4c-0.1,0-0.1,0-0.2,0l-0.4-0.2c-0.1,0-0.2-0.1-0.2-0.2l-0.2-0.4c0-0.1,0-0.1,0-0.2v-1.8h-0.2
	c-0.2,0-0.4-0.2-0.4-0.4S138.9,9.6,139.1,9.6z M138.1,33.1c-0.2,0.1-0.5,0-0.5-0.3l0-0.1h-1.9l0,0.1c-0.1,0.2-0.2,0.3-0.4,0.3
	c0,0-0.1,0-0.1,0c-0.2-0.1-0.3-0.3-0.3-0.5l0.4-1.2c0,0,0,0,0,0l1-3c0.1-0.3,0.7-0.3,0.8,0l1,3c0,0,0,0,0,0l0.4,1.2
	C138.5,32.8,138.4,33,138.1,33.1z M131.9,28.9c-0.2,0-0.4-0.2-0.4-0.4s0.2-0.4,0.4-0.4h2.4c0.2,0,0.4,0.2,0.4,0.4s-0.2,0.4-0.4,0.4
	h-0.8v3.8c0,0.2-0.2,0.4-0.4,0.4s-0.4-0.2-0.4-0.4v-3.8H131.9z M130.4,18.9c-0.2,0-0.4-0.2-0.4-0.4s0.2-0.4,0.4-0.4h3.2
	c0.2,0,0.4,0.2,0.4,0.4s-0.2,0.4-0.4,0.4H130.4z M130.9,28.4v4.3c0,0.2-0.2,0.4-0.4,0.4s-0.4-0.2-0.4-0.4v-4.3
	c0-0.2,0.2-0.4,0.4-0.4S130.9,28.2,130.9,28.4z M135.2,11.9c0-0.1,0-0.1,0-0.2l0.2-0.4c0-0.1,0.1-0.2,0.2-0.2l0.4-0.2
	c0.1,0,0.1,0,0.2,0l-0.2-0.2l-0.1,0c-0.2,0.1-0.5,0-0.6-0.2c-0.1-0.2,0-0.5,0.2-0.6l0.4-0.2c0.1,0,0.1,0,0.2,0h0.8
	c0.1,0,0.1,0,0.2,0l0.4,0.2c0.1,0,0.1,0.1,0.2,0.2l0.2,0.4c0,0.1,0,0.1,0,0.2v2.2c0,0.2-0.2,0.4-0.4,0.4c-0.1,0-0.1,0-0.2-0.1l0,0
	c-0.1,0-0.1,0-0.2,0h-1c-0.1,0-0.1,0-0.2,0l-0.4-0.2c-0.1,0-0.2-0.1-0.2-0.2l-0.2-0.4c0-0.1,0-0.1,0-0.2V11.9z M135.6,17.5
	c-0.2,0.1-0.4,0-0.5-0.2c-0.1-0.2,0-0.5,0.2-0.6l0.3-0.2l0.4-0.4l0.4-0.5c0.1-0.2,0.3-0.2,0.5-0.2c0.2,0.1,0.3,0.2,0.3,0.4v3.8h0.8
	c0.2,0,0.4,0.2,0.4,0.4s-0.2,0.4-0.4,0.4h-2.4c-0.2,0-0.4-0.2-0.4-0.4s0.2-0.4,0.4-0.4h0.8v-0.6L135.6,17.5z M132.8,10
	c0-0.2,0.2-0.4,0.4-0.4c0.1,0,0.3,0.1,0.3,0.2l0.3-0.1c0.1,0,0.1,0,0.2,0h0.4c0.2,0,0.4,0.2,0.4,0.4s-0.2,0.4-0.4,0.4h-0.3l-0.4,0.2
	l-0.1,0.3v1.9c0,0.2-0.2,0.4-0.4,0.4s-0.4-0.2-0.4-0.4V10z M129,11.5C129,11.5,129,11.5,129,11.5v-0.8c0-0.1,0-0.1,0-0.2l0.2-0.4
	c0-0.1,0.1-0.1,0.2-0.2l0.4-0.2c0.1,0,0.1,0,0.2,0h0.8c0.1,0,0.1,0,0.2,0l0.4,0.2c0.1,0,0.1,0.1,0.2,0.2l0.2,0.4c0,0.1,0,0.1,0,0.2
	v0.4c0,0.2-0.1,0.4-0.3,0.4l-1.6,0.3l0.9,0.6l0.2-0.1c0.2-0.1,0.5,0,0.6,0.2c0.1,0.2,0,0.5-0.2,0.6l-0.4,0.2c-0.1,0-0.1,0-0.2,0H130
	c-0.1,0-0.1,0-0.2,0l-0.4-0.2c-0.1,0-0.1-0.1-0.2-0.2l-0.2-0.4c0-0.1,0-0.1,0-0.2V11.5z M128.9,16.9c0.2,0.1,0.3,0.3,0.3,0.5l-1,2.7
	c0,0.1,0,0.2-0.1,0.3l-0.3,0.9c0,0.1-0.1,0.1-0.1,0.1l-0.2,0.2c0,0-0.1,0.1-0.1,0.1l-0.4,0.2c-0.1,0-0.1,0-0.2,0
	c-0.2,0-0.3-0.1-0.4-0.2c-0.1-0.2,0-0.5,0.2-0.6l0.4-0.3l0.3-0.8l-1-2.7c-0.1-0.2,0-0.5,0.3-0.5c0.2-0.1,0.5,0,0.5,0.3l0.6,1.7
	l0.6-1.7C128.5,16.9,128.7,16.8,128.9,16.9z M128.7,30.5c0.2,0,0.4,0.2,0.4,0.4v1.4c0,0.1,0,0.2-0.1,0.3l-0.2,0.2
	c0,0-0.1,0.1-0.2,0.1l-0.6,0.2c0,0-0.1,0-0.1,0h-0.4c0,0-0.1,0-0.1,0l-0.6-0.2c-0.1,0-0.1-0.1-0.2-0.1l-0.4-0.4c0,0-0.1-0.1-0.1-0.1
	l-0.2-0.4l-0.2-0.9c0,0,0-0.1,0-0.1v-0.6c0,0,0-0.1,0-0.1l0.2-0.8l0.2-0.5c0,0,0-0.1,0.1-0.1l0.4-0.4c0,0,0.1-0.1,0.2-0.1l0.6-0.2
	c0,0,0.1,0,0.1,0h0.6c0.1,0,0.1,0,0.2,0l0.4,0.2c0.2,0.1,0.3,0.4,0.2,0.6c-0.1,0.2-0.3,0.3-0.5,0.2l-0.4,1.4H128.7z M125.3,10.5
	C125.3,10.5,125.3,10.5,125.3,10.5V10c0-0.2,0.2-0.4,0.4-0.4c0.1,0,0.2,0,0.3,0.1l0.1-0.1c0.1,0,0.1,0,0.2,0h0.6c0.1,0,0.1,0,0.2,0
	l0.4,0.2c0.1,0,0.1,0.1,0.2,0.2l0.2,0.4c0,0.1,0,0.1,0,0.2v2.2c0,0.2-0.2,0.4-0.4,0.4s-0.4-0.2-0.4-0.4v-0.6l-1-1.3v1.9
	c0,0.2-0.2,0.4-0.4,0.4s-0.4-0.2-0.4-0.4V10.5z M124.7,16.9l0.4,0.2c0.1,0,0.2,0.1,0.2,0.2l0.2,0.4c0,0.1,0,0.1,0,0.2v2.2
	c0,0.2-0.2,0.4-0.4,0.4s-0.4-0.2-0.4-0.4v-0.6l-1-1.3v1.9c0,0.2-0.2,0.4-0.4,0.4s-0.4-0.2-0.4-0.4v-2.4c0,0,0,0,0,0v-0.4
	c0-0.2,0.2-0.4,0.4-0.4c0.1,0,0.2,0,0.3,0.1l0.1-0.1c0.1,0,0.1,0,0.2,0h0.6C124.6,16.9,124.7,16.9,124.7,16.9z M124.7,28.4v4.3
	c0,0.2-0.2,0.4-0.4,0.4s-0.4-0.2-0.4-0.4v-4.3c0-0.2,0.2-0.4,0.4-0.4S124.7,28.2,124.7,28.4z M121.5,11.5
	C121.5,11.5,121.5,11.5,121.5,11.5v-0.8c0-0.1,0-0.1,0-0.2l0.2-0.4c0-0.1,0.1-0.1,0.2-0.2l0.4-0.2c0.1,0,0.1,0,0.2,0h0.8
	c0.1,0,0.1,0,0.2,0l0.4,0.2c0.1,0,0.1,0.1,0.2,0.2l0.2,0.4c0,0.1,0,0.1,0,0.2v0.4c0,0.2-0.1,0.4-0.3,0.4l-1.6,0.3l0.9,0.6l0.2-0.1
	c0.2-0.1,0.5,0,0.6,0.2c0.1,0.2,0,0.5-0.2,0.6l-0.4,0.2c-0.1,0-0.1,0-0.2,0h-0.8c-0.1,0-0.1,0-0.2,0l-0.4-0.2
	c-0.1,0-0.2-0.1-0.2-0.2l-0.2-0.4c0-0.1,0-0.1,0-0.2V11.5z M118.3,17.7c-0.2,0-0.4-0.2-0.4-0.4s0.2-0.4,0.4-0.4h0.2v-1
	c0-0.2,0.2-0.4,0.4-0.4s0.4,0.2,0.4,0.4v1h0.6c0.2,0,0.4,0.2,0.4,0.4s-0.2,0.4-0.4,0.4h-0.6l0.5,2h0.1c0.2,0,0.4,0.2,0.4,0.4
	s-0.2,0.4-0.4,0.4h-0.4c-0.1,0-0.1,0-0.2,0l-0.4-0.2c-0.1,0-0.2-0.1-0.2-0.2l-0.2-0.4c0-0.1,0-0.1,0-0.2v-1.8H118.3z M119.6,28.4
	c0-0.2,0.2-0.4,0.4-0.4h1c0,0,0.1,0,0.1,0l0.6,0.2c0.1,0,0.1,0.1,0.2,0.1l0.4,0.4c0,0,0.1,0.1,0.1,0.1l0.2,0.4l0.2,0.9
	c0,0,0,0.1,0,0.1v0.6c0,0,0,0.1,0,0.1l-0.2,0.8l-0.2,0.5c0,0,0,0.1-0.1,0.1l-0.4,0.4c0,0-0.1,0.1-0.2,0.1l-0.6,0.2c0,0-0.1,0-0.1,0
	h-1c-0.2,0-0.4-0.2-0.4-0.4V28.4z M120.9,20.1v-2.8c0-0.2,0.2-0.4,0.4-0.4s0.4,0.2,0.4,0.4v2.8c0,0.2-0.2,0.4-0.4,0.4
	S120.9,20.3,120.9,20.1z M121,15.6C121,15.5,121,15.5,121,15.6C121,15.5,121,15.5,121,15.6C121,15.5,121,15.5,121,15.6
	c0.1-0.1,0.2-0.1,0.2-0.1h0c0,0,0.1,0,0.1,0c0.1,0,0.2,0,0.3,0.1l0.2,0.2c0.2,0.2,0.2,0.4,0,0.6l-0.2,0.2c0,0,0,0,0,0c0,0,0,0,0,0
	c0,0-0.1,0.1-0.1,0.1c-0.1,0-0.1,0-0.2,0c-0.1,0-0.1,0-0.2,0c0,0-0.1,0-0.1-0.1v0c0,0,0,0,0,0l-0.2-0.2c-0.1-0.1-0.1-0.2-0.1-0.3
	c0-0.1,0-0.2,0.1-0.3L121,15.6z M117.2,10.5c0,0,0-0.1,0-0.1l0.2-0.8l0.2-0.5c0,0,0-0.1,0.1-0.1l0.4-0.4c0,0,0.1-0.1,0.2-0.1
	l0.6-0.2c0,0,0.1,0,0.1,0h0.6c0.1,0,0.1,0,0.2,0l0.4,0.2c0.2,0.1,0.3,0.4,0.2,0.6c-0.1,0.2-0.3,0.3-0.5,0.2l-0.4,1.4h0.7
	c0.2,0,0.4,0.2,0.4,0.4v1.4c0,0.1,0,0.2-0.1,0.3l-0.2,0.2c0,0-0.1,0.1-0.2,0.1l-0.6,0.2c0,0-0.1,0-0.1,0h-0.4c0,0-0.1,0-0.1,0
	l-0.6-0.2c-0.1,0-0.1-0.1-0.2-0.1l-0.4-0.4c0,0-0.1-0.1-0.1-0.1l-0.2-0.4l-0.2-0.9c0,0,0-0.1,0-0.1V10.5z M116.8,18.1
	c0.2,0,0.4,0.2,0.4,0.4s-0.2,0.4-0.4,0.4h-3.2c-0.2,0-0.4-0.2-0.4-0.4s0.2-0.4,0.4-0.4H116.8z M110.8,9.6c0.2-0.1,0.5,0,0.5,0.3
	l0.6,1.7l0.6-1.7c0.1-0.2,0.3-0.3,0.5-0.3c0.2,0.1,0.3,0.3,0.3,0.5l-1,2.7c0,0.1,0,0.2-0.1,0.3l-0.3,0.9c0,0.1-0.1,0.1-0.1,0.1
	l-0.2,0.2c0,0-0.1,0.1-0.1,0.1l-0.4,0.2c-0.1,0-0.1,0-0.2,0c-0.2,0-0.3-0.1-0.4-0.2c-0.1-0.2,0-0.5,0.2-0.6l0.4-0.3l0.3-0.8l-1-2.7
	C110.5,10,110.6,9.7,110.8,9.6z M109.8,16.3c-0.2,0-0.4-0.2-0.4-0.4c0-0.2,0.2-0.4,0.4-0.4h2.4c0.2,0,0.4,0.2,0.4,0.4
	c0,0.2-0.2,0.4-0.4,0.4h-0.8v3.8c0,0.2-0.2,0.4-0.4,0.4s-0.4-0.2-0.4-0.4v-3.8H109.8z M109.1,20.5c-0.2,0.1-0.5,0-0.5-0.3l0-0.1
	h-1.9l0,0.1c-0.1,0.2-0.2,0.3-0.4,0.3c0,0-0.1,0-0.1,0c-0.2-0.1-0.3-0.3-0.3-0.5l1.4-4.3c0.1-0.3,0.7-0.3,0.8,0l1,3c0,0,0,0,0,0
	l0.4,1.2C109.4,20.2,109.3,20.4,109.1,20.5z M106.9,10.9c0-0.1,0-0.1,0-0.2l0.2-0.4c0,0,0-0.1,0.1-0.1l0.2-0.2c0,0,0.1-0.1,0.1-0.1
	l0.4-0.2c0.1,0,0.1,0,0.2,0h0.8c0.1,0,0.1,0,0.2,0l0,0c0.1,0,0.1-0.1,0.2-0.1c0.2,0,0.4,0.2,0.4,0.4v3.4c0,0.1,0,0.1,0,0.2l-0.2,0.4
	c0,0,0,0.1-0.1,0.1l-0.2,0.2c0,0-0.1,0.1-0.1,0.1l-0.4,0.2c-0.1,0-0.1,0-0.2,0h-0.6c-0.1,0-0.1,0-0.2,0l-0.4-0.2
	c-0.2-0.1-0.3-0.4-0.2-0.6c0.1-0.2,0.3-0.3,0.6-0.2l0.2-0.5l-0.4-0.2c0,0-0.1-0.1-0.1-0.1l-0.2-0.2c0,0-0.1-0.1-0.1-0.1l-0.2-0.4
	c0-0.1,0-0.1,0-0.2V10.9z M104.5,10c0-0.2,0.2-0.4,0.4-0.4c0.1,0,0.3,0.1,0.3,0.2l0.3-0.1c0.1,0,0.1,0,0.2,0h0.4
	c0.2,0,0.4,0.2,0.4,0.4s-0.2,0.4-0.4,0.4h-0.3l-0.4,0.2l-0.1,0.3v1.9c0,0.2-0.2,0.4-0.4,0.4s-0.4-0.2-0.4-0.4V10z M100.6,11.5
	C100.6,11.5,100.6,11.5,100.6,11.5v-0.8c0-0.1,0-0.1,0-0.2l0.2-0.4c0-0.1,0.1-0.2,0.2-0.2l0.4-0.2c0.1,0,0.1,0,0.2,0h0.8
	c0.1,0,0.1,0,0.2,0l0.4,0.2c0.1,0,0.1,0.1,0.2,0.2l0.2,0.4c0,0.1,0,0.1,0,0.2v0.4c0,0.2-0.1,0.4-0.3,0.4l-1.6,0.3l0.9,0.6l0.2-0.1
	c0.2-0.1,0.5,0,0.6,0.2c0.1,0.2,0,0.5-0.2,0.6l-0.4,0.2c-0.1,0-0.1,0-0.2,0h-0.8c-0.1,0-0.1,0-0.2,0l-0.4-0.2
	c-0.1,0-0.2-0.1-0.2-0.2l-0.2-0.4c0-0.1,0-0.1,0-0.2V11.5z M97,10c0-0.2,0.2-0.4,0.4-0.4c0.1,0,0.2,0,0.3,0.1l0.1-0.1
	c0.1,0,0.1,0,0.2,0h0.6c0.1,0,0.1,0,0.2,0l0.4,0.2c0.1,0,0.1,0.1,0.2,0.2l0.2,0.4c0,0.1,0,0.1,0,0.2v2.2c0,0.2-0.2,0.4-0.4,0.4
	c-0.2,0-0.4-0.2-0.4-0.4v-0.6l-1-1.3v1.9c0,0.2-0.2,0.4-0.4,0.4S97,13.1,97,12.9V10z M93.1,8.6c0-0.2,0.2-0.4,0.4-0.4h2
	c0.2,0,0.4,0.2,0.4,0.4s-0.2,0.4-0.4,0.4h0v3.4h0c0.2,0,0.4,0.2,0.4,0.4s-0.2,0.4-0.4,0.4h-2c-0.2,0-0.4-0.2-0.4-0.4V8.6z M25.7,5.5
	c0.2-0.1,0.4,0,0.4,0.2l0,0.1h1.1l0-0.1c0.1-0.2,0.3-0.3,0.4-0.2C28,5.5,28.1,5.7,28,5.9l-0.9,2.8c0,0.1-0.2,0.2-0.3,0.2h0
	c-0.2,0-0.3-0.1-0.3-0.2l-1-2.8C25.4,5.7,25.5,5.5,25.7,5.5z M23,6.4c0-0.1,0-0.1,0-0.2l0.1-0.3c0,0,0-0.1,0.1-0.1l0.1-0.1
	c0,0,0.1,0,0.1-0.1l0.3-0.1c0,0,0.1,0,0.2,0h0.5c0.1,0,0.1,0,0.2,0l0.3,0.1c0,0,0.1,0,0.1,0.1l0.1,0.1c0,0,0.1,0.1,0.1,0.1l0.1,0.3
	c0,0,0,0.1,0,0.2V7c0,0,0,0,0,0v0.4l-0.1,0.6c0,0,0,0.1,0,0.1l-0.3,0.4l-0.2,0.2c0,0-0.1,0-0.1,0.1L24.4,9c0,0-0.1,0-0.2,0h-0.5
	c-0.2,0-0.4-0.2-0.4-0.4s0.2-0.4,0.4-0.4H24l0.3-0.4h-0.3c-0.1,0-0.1,0-0.2,0l-0.3-0.1c0,0-0.1,0-0.1-0.1l-0.1-0.1
	c0,0,0-0.1-0.1-0.1l-0.1-0.3c0,0,0-0.1,0-0.2V6.4z M17.6,18.2C17.6,18.2,17.6,18.2,17.6,18.2c0-0.1,0-0.2,0-0.2
	c0-0.1,0.1-0.1,0.1-0.2c0,0,0,0,0,0l3.6-3.6c0,0,0,0,0,0c0.1,0,0.1-0.1,0.2-0.1c0.1,0,0.1,0,0.2,0h0v-1.2H29v1l3.2-3.2c0,0,0,0,0,0
	c0.1,0,0.1-0.1,0.2-0.1c0.1,0,0.1,0,0.2,0h28.1c0.1,0,0.1,0,0.2,0c0.1,0,0.1,0.1,0.2,0.1c0,0,0,0,0,0l2.6,2.6h4.2v4.3h-5.7v-4.2
	l-1.7-1.7H32.8L29.4,15c0,0,0,0,0,0c-0.1,0-0.1,0.1-0.2,0.1c-0.1,0-0.1,0-0.2,0v1.2h-7.2v-1l-3,3v10.3l3,3v-1H29v3.6h-7.2v-1.2h0
	c-0.1,0-0.1,0-0.2,0c-0.1,0-0.1-0.1-0.2-0.1c0,0,0,0,0,0l-3.6-3.6c0,0,0,0,0,0c0-0.1-0.1-0.1-0.1-0.2c0-0.1,0-0.1,0-0.2c0,0,0,0,0,0
	V18.2z M8.3,14.8c0-0.1,0-0.1,0-0.2l0.2-0.4C8.6,14,8.9,14,9.1,14.1c0.2,0.1,0.3,0.3,0.2,0.5l1.4,0.4v-0.7c0-0.2,0.2-0.4,0.4-0.4
	h1.4c0.1,0,0.2,0,0.3,0.1l0.2,0.2c0,0,0.1,0.1,0.1,0.2l0.2,0.6c0,0,0,0.1,0,0.1v0.4c0,0,0,0.1,0,0.1l-0.2,0.6c0,0.1-0.1,0.1-0.1,0.2
	l-0.4,0.4c0,0-0.1,0.1-0.1,0.1L12.1,17l-0.9,0.2c0,0-0.1,0-0.1,0h-0.6c0,0-0.1,0-0.1,0l-0.8-0.2l-0.5-0.2c0,0-0.1,0-0.1-0.1
	l-0.4-0.4c0,0-0.1-0.1-0.1-0.2l-0.2-0.6c0,0,0-0.1,0-0.1V14.8z M8.3,19.5c0-0.1,0-0.1,0-0.2l0.2-0.4c0,0,0-0.1,0.1-0.1L9,18.4
	c0.1-0.1,0.1-0.1,0.2-0.1l0.8-0.2c0,0,0.1,0,0.1,0h1.4c0,0,0.1,0,0.1,0l0.8,0.2c0.1,0,0.1,0.1,0.2,0.1l0.4,0.4c0,0,0.1,0.1,0.1,0.1
	l0.2,0.4c0,0.1,0,0.1,0,0.2v0.8c0,0.1,0,0.1,0,0.2l-0.2,0.4c0,0,0,0.1-0.1,0.1l-0.4,0.4c-0.1,0.1-0.1,0.1-0.2,0.1l-0.8,0.2
	c0,0-0.1,0-0.1,0h-1.4c0,0-0.1,0-0.1,0l-0.8-0.2c-0.1,0-0.1-0.1-0.2-0.1L8.6,21c0,0-0.1-0.1-0.1-0.1l-0.2-0.4c0-0.1,0-0.1,0-0.2
	V19.5z M8.7,24.1h0.9l2.9-1.4v-0.2c0-0.2,0.2-0.4,0.4-0.4s0.4,0.2,0.4,0.4v2c0,0.2-0.2,0.4-0.4,0.4H8.7c-0.2,0-0.4-0.2-0.4-0.4
	S8.4,24.1,8.7,24.1z M8.6,27l3-1c0,0,0,0,0,0l1.2-0.4c0.2-0.1,0.5,0,0.5,0.3c0.1,0.2,0,0.5-0.3,0.5l-0.1,0v1.9l0.1,0
	c0.2,0.1,0.3,0.3,0.3,0.5c-0.1,0.2-0.2,0.3-0.4,0.3c0,0-0.1,0-0.1,0l-4.2-1.4c-0.2-0.1-0.3-0.2-0.3-0.4S8.4,27.1,8.6,27z M8.7,29.8
	h4.2c0.2,0,0.4,0.1,0.4,0.3c0,0.2,0,0.4-0.2,0.5l-1.9,1.1l1,0.5h0.7c0.2,0,0.4,0.2,0.4,0.4s-0.2,0.4-0.4,0.4H8.7
	c-0.2,0-0.4-0.1-0.4-0.3c0-0.2,0-0.4,0.2-0.5l1.9-1.1l-1-0.5H8.7c-0.2,0-0.4-0.2-0.4-0.4S8.4,29.8,8.7,29.8z M8.3,35.5
	c0-0.2,0.1-0.3,0.3-0.4l3-1c0,0,0,0,0,0l1.2-0.4c0.2-0.1,0.5,0,0.5,0.3c0.1,0.2,0,0.5-0.3,0.5l-0.1,0v1.9l0.1,0
	c0.2,0.1,0.3,0.3,0.3,0.5c-0.1,0.2-0.2,0.3-0.4,0.3c0,0-0.1,0-0.1,0l-4.2-1.4C8.4,35.8,8.3,35.7,8.3,35.5z M14.7,118.9h-0.2
	l-0.6,1.2h0.2c0.2,0,0.4,0.2,0.4,0.4s-0.2,0.4-0.4,0.4h-0.6l-0.4,0.9v0.9c0,0.2-0.2,0.4-0.4,0.4s-0.4-0.2-0.4-0.4v-4.3
	c0-0.2,0.2-0.4,0.4-0.4h2c0.2,0,0.4,0.2,0.4,0.4S14.9,118.9,14.7,118.9z M18.1,118.9h-0.8v3.8c0,0.2-0.2,0.4-0.4,0.4
	s-0.4-0.2-0.4-0.4v-3.8h-0.8c-0.2,0-0.4-0.2-0.4-0.4s0.2-0.4,0.4-0.4h2.4c0.2,0,0.4,0.2,0.4,0.4S18.3,118.9,18.1,118.9z M22.4,120.9
	c0,0,0,0.1,0,0.1l-0.2,0.8l-0.2,0.5c0,0,0,0.1-0.1,0.1l-0.4,0.4c0,0-0.1,0.1-0.2,0.1l-0.6,0.2c0,0-0.1,0-0.1,0h-1
	c-0.2,0-0.4-0.2-0.4-0.4v-4.3c0-0.2,0.2-0.4,0.4-0.4h1c0,0,0.1,0,0.1,0l0.6,0.2c0.1,0,0.1,0.1,0.2,0.1l0.4,0.4c0,0,0.1,0.1,0.1,0.1
	l0.2,0.4l0.2,0.9c0,0,0,0.1,0,0.1V120.9z M24.2,122.7c0,0.2-0.2,0.4-0.4,0.4s-0.4-0.2-0.4-0.4v-4.3c0-0.2,0.2-0.4,0.4-0.4
	s0.4,0.2,0.4,0.4V122.7z M108.2,121.9c0,0.1,0,0.1,0,0.2l-0.2,0.4c0,0,0,0.1-0.1,0.1l-0.2,0.2c0,0-0.1,0.1-0.1,0.1l-0.4,0.2
	c-0.1,0-0.1,0-0.2,0h-0.8c-0.1,0-0.1,0-0.2,0l-0.4-0.2c0,0-0.1-0.1-0.1-0.1l-0.2-0.2c0,0-0.1-0.1-0.1-0.1l-0.2-0.4
	c0-0.1,0-0.1,0-0.2v-3.4c0-0.2,0.2-0.4,0.4-0.4c0.2,0,0.4,0.2,0.4,0.4h1.6c0-0.2,0.2-0.4,0.4-0.4c0.2,0,0.4,0.2,0.4,0.4V121.9z
	 M112.6,119.9c0,0.1,0,0.1,0,0.2l-0.2,0.4c0,0,0,0.1-0.1,0.1l-0.2,0.2c0,0-0.1,0.1-0.1,0.1l-0.4,0.2c-0.1,0-0.1,0-0.2,0h-1.2v1.6
	c0,0.2-0.2,0.4-0.4,0.4s-0.4-0.2-0.4-0.4v-4.3c0-0.2,0.2-0.4,0.4-0.4h1.6c0.1,0,0.1,0,0.2,0l0.4,0.2c0,0,0.1,0,0.1,0.1l0.2,0.2
	c0,0,0.1,0.1,0.1,0.1l0.2,0.4c0,0.1,0,0.1,0,0.2V119.9z M116.9,120.9c0,0,0,0.1,0,0.1l-0.2,0.8l-0.2,0.5c0,0,0,0.1-0.1,0.1l-0.4,0.4
	c0,0-0.1,0.1-0.2,0.1l-0.6,0.2c0,0-0.1,0-0.1,0h-1c-0.2,0-0.4-0.2-0.4-0.4v-4.3c0-0.2,0.2-0.4,0.4-0.4h1c0,0,0.1,0,0.1,0l0.6,0.2
	c0.1,0,0.1,0.1,0.2,0.1l0.4,0.4c0,0,0.1,0.1,0.1,0.1l0.2,0.4l0.2,0.9c0,0,0,0.1,0,0.1V120.9z M118.7,122.7c0,0.2-0.2,0.4-0.4,0.4
	s-0.4-0.2-0.4-0.4v-4.3c0-0.2,0.2-0.4,0.4-0.4s0.4,0.2,0.4,0.4V122.7z M129.8,102.8h-3v3.1v2.3c0,0,0,0,0,0.1c0,0.1,0,0.1,0,0.2
	c0,0.1-0.1,0.1-0.1,0.2c0,0,0,0,0,0l-7.2,7.2c-0.1,0.1-0.1,0.1-0.2,0.1c-0.1,0-0.1,0-0.2,0H93.8c-0.1,0-0.1,0-0.2,0
	c-0.1,0-0.1-0.1-0.2-0.1l-2.7-2.7c0,0.1-0.1,0.1-0.1,0.2l-2.5,2.5c-0.1,0.1-0.1,0.1-0.2,0.1c-0.1,0-0.1,0-0.2,0H68.6
	c-0.1,0-0.1,0-0.2,0c-0.1,0-0.1-0.1-0.2-0.1l-2.7-2.7c0,0.1-0.1,0.1-0.1,0.2l-2.8,2.8c0,0,0,0,0,0c0,0-0.1,0.1-0.2,0.1
	c-0.1,0-0.1,0-0.2,0H24.3c-0.1,0-0.1,0-0.2,0c-0.1,0-0.1-0.1-0.2-0.1l-6.1-6.1c-0.1-0.1-0.1-0.1-0.1-0.2c0-0.1,0-0.1,0-0.2
	c0,0,0,0,0,0v-23c0,0,0,0,0,0c0-0.1,0-0.1,0-0.2c0-0.1,0.1-0.1,0.1-0.2L21,83l-3.2-3.2c-0.1-0.1-0.1-0.1-0.1-0.2c0-0.1,0-0.1,0-0.2
	c0,0,0,0,0,0V42.2c0,0,0,0,0,0c0-0.1,0-0.1,0-0.2c0-0.1,0.1-0.1,0.1-0.2c0,0,0,0,0,0l2.5-2.5c0,0,0,0,0,0c0,0,0.1-0.1,0.2-0.1
	c0.1,0,0.1,0,0.2,0h1.1V38H29v1.2h7l3.3-3.3v-3.4V15.1h-2.8l-7,7c0,0,0,0,0,0c-0.1,0-0.1,0.1-0.2,0.1c-0.1,0-0.1,0-0.2,0v1.2h-7.2
	V20H29v1l6.8-6.8c0,0,0,0,0,0c0.1,0,0.1-0.1,0.2-0.1c0.1,0,0.1,0,0.2,0h18c0.1,0,0.1,0,0.2,0c0.1,0,0.1,0.1,0.2,0.1c0,0,0,0,0,0
	l3.6,3.6c0,0,0,0,0,0c0,0.1,0.1,0.1,0.1,0.2c0,0.1,0,0.1,0,0.2c0,0,0,0,0,0v7l2.6,2.6h1.2v-1.6h5.7v1.6h21.7h14.4c0,0,0,0,0,0
	c0.1,0,0.1,0,0.2,0c0.1,0,0.1,0.1,0.2,0.1c0,0,0,0,0,0l0.7,0.7c0,0,0,0,0,0c0,0,0.1,0.1,0.1,0.1c0,0,0,0.1,0,0.1c0,0,0,0.1,0,0.1v7
	l3.3,3.3h35.8c0.1,0,0.1,0,0.2,0c0.1,0,0.1,0.1,0.2,0.1c0,0,0,0,0,0l3.6,3.6c0,0,0,0,0,0c0,0.1,0.1,0.1,0.1,0.2c0,0,0,0.1,0,0.1
	c0,0,0,0,0,0.1v19.3c0,0,0,0.1,0,0.1c0,0,0,0.1,0,0.1c0,0.1-0.1,0.1-0.1,0.2l-9.5,9.5c-0.1,0.1-0.1,0.1-0.2,0.1c-0.1,0-0.1,0-0.2,0
	h-8.5V74h-7.2v-3.6h7.2v1.2h8.2l9.2-9.2V43.6l-3.3-3.3h-35.8c-0.1,0-0.1,0-0.2,0c-0.1,0-0.1-0.1-0.2-0.1l-3.6-3.6
	c-0.1-0.1-0.1-0.1-0.1-0.2c0,0,0-0.1,0-0.1c0,0,0-0.1,0-0.1v-7l-0.3-0.4H90.1v13.6l1.7,1.7h4.4v2.3h11.3c0,0,0,0,0-0.1
	c0.2-0.2,0.6-0.2,0.8,0l0.1,0.1h13.1v-1.2h7.2v3.6h-3v3.6h3V56h-3v3.6h3v3.6h-7.2v-3.6h3V56h-3v-3.6h3v-3.6h-3v-1.2h-13.3h-12v2.3
	h-4.8v-4.4l-2.3-2.3c0,0,0,0,0,0c0,0-0.1-0.1-0.1-0.2c0-0.1,0-0.1,0-0.2c0,0,0,0,0,0v0c0,0,0,0,0,0V28.9H67.8v1.6h-2.3v17.7h0.7V50
	h2.3c0.1,0,0.1,0,0.2,0c0.1,0,0.1,0.1,0.2,0.1c0,0,0,0,0,0l7.6,7.6H77v-2.3h4.8v5.7H77v-2.3h-0.7c-0.1,0-0.1,0-0.2,0
	c-0.1,0-0.1-0.1-0.2-0.1c0,0,0,0,0,0l-7.6-7.6h-2.1V53H64v6.8l0.7,0.7h2.9v1.7H62v-1.7h1.2l-0.1-0.1C63,60.4,63,60.3,63,60.2
	c0-0.1,0-0.1,0-0.2c0,0,0,0,0,0v-7h-2.3v-4.8h3.8V30.4h-2.3v-1.6h-1.4c-0.1,0-0.1,0-0.2,0c-0.1,0-0.1-0.1-0.2-0.1c0,0,0,0,0,0
	l-2.9-2.9c0,0,0,0,0,0c-0.1-0.1-0.1-0.1-0.1-0.2c0-0.1,0-0.1,0-0.2c0,0,0,0,0,0v-7L54,15.1H40.4v17.4v3.6c0,0,0,0,0,0
	c0,0.1,0,0.1,0,0.2c0,0.1-0.1,0.1-0.1,0.2c0,0,0,0,0,0l-3.6,3.6c0,0,0,0,0,0c-0.1,0-0.1,0.1-0.2,0.1c-0.1,0-0.1,0-0.2,0H29v1.2h-7.2
	v-1.2h-0.9l-2.1,2.1v36.7l3,3v-1H29v3.6h-7.2v-1l-3,3v22.5l5.8,5.8h37.4l2.5-2.5v-0.8v-0.1h-1.8v-7.1h4.8v7.1h-1.7l3.1,3.1h18.6
	l2.2-2.2v-0.8v-0.1h-1.8v-7.1h4.8v7.1H91l3.1,3.1h24.7l6.9-6.9v-2v-3.1h-3v-3.6h7.2V102.8z M31.1,36c0.1,0,0.2,0.1,0.2,0.2V37
	c0,0.1,0,0.1-0.1,0.1l-0.1,0.1c0,0-0.1,0-0.1,0.1l-0.3,0.1c0,0,0,0-0.1,0h-0.2c0,0,0,0-0.1,0l-0.3-0.1c0,0-0.1,0-0.1-0.1L29.8,37
	c0,0,0,0,0-0.1l-0.1-0.2l-0.1-0.5l0-0.4l0.1-0.5l0.1-0.3c0,0,0,0,0-0.1l0.2-0.2c0,0,0.1,0,0.1-0.1l0.3-0.1c0,0,0,0,0.1,0h0.3
	c0,0,0.1,0,0.1,0l0.2,0.1c0.1,0.1,0.1,0.2,0.1,0.3c0,0.1-0.1,0.1-0.2,0.1L30.7,36H31.1z M30.5,30.1c0,0.1-0.1,0.1-0.2,0.1
	s-0.2-0.1-0.2-0.1l-0.8-2.3c0-0.1,0-0.2,0.1-0.3c0.1,0,0.2,0,0.3,0.1l0,0.1h1.1l0-0.1c0-0.1,0.2-0.2,0.3-0.1c0.1,0,0.2,0.2,0.1,0.3
	L30.5,30.1z M33.2,29.5L33,29.8c0,0,0,0,0,0.1L32.8,30c0,0-0.1,0-0.1,0.1l-0.3,0.1c0,0,0,0-0.1,0h-0.5c-0.1,0-0.2-0.1-0.2-0.2v-2.3
	c0-0.1,0.1-0.2,0.2-0.2h0.5c0,0,0,0,0.1,0l0.3,0.1c0,0,0.1,0,0.1,0.1l0.2,0.2c0,0,0,0,0,0.1l0.1,0.2l0.1,0.5l0,0.4L33.2,29.5z
	 M33.4,34.7c0.1,0,0.2,0.1,0.2,0.2v2.3c0,0.1-0.1,0.2-0.2,0.2c0,0,0,0-0.1,0c-0.1,0-0.1,0-0.2-0.1l-0.6-1l-0.3,0.5v0.4
	c0,0.1-0.1,0.2-0.2,0.2s-0.2-0.1-0.2-0.2v-2.3c0-0.1,0.1-0.2,0.2-0.2c0.1,0,0.2,0,0.2,0.1l0.6,1l0.3-0.5v-0.4
	C33.2,34.8,33.3,34.7,33.4,34.7z M35.3,29.6l-0.1,0.3c0,0,0,0,0,0.1L35.1,30c0,0,0,0-0.1,0l-0.2,0.1c0,0-0.1,0-0.1,0h-0.2
	c0,0-0.1,0-0.1,0l-0.2-0.1c0,0,0,0-0.1,0L34,29.9c0,0,0,0,0-0.1l-0.1-0.2l-0.1-0.5l0-0.6l0.1-0.5l0.1-0.3c0,0,0,0,0-0.1l0.1-0.1
	c0,0,0,0,0.1,0l0.2-0.1c0,0,0.1,0,0.1,0h0.2c0,0,0.1,0,0.1,0l0.2,0.1c0,0,0,0,0.1,0l0.1,0.1c0,0,0,0,0,0.1l0.1,0.2l0.1,0.5l0,0.6
	L35.3,29.6z M35.5,34.9l0.2,0.2c0,0,0,0,0,0.1l0.1,0.2l0.1,0.5l0,0.4l-0.1,0.5L35.7,37c0,0,0,0,0,0.1l-0.2,0.2c0,0-0.1,0-0.1,0.1
	l-0.3,0.1c0,0,0,0-0.1,0h-0.5c-0.1,0-0.2-0.1-0.2-0.2v-2.3c0-0.1,0.1-0.2,0.2-0.2H35c0,0,0,0,0.1,0L35.5,34.9
	C35.4,34.8,35.5,34.9,35.5,34.9z M100.3,69.2H72.5l-3.3,3.3c-0.1,0.1-0.1,0.1-0.2,0.1c-0.1,0-0.1,0-0.2,0h-1.1V73H62v-1.7h5.7v0.3
	h0.9l3.3-3.3c0.1-0.1,0.1-0.1,0.2-0.1c0.1,0,0.1,0,0.2,0h28.3c0,0,0,0,0,0c0.1,0,0.1,0,0.2,0c0.1,0,0.1,0.1,0.2,0.1l1.6,1.6h4.1
	l1.6-1.6c0,0,0,0,0,0c0,0,0.1-0.1,0.2-0.1c0,0,0.1,0,0.1,0c0,0,0,0,0.1,0h24.4l4.9-4.9h-1v-3.6h7.2v3.6h-4.6l-5.9,5.9
	c-0.1,0.1-0.1,0.1-0.2,0.1c-0.1,0-0.1,0-0.2,0h-24.4l-1.9,1.9v4.5h-4.8v-4.4L100.3,69.2z M61.5,76.3l-3.1,3.1v10.5l7.8,7.8h28.6
	c0.1,0,0.1,0,0.2,0c0.1,0,0.1,0.1,0.2,0.1l2.7,2.7c0.1,0.1,0.1,0.1,0.1,0.2c0,0.1,0,0.1,0,0.2c0,0,0,0,0,0v0c0,0,0,0,0,0v3.7h1.8
	v7.1H95v-7.1h1.8v-3.4l-2.3-2.3H65.9c-0.1,0-0.1,0-0.2,0c-0.1,0-0.1-0.1-0.2-0.1c0,0,0,0,0,0l-8.1-8.1c0,0,0,0,0,0
	c0,0-0.1-0.1-0.1-0.2c0-0.1,0-0.1,0-0.2v0v-11v0c0-0.1,0-0.1,0-0.2c0-0.1,0.1-0.1,0.1-0.2l3.4-3.4c0.1-0.1,0.1-0.1,0.2-0.1
	c0.1,0,0.1,0,0.2,0H62v-0.3h5.7v1.7H62v-0.3H61.5z M79.2,101.5H65c-0.1,0-0.1,0-0.2,0c-0.1,0-0.1-0.1-0.2-0.1L54.2,91l-3,3v7v3.6
	c0,0,0,0,0,0.1H53v7.1h-4.8v-7.1h1.9c0,0,0,0,0-0.1V101v-7.2c0,0,0,0,0,0c0-0.1,0-0.1,0-0.2c0-0.1,0.1-0.1,0.1-0.2c0,0,0,0,0,0
	l3.6-3.6c0,0,0,0,0,0l1.2-1.2V54.2L53.8,53h-1v6.9c0,0,0,0,0,0c0,0.1,0,0.1,0,0.2c0,0.1-0.1,0.1-0.1,0.2l-0.3,0.3h1.4v1.7H48v-1.7
	h2.7l0.9-0.9V53h-2.3v-3.2l-2.3-2.3c0,0,0,0,0,0H29v1.2h-7.2v-3.6H29v1.2h17.6V27.2h-2.3V16.4H50v10.8h-2.3v19.4l1.6,1.6v0H55v4.4
	l1,1c0,0,0,0,0,0c0,0.1,0.1,0.1,0.1,0.2c0,0.1,0,0.1,0,0.2c0,0,0,0,0,0v34.9c0,0,0,0,0,0c0,0.1,0,0.1,0,0.2c0,0.1-0.1,0.1-0.1,0.2
	L55,90.2l10.2,10.2h14.2c0,0,0,0,0,0c0.1,0,0.1,0,0.2,0c0.1,0,0.1,0.1,0.2,0.1l3.6,3.6c0.1,0.1,0.1,0.1,0.1,0.2c0,0.1,0,0.1,0,0.2
	c0,0,0,0,0,0v0.1h1.8v7.1h-4.8v-7.1h1.7L79.2,101.5z M60.2,104.6v7.1h-4.8v-7.1H60.2z M36.9,53.6c0.1,0,0.1,0,0.2,0
	c0.1,0,0.1,0.1,0.2,0.1c0,0,0,0,0,0l10.6,10.6H48v-0.3h5.7v1.7H48v-0.3h-0.3c-0.1,0-0.1,0-0.2,0c-0.1,0-0.1-0.1-0.2-0.1L36.6,54.7
	H29V56h-7.2v-3.6H29v1.2H36.9z M29.3,51.5l0.8-2.3c0.1-0.2,0.3-0.2,0.4,0l0.8,2.3c0,0.1,0,0.2-0.1,0.3c0,0,0,0-0.1,0
	c-0.1,0-0.2-0.1-0.2-0.1l0-0.1h-1.1l0,0.1c0,0.1-0.2,0.2-0.3,0.1C29.3,51.8,29.3,51.6,29.3,51.5z M32.6,49.9c0,0,0.1-0.1,0.2-0.1
	c0.1,0,0.2,0.1,0.2,0.2v0.5h0.1c0.1,0,0.2,0.1,0.2,0.2s-0.1,0.2-0.2,0.2H33v0.5c0,0.1-0.1,0.2-0.2,0.2s-0.2-0.1-0.2-0.2v-0.5h-0.9
	c-0.1,0-0.1,0-0.2-0.1c0-0.1-0.1-0.1,0-0.2l0.5-1.6c0-0.1,0.2-0.2,0.3-0.1c0.1,0,0.2,0.2,0.1,0.3l-0.1,0.2L32.6,49.9z M32,57.6
	l-0.1,0.1l-0.1,0.1c-0.1,0.1-0.2,0.1-0.2,0c-0.1,0-0.1-0.1-0.1-0.2l0.1-1.1c0-0.1,0.1-0.2,0.2-0.2h1.1c0.1,0,0.2,0.1,0.2,0.2
	s-0.1,0.2-0.2,0.2h-0.1l-0.3,0.4h0.1c0,0,0.1,0,0.1,0l0.2,0.1c0,0,0,0,0.1,0l0.1,0.1c0,0,0,0,0,0.1l0.1,0.2c0,0,0,0.1,0,0.1v0.5
	c0,0,0,0.1,0,0.1L33,58.7c0,0,0,0,0,0.1l-0.1,0.1c0,0,0,0-0.1,0L32.6,59c0,0-0.1,0-0.1,0H32c0,0-0.1,0-0.1,0l-0.2-0.1c0,0,0,0-0.1,0
	l-0.1-0.1c-0.1-0.1-0.1-0.2,0-0.3c0.1-0.1,0.2-0.1,0.2,0l0.5-0.8H32z M31.2,58.7c0,0.1,0,0.2-0.1,0.3c0,0,0,0-0.1,0
	c-0.1,0-0.2-0.1-0.2-0.1l0-0.1h-1.1l0,0.1c0,0.1-0.2,0.2-0.3,0.1c-0.1,0-0.2-0.2-0.1-0.3l0.8-2.3c0.1-0.2,0.3-0.2,0.4,0L31.2,58.7z
	 M29,59.6v1.2h11.4c0,0,0,0,0,0c0.1,0,0.1,0,0.2,0c0.1,0,0.1,0.1,0.2,0.1l7,7H48v-0.3h5.7v1.7H48v-0.3h-0.3c-0.1,0-0.1,0-0.2,0
	c-0.1,0-0.1-0.1-0.2-0.1l-7-7H29v1.2h-7.2v-3.6H29z M32.5,64.4C32.6,64.4,32.6,64.4,32.5,64.4l0.3,0.1c0,0,0,0,0.1,0l0.1,0.1
	c0,0,0,0,0,0.1l0.1,0.2c0,0,0,0.1,0,0.1v0.5c0,0,0,0.1,0,0.1L33,65.9c0,0,0,0,0,0.1L32.9,66c0,0,0,0-0.1,0l-0.2,0.1c0,0-0.1,0-0.1,0
	h-0.4c0,0-0.1,0-0.1,0l-0.2-0.1c0,0,0,0-0.1,0l-0.1-0.1c0,0,0,0,0-0.1l-0.1-0.2c0,0,0-0.1,0-0.1V65c0,0,0,0,0,0v-0.3l0.1-0.5
	c0,0,0,0,0-0.1l0.2-0.3l0.1-0.1c0,0,0,0,0.1,0l0.2-0.1c0,0,0.1,0,0.1,0h0.4c0.1,0,0.2,0.1,0.2,0.2s-0.1,0.2-0.2,0.2h-0.2l-0.4,0.4
	H32.5z M31.2,65.9c0,0.1,0,0.2-0.1,0.3c0,0,0,0-0.1,0c-0.1,0-0.2-0.1-0.2-0.1l0-0.1h-1.1l0,0.1c0,0.1-0.2,0.2-0.3,0.1
	c-0.1,0-0.2-0.2-0.1-0.3l0.8-2.3c0.1-0.2,0.3-0.2,0.4,0L31.2,65.9z M29,66.8V68h14.4c0,0,0,0,0,0c0.1,0,0.1,0,0.2,0
	c0.1,0,0.1,0.1,0.2,0.1c0,0,0,0,0,0l3.4,3.4H48v-0.3h5.7V73H48v-0.3h-1c-0.1,0-0.1,0-0.2,0c-0.1,0-0.1-0.1-0.2-0.1c0,0,0,0,0,0
	l-3.4-3.4H29v1.2h-7.2v-3.6H29z M31.6,71.1L31.6,71.1c-0.2,0-0.3-0.1-0.3-0.2s0.1-0.2,0.2-0.2h1.5c0.1,0,0.1,0,0.2,0.1
	c0,0.1,0,0.1,0,0.2l-1,2.3c0,0.1-0.1,0.1-0.2,0.1c0,0-0.1,0-0.1,0c-0.1,0-0.2-0.2-0.1-0.3l0.1-0.3L31.6,71.1z M31.2,73.1
	c0,0.1,0,0.2-0.1,0.3c0,0,0,0-0.1,0c-0.1,0-0.2-0.1-0.2-0.1l0-0.1h-1.1l0,0.1c0,0.1-0.2,0.2-0.3,0.1c-0.1,0-0.2-0.2-0.1-0.3l0.8-2.3
	c0.1-0.2,0.3-0.2,0.4,0L31.2,73.1z M29,74v1.2H48v-0.3h5.7v1.7H48v-0.3H29v1.2h-7.2V74H29z M36,79.4l-0.1,0.5l-0.1,0.3
	c0,0,0,0,0,0.1l-0.2,0.2c0,0-0.1,0-0.1,0.1l-0.3,0.1c0,0,0,0-0.1,0h-0.5c-0.1,0-0.2-0.1-0.2-0.2v-2.3c0-0.1,0.1-0.2,0.2-0.2H35
	c0,0,0,0,0.1,0l0.3,0.1c0,0,0.1,0,0.1,0.1l0.2,0.2c0,0,0,0,0,0.1l0.1,0.2l0.1,0.5L36,79.4z M33.6,78.1v2.3c0,0.1-0.1,0.2-0.2,0.2
	c0,0,0,0-0.1,0c-0.1,0-0.1,0-0.2-0.1l-0.6-1L32.3,80v0.4c0,0.1-0.1,0.2-0.2,0.2s-0.2-0.1-0.2-0.2v-2.3c0-0.1,0.1-0.2,0.2-0.2
	c0.1,0,0.2,0,0.2,0.1l0.6,1l0.3-0.5v-0.4c0-0.1,0.1-0.2,0.2-0.2S33.6,78,33.6,78.1z M31.1,79.2c0.1,0,0.2,0.1,0.2,0.2v0.8
	c0,0.1,0,0.1-0.1,0.2l-0.1,0.1c0,0-0.1,0-0.1,0.1l-0.3,0.1c0,0,0,0-0.1,0h-0.2c0,0,0,0-0.1,0l-0.3-0.1c0,0-0.1,0-0.1-0.1l-0.2-0.2
	c0,0,0,0,0-0.1L29.6,80l-0.1-0.5l0-0.4l0.1-0.5l0.1-0.3c0,0,0,0,0-0.1l0.2-0.2c0,0,0.1,0,0.1-0.1l0.3-0.1c0,0,0,0,0.1,0h0.3
	c0,0,0.1,0,0.1,0l0.2,0.1c0.1,0.1,0.1,0.2,0.1,0.3c0,0.1-0.1,0.1-0.2,0.1l-0.2,0.8H31.1z M40.2,86l7-7c0.1-0.1,0.1-0.1,0.2-0.1
	c0.1,0,0.1,0,0.2,0c0,0,0,0,0,0H48v-0.3h5.7v1.7H48v-0.3h-0.1l-7,7c-0.1,0.1-0.1,0.1-0.2,0.1c-0.1,0-0.1,0-0.2,0H25.6l-3.3,3.3v19.3
	l3.1,3.1h17.1l0.2-0.2v-0.9H41v-7.1h1.8v-0.1c0-0.3,0.3-0.6,0.6-0.6s0.6,0.3,0.6,0.6v0.1h1.8v7.1H44v1.1c0,0.1,0,0.1,0,0.2
	c0,0.1-0.1,0.1-0.1,0.2c0,0,0,0,0,0l-0.6,0.6c0,0,0,0,0,0c0,0-0.1,0.1-0.2,0.1c-0.1,0-0.1,0-0.2,0H25.2c-0.1,0-0.1,0-0.2,0
	c-0.1,0-0.1-0.1-0.2-0.1c0,0,0,0,0,0l-3.4-3.4c0,0,0,0,0,0c0,0-0.1-0.1-0.1-0.2c0-0.1,0-0.1,0-0.2c0,0,0,0,0,0V90.2c0,0,0,0,0,0
	c0-0.1,0-0.1,0-0.2c0-0.1,0.1-0.1,0.1-0.2c0,0,0,0,0,0l3.6-3.6c0,0,0,0,0,0c0,0,0.1-0.1,0.2-0.1c0.1,0,0.1,0,0.2,0c0,0,0,0,0,0H40.2
	z M31.4,104.6v7.1h-4.8v-7.1H31.4z M36.8,97.6v7c0,0,0,0,0,0.1h1.9v7.1h-4.8v-7.1h1.9c0,0,0,0,0-0.1v-7.2c0,0,0,0,0,0
	c0-0.1,0-0.1,0-0.2c0-0.1,0.1-0.1,0.1-0.2L49,83.8h-1v-1.7h5.7v1.7h-3.1L36.8,97.6z M29.3,42.2c0-0.1,0-0.2,0.1-0.3
	c0.1,0,0.2,0,0.3,0.1l0,0.1h1.1l0-0.1c0-0.1,0.2-0.2,0.3-0.1c0.1,0,0.2,0.2,0.1,0.3l-0.8,2.3c0,0.1-0.1,0.1-0.2,0.1
	s-0.2-0.1-0.2-0.1L29.3,42.2z M33.2,44c0.1,0.1,0.1,0.2,0,0.3l-0.1,0.1c0,0-0.1,0-0.1,0.1l-0.3,0.1c0,0,0,0-0.1,0h-0.2
	c0,0,0,0-0.1,0L32,44.5c0,0-0.1,0-0.1-0.1l-0.2-0.2c0,0,0,0,0-0.1L31.6,44l-0.1-0.5l0-0.4l0.1-0.5l0.1-0.3c0,0,0,0,0-0.1l0.2-0.2
	c0,0,0.1,0,0.1-0.1l0.3-0.1c0,0,0,0,0.1,0h0.2c0,0,0,0,0.1,0L33,42c0,0,0.1,0,0.1,0.1l0.1,0.1c0.1,0.1,0.1,0.2,0,0.3
	c0,0-0.1,0.1-0.2,0.1V44C33.1,44,33.2,44,33.2,44z M35.5,44c0.1,0.1,0.1,0.2,0,0.3l-0.1,0.1c0,0-0.1,0-0.1,0.1L35,44.6
	c0,0,0,0-0.1,0h-0.2c0,0,0,0-0.1,0l-0.3-0.1c0,0-0.1,0-0.1-0.1L34,44.2c0,0,0,0,0-0.1L33.8,44l-0.1-0.5l0-0.4l0.1-0.5l0.1-0.3
	c0,0,0,0,0-0.1l0.2-0.2c0,0,0.1,0,0.1-0.1l0.3-0.1c0,0,0,0,0.1,0h0.2c0,0,0,0,0.1,0l0.3,0.1c0,0,0.1,0,0.1,0.1l0.1,0.1
	c0.1,0.1,0.1,0.2,0,0.3c0,0-0.1,0.1-0.2,0.1V44C35.4,44,35.4,44,35.5,44z M68.4,64.4l0.7-0.7c0,0,0,0,0,0c0.1-0.1,0.2-0.2,0.4-0.2
	h13.3l3.3-3.3v-9.5l-3.3-3.3h-1v2.3H77v-5.7h1.8v-9.4h-3v-4.3H83v4.3h-3v9.4h1.8v2.3H83c0.1,0,0.1,0,0.2,0c0.1,0,0.1,0.1,0.2,0.1
	c0,0,0,0,0,0l3.6,3.6c0,0,0,0,0,0c0,0.1,0.1,0.1,0.1,0.2c0,0.1,0,0.1,0,0.2c0,0,0,0,0,0v10c0,0,0,0,0,0c0,0.1,0,0.1,0,0.2
	c0,0.1-0.1,0.1-0.1,0.2l-3.6,3.6c-0.1,0.1-0.1,0.1-0.2,0.1c-0.1,0-0.1,0-0.2,0H69.7L69,65.4c0,0,0,0,0,0c-0.1,0.1-0.1,0.1-0.2,0.1
	c-0.1,0-0.1,0-0.2,0h-0.9v0.3H62v-1.7h5.7v0.3H68.4z M67.7,67.7V68h0.9l2-2c0.1-0.1,0.1-0.1,0.2-0.1c0.1,0,0.1,0,0.2,0c0,0,0,0,0,0
	h60.8l1.1-1.1v-8.1c0,0,0,0,0-0.1c0,0,0-0.1,0-0.1c0-0.1,0.1-0.1,0.1-0.2l2.5-2.5c0.1-0.1,0.1-0.1,0.2-0.1c0.1,0,0.1,0,0.2,0
	c0,0,0,0,0,0h0c0,0,0,0,0,0h1.1v-1.2h7.2V56H137v-1.2h-0.9l-2.1,2.1V65c0,0,0,0,0,0c0,0.1,0,0.1,0,0.2c0,0.1-0.1,0.1-0.1,0.2
	l-1.4,1.4c-0.1,0.1-0.1,0.1-0.2,0.1c-0.1,0-0.1,0-0.2,0H71.2l-2,2c-0.1,0.1-0.1,0.1-0.2,0.1c-0.1,0-0.1,0-0.2,0h-1.1v0.3H62v-1.7
	H67.7z M97.6,60.8h4.6v-2.3h4.8v5.7h-4.8v-2.3h-4.8c-0.1,0-0.1,0-0.2,0c-0.1,0-0.1-0.1-0.2-0.1L96.2,61v0.2h-4.8v-5.7h4.8v3.9
	L97.6,60.8z M116.2,53.4h2.3c0.1,0,0.2,0.1,0.2,0.2c0,0.1,0,0.2-0.1,0.2l-1,0.6l0.5,0.3h0.4c0.1,0,0.2,0.1,0.2,0.2s-0.1,0.2-0.2,0.2
	h-2.3c-0.1,0-0.2-0.1-0.2-0.2c0-0.1,0-0.2,0.1-0.2l1-0.6l-0.5-0.3h-0.4c-0.1,0-0.2-0.1-0.2-0.2S116.1,53.4,116.2,53.4z M116,52.3V52
	c0,0,0,0,0-0.1l0.1-0.3c0,0,0-0.1,0.1-0.1l0.2-0.2c0,0,0,0,0.1,0l0.2-0.1l0.5-0.1l0.4,0l0.5,0.1l0.3,0.1c0,0,0,0,0.1,0l0.2,0.2
	c0,0,0,0.1,0.1,0.1l0.1,0.3c0,0,0,0,0,0.1v0.3c0,0,0,0.1,0,0.1l-0.1,0.2c-0.1,0.1-0.2,0.1-0.3,0.1c-0.1,0-0.1-0.1-0.1-0.2l-0.8-0.2
	v0.4c0,0.1-0.1,0.2-0.2,0.2h-0.8c-0.1,0-0.1,0-0.2-0.1l-0.1-0.1c0,0,0-0.1-0.1-0.1L116,52.3C116,52.3,116,52.3,116,52.3z
	 M116.2,55.8h2.3c0.1,0,0.2,0.1,0.2,0.2v0.5c0,0,0,0,0,0.1l-0.1,0.3c0,0,0,0.1-0.1,0.1l-0.2,0.2c0,0,0,0-0.1,0l-0.2,0.1l-0.5,0.1
	l-0.4,0l-0.5-0.1l-0.3-0.1c0,0,0,0-0.1,0l-0.2-0.2c0,0,0-0.1-0.1-0.1l-0.1-0.3c0,0,0,0,0-0.1V56C116,55.9,116.1,55.8,116.2,55.8z
	 M95.7,34.7v-4.3h7.1v4.3h-3v3.1l5,5h28.6c0.1,0,0.1,0,0.2,0c0.1,0,0.1,0.1,0.2,0.1l3.2,3.2v-1h7.2v3.6H137v-1.2h0
	c-0.1,0-0.1,0-0.2,0c-0.1,0-0.1-0.1-0.2-0.1l-3.4-3.4h-28.6c-0.1,0-0.1,0-0.2,0c-0.1,0-0.1-0.1-0.2-0.1l-5.4-5.4c0,0,0,0,0,0
	c0,0-0.1-0.1-0.1-0.2c0-0.1,0-0.1,0-0.2v-3.3H95.7z M108.7,101.1v-4.3c0-0.2,0.2-0.4,0.4-0.4s0.4,0.2,0.4,0.4v4.3
	c0,0.2-0.2,0.4-0.4,0.4S108.7,101.3,108.7,101.1z M111.2,97.6c-0.2,0.1-0.4,0.1-0.5-0.1c-0.2-0.2-0.2-0.4,0-0.6l0.2-0.2
	c0,0,0.1-0.1,0.1-0.1l0.4-0.2c0.1,0,0.1,0,0.2,0h1c0.1,0,0.1,0,0.2,0l0.4,0.2c0,0,0.1,0,0.1,0.1l0.2,0.2c0,0,0.1,0.1,0.1,0.1
	l0.2,0.4c0,0.1,0,0.1,0,0.2v0.4c0,0,0,0.1,0,0.1l-0.2,0.6c0,0.1-0.1,0.1-0.1,0.2l-0.9,0.9l0.5,0.8h0.3c0.2,0,0.4,0.2,0.4,0.4
	s-0.2,0.4-0.4,0.4h-2.6c-0.2,0-0.3-0.1-0.4-0.3c-0.1-0.2,0-0.3,0.1-0.5l1.7-1.7L111.2,97.6z M117.9,100.4c0.2,0.2,0.2,0.4,0,0.6
	l-0.2,0.2c0,0-0.1,0.1-0.2,0.1l-0.6,0.2c0,0-0.1,0-0.1,0h-0.4c0,0-0.1,0-0.1,0l-0.6-0.2c-0.1,0-0.1-0.1-0.2-0.1l-0.4-0.4
	c0,0-0.1-0.1-0.1-0.1l-0.2-0.4l-0.2-0.9c0,0,0-0.1,0-0.1v-0.6c0,0,0-0.1,0-0.1l0.2-0.8l0.2-0.5c0,0,0-0.1,0.1-0.1l0.4-0.4
	c0,0,0.1-0.1,0.2-0.1l0.6-0.2c0,0,0.1,0,0.1,0h0.4c0,0,0.1,0,0.1,0l0.6,0.2c0.1,0,0.1,0.1,0.2,0.1l0.2,0.2c0.2,0.2,0.2,0.4,0,0.6
	c-0.1,0.1-0.2,0.1-0.3,0.1v2.6C117.8,100.3,117.9,100.3,117.9,100.4z M129.8,95.6h-7.2v-1.2H81.8v2.3H77v-2.3H65c-0.1,0-0.1,0-0.2,0
	c-0.1,0-0.1-0.1-0.2-0.1l-4.7-4.7c-0.1-0.1-0.1-0.1-0.1-0.2c0-0.1,0-0.1,0-0.2c0,0,0,0,0,0v0c0,0,0,0,0,0v-8.6c0,0,0,0,0,0
	c0-0.1,0-0.1,0-0.2c0-0.1,0.1-0.1,0.1-0.2l0.5-0.5c0-0.1-0.1-0.2-0.1-0.3c0-0.3,0.3-0.6,0.6-0.6h0.6H62v-0.3h5.7v1.7H62v-0.3h-0.4
	l-0.8,0.8v8.1l4.4,4.4H77v-2.3h4.8v2.3h40.8V92h7.2V95.6z M129.8,88.4h-7.2v-1.2h-30v2.3h-4.8v-1.9H72.6c-0.1,0-0.1,0-0.2,0
	c-0.1,0-0.1-0.1-0.2-0.1c0,0,0,0,0,0l-3.8-3.8h-0.7v0.3H62v-1.7h5.7v0.3h0.9c0,0,0,0,0.1,0c0.1,0,0.1,0,0.2,0c0.1,0,0.1,0.1,0.2,0.1
	c0,0,0,0,0,0l3.8,3.8h15v-2.7h4.8V86h30v-1.2h7.2V88.4z M129.8,81.2h-7.2v-1.2H119h-18c-0.1,0-0.1,0-0.2,0c-0.1,0-0.1-0.1-0.2-0.1
	l-4-4h-4v2.3h-4.8v-2.3h-4L80,79.6h1.8v5.7H77v-5.7h1.8v-0.2c0,0,0,0,0,0c0-0.1,0-0.1,0-0.2c0-0.1,0.1-0.1,0.1-0.2l4.1-4.1
	c0.1-0.1,0.1-0.1,0.2-0.1c0.1,0,0.1,0,0.2,0c0,0,0,0,0,0h4.3v-2.3h4.8v2.3h4.2c0,0,0,0,0,0c0.1,0,0.1,0,0.2,0c0.1,0,0.1,0.1,0.2,0.1
	l4,4H119h3.6v-1.2h7.2v1.2h4.2l15.5-15.5V42.7l-5.9-5.9h-31.8c-0.1,0-0.1,0-0.2,0c-0.1,0-0.1-0.1-0.2-0.1c0,0,0,0,0,0l-3.6-3.6
	c0,0,0,0,0,0c0-0.1-0.1-0.1-0.1-0.2c0,0,0-0.1,0-0.1c0,0,0,0,0-0.1v-6.8l-3.9-3.9h-0.9v1.6h-7.1v-1.6H83v1.6h-7.1v-1.6h-8v2.1h-5.7
	v-4.3h5.7v1h8v-1.6H83v1.6h12.8v-1.6h7.1v1.6h1.1c0.1,0,0.1,0,0.2,0c0.1,0,0.1,0.1,0.2,0.1l4.3,4.3c0.1,0.1,0.1,0.1,0.1,0.2
	c0,0,0,0.1,0,0.1c0,0,0,0.1,0,0.1v6.8l3.3,3.3h31.8c0.1,0,0.1,0,0.2,0c0.1,0,0.1,0.1,0.2,0.1l6.3,6.3c0.1,0.1,0.1,0.1,0.1,0.2
	c0,0,0,0.1,0,0.1c0,0,0,0.1,0,0.1v21.1c0,0,0,0.1,0,0.1c0,0,0,0.1,0,0.1c0,0.1-0.1,0.1-0.1,0.2l-15.8,15.8c-0.1,0.1-0.1,0.1-0.2,0.1
	c-0.1,0-0.1,0-0.2,0h-4.5V81.2z M139.1,109.2c0,0,0.1,0.1,0.1,0.1l0.2,0.3c0,0.1,0,0.1,0,0.2v0.5c0,0.1,0,0.1,0,0.2l-0.2,0.3
	c0,0,0,0.1-0.1,0.1l-0.2,0.2c0,0-0.1,0.1-0.1,0.1l-0.3,0.2c-0.1,0-0.1,0-0.2,0H137c-0.2,0-0.4-0.2-0.4-0.4v-3.4
	c0-0.2,0.2-0.4,0.4-0.4h1.1c0.1,0,0.1,0,0.2,0l0.3,0.2c0,0,0.1,0,0.1,0.1l0.2,0.2c0,0,0.1,0.1,0.1,0.1l0.2,0.3c0,0.1,0,0.1,0,0.2
	v0.3c0,0.1,0,0.1,0,0.2L139,109c0,0,0,0,0,0L139.1,109.2z M132.3,108.8c0.2,0,0.4,0.2,0.4,0.4s-0.2,0.4-0.4,0.4h-0.5l-0.2,0.5v0.9
	c0,0.2-0.2,0.4-0.4,0.4s-0.4-0.2-0.4-0.4v-3.4c0-0.2,0.2-0.4,0.4-0.4h1.6c0.2,0,0.4,0.2,0.4,0.4s-0.2,0.4-0.4,0.4h-0.2L132.3,108.8
	L132.3,108.8z M130.3,116.8l1.1-3.4c0.1-0.2,0.2-0.3,0.4-0.3c0.2,0,0.3,0.1,0.4,0.3l1.1,3.4c0.1,0.2,0,0.5-0.3,0.5
	c-0.2,0.1-0.5,0-0.5-0.3l0-0.1h-1.4l0,0.1c-0.1,0.2-0.2,0.3-0.4,0.3c0,0-0.1,0-0.1,0C130.3,117.2,130.2,117,130.3,116.8z
	 M133.4,120.4c0,0,0,0.1,0,0.1l-0.2,0.5c0,0.1-0.1,0.1-0.1,0.2l-0.7,0.7l0.3,0.5h0.3c0.2,0,0.4,0.2,0.4,0.4s-0.2,0.4-0.4,0.4h-2.1
	c-0.2,0-0.3-0.1-0.4-0.3c-0.1-0.2,0-0.3,0.1-0.5l1.4-1.4l-0.7-1.1c-0.2,0.1-0.4,0.1-0.5,0c-0.2-0.2-0.2-0.4,0-0.6l0.2-0.2
	c0,0,0.1-0.1,0.1-0.1l0.3-0.2c0.1,0,0.1,0,0.2,0h0.8c0.1,0,0.1,0,0.2,0l0.3,0.2c0,0,0.1,0.1,0.1,0.1l0.2,0.2c0,0,0.1,0.1,0.1,0.1
	l0.2,0.3c0,0.1,0,0.1,0,0.2V120.4z M133.2,110.8l1.1-3.4c0.1-0.2,0.2-0.3,0.4-0.3c0.2,0,0.3,0.1,0.4,0.3l1.1,3.4
	c0.1,0.2,0,0.5-0.3,0.5c-0.2,0.1-0.5,0-0.5-0.3l0-0.1h-1.4l0,0.1c-0.1,0.2-0.2,0.3-0.4,0.3c0,0-0.1,0-0.1,0
	C133.2,111.3,133.1,111,133.2,110.8z M133.5,115.6c0,0,0-0.1,0-0.1V115c0,0,0-0.1,0-0.1l0.2-0.6l0.2-0.4c0,0,0-0.1,0.1-0.1l0.3-0.3
	c0,0,0.1-0.1,0.2-0.1l0.5-0.2c0,0,0.1,0,0.1,0h0.3c0,0,0.1,0,0.1,0l0.5,0.2c0.1,0,0.1,0.1,0.2,0.1l0.2,0.2c0.2,0.2,0.2,0.4,0,0.6
	c-0.1,0.1-0.2,0.1-0.3,0.1v1.9c0.1,0,0.2,0,0.3,0.1c0.2,0.2,0.2,0.4,0,0.6l-0.2,0.2c0,0.1-0.1,0.1-0.2,0.1l-0.5,0.2c0,0-0.1,0-0.1,0
	h-0.3c0,0-0.1,0-0.1,0l-0.5-0.2c-0.1,0-0.1-0.1-0.2-0.1l-0.3-0.3c0,0-0.1-0.1-0.1-0.1l-0.2-0.3L133.5,115.6z M136.6,121.6
	c0,0,0,0.1,0,0.1l-0.2,0.6l-0.2,0.4c0,0,0,0.1-0.1,0.1L136,123c0,0-0.1,0.1-0.1,0.1l-0.3,0.2c-0.1,0-0.1,0-0.2,0h-0.3
	c-0.1,0-0.1,0-0.2,0l-0.3-0.2c0,0-0.1-0.1-0.1-0.1l-0.2-0.2c0,0-0.1-0.1-0.1-0.1l-0.2-0.3l-0.2-0.7c0,0,0-0.1,0-0.1v-0.8
	c0,0,0-0.1,0-0.1l0.2-0.6l0.2-0.4c0,0,0-0.1,0.1-0.1l0.2-0.2c0,0,0.1-0.1,0.1-0.1l0.3-0.2c0.1,0,0.1,0,0.2,0h0.3c0.1,0,0.1,0,0.2,0
	l0.3,0.2c0,0,0.1,0,0.1,0.1l0.2,0.2c0,0,0.1,0.1,0.1,0.1l0.2,0.3l0.2,0.7c0,0,0,0.1,0,0.1V121.6z M136.6,116.8l0.3-1c0,0,0,0,0,0
	l0.8-2.4c0.1-0.2,0.2-0.3,0.4-0.3c0.2,0,0.3,0.1,0.4,0.3l1.1,3.4c0.1,0.2,0,0.5-0.3,0.5c0,0-0.1,0-0.1,0c-0.2,0-0.3-0.1-0.4-0.3
	l0-0.1h-1.4l0,0.1c-0.1,0.2-0.3,0.3-0.5,0.3C136.6,117.2,136.5,117,136.6,116.8z M139.9,120.4c0,0,0,0.1,0,0.1l-0.2,0.5
	c0,0.1-0.1,0.1-0.1,0.2l-0.7,0.7l0.3,0.5h0.3c0.2,0,0.4,0.2,0.4,0.4s-0.2,0.4-0.4,0.4h-2.1c-0.2,0-0.3-0.1-0.4-0.3
	c-0.1-0.2,0-0.3,0.1-0.5l1.4-1.4l-0.7-1.1c-0.2,0.1-0.4,0.1-0.5,0c-0.2-0.2-0.2-0.4,0-0.6l0.2-0.2c0,0,0.1-0.1,0.1-0.1l0.3-0.2
	c0.1,0,0.1,0,0.2,0h0.8c0.1,0,0.1,0,0.2,0l0.3,0.2c0,0,0.1,0.1,0.1,0.1l0.2,0.2c0,0,0.1,0.1,0.1,0.1l0.2,0.3c0,0.1,0,0.1,0,0.2
	V120.4z M140,116.9v-3.4c0-0.2,0.2-0.4,0.4-0.4h0.8c0,0,0.1,0,0.1,0l0.5,0.2c0.1,0,0.1,0.1,0.2,0.1l0.3,0.3c0,0,0.1,0.1,0.1,0.1
	l0.2,0.3l0.2,0.7c0,0,0,0.1,0,0.1v0.5c0,0,0,0.1,0,0.1l-0.2,0.6l-0.2,0.4c0,0,0,0.1-0.1,0.1l-0.3,0.3c0,0-0.1,0.1-0.2,0.1l-0.5,0.2
	c0,0-0.1,0-0.1,0h-0.8C140.2,117.3,140,117.1,140,116.9z M142.7,123.3h-1.9c-0.2,0-0.4-0.2-0.4-0.4s0.2-0.4,0.4-0.4h0.5v-0.6l-0.4-1
	c-0.2,0.1-0.4,0-0.5-0.2c-0.1-0.2,0-0.5,0.2-0.6l0.3-0.1l0.3-0.3l0.3-0.4c0.1-0.2,0.3-0.2,0.5-0.2c0.2,0.1,0.3,0.2,0.3,0.4v3h0.5
	c0.2,0,0.4,0.2,0.4,0.4S142.9,123.3,142.7,123.3z M145.4,116.5c0.2,0,0.4,0.2,0.4,0.4s-0.2,0.4-0.4,0.4h-1.6c-0.2,0-0.4-0.2-0.4-0.4
	v-3.4c0-0.2,0.2-0.4,0.4-0.4h1.6c0.2,0,0.4,0.2,0.4,0.4s-0.2,0.4-0.4,0.4h0L145.4,116.5L145.4,116.5z M149.6,116.9
	c0,0.2-0.2,0.4-0.4,0.4c-0.2,0-0.4-0.2-0.4-0.4h-1.4c0,0.2-0.2,0.4-0.4,0.4c-0.2,0-0.4-0.2-0.4-0.4v-3.4c0-0.2,0.1-0.4,0.3-0.4
	c0.2,0,0.4,0.1,0.5,0.2l0.7,1.6l0.7-1.6c0.1-0.2,0.3-0.3,0.5-0.2c0.2,0,0.3,0.2,0.3,0.4V116.9z M153.4,62.6h-1.3
	c-0.1,0-0.2-0.1-0.2-0.2s0.1-0.2,0.2-0.2h0.4v-0.3l-0.4-0.9c-0.1,0-0.2,0-0.3-0.1c-0.1-0.1,0-0.2,0.1-0.3l0.2-0.1l0.2-0.2l0.2-0.3
	c0.1-0.1,0.1-0.1,0.2-0.1c0.1,0,0.2,0.1,0.2,0.2v2.1h0.4c0.1,0,0.2,0.1,0.2,0.2S153.5,62.6,153.4,62.6z M153.6,53.6
	C153.6,53.6,153.6,53.6,153.6,53.6l-0.1,0.4c0,0,0,0.1-0.1,0.1l-0.5,0.5l0.3,0.5h0.1c0.1,0,0.2,0.1,0.2,0.2s-0.1,0.2-0.2,0.2H152
	c-0.1,0-0.2-0.1-0.2-0.1c0-0.1,0-0.2,0-0.2l0.9-0.9l-0.5-0.8c-0.1,0-0.2,0.1-0.3,0c-0.1-0.1-0.1-0.2,0-0.3l0.1-0.1c0,0,0,0,0.1,0
	l0.2-0.1c0,0,0.1,0,0.1,0h0.5c0,0,0.1,0,0.1,0l0.2,0.1c0,0,0,0,0.1,0l0.1,0.1c0,0,0,0,0,0.1l0.1,0.2c0,0,0,0.1,0,0.1V53.6z
	 M152,45.5h1.4c0.1,0,0.2,0,0.2,0.1c0,0.1,0,0.2,0,0.2l-0.5,0.5l0.2,0.1c0,0,0,0,0.1,0l0.1,0.1c0,0,0,0,0,0.1l0.1,0.2
	c0,0,0,0.1,0,0.1v0.5c0,0,0,0.1,0,0.1l-0.1,0.2c0,0,0,0,0,0.1l-0.1,0.1c0,0,0,0-0.1,0l-0.2,0.1c0,0-0.1,0-0.1,0h-0.6
	c0,0-0.1,0-0.1,0l-0.2-0.1c0,0,0,0-0.1,0l-0.1-0.1c-0.1-0.1-0.1-0.2,0-0.3c0,0,0.1-0.1,0.1-0.1v-1.6c-0.1,0-0.2-0.1-0.2-0.2
	C151.8,45.6,151.9,45.5,152,45.5z M152.1,113.5l0.1-0.2c0.1-0.2,0.4-0.3,0.6-0.1c0.2,0.1,0.3,0.4,0.1,0.6l-1.1,1.7v1.5
	c0,0.2-0.2,0.4-0.4,0.4s-0.4-0.2-0.4-0.4v-1.5l-1.1-1.7c-0.1-0.2-0.1-0.5,0.1-0.6c0.2-0.1,0.5-0.1,0.6,0.1l0.1,0.2H152.1z
	 M150.7,18.7c0,0.2-0.2,0.4-0.4,0.4h-0.2v1c0,0.2-0.2,0.4-0.4,0.4s-0.4-0.2-0.4-0.4v-1h-1.6c-0.1,0-0.3-0.1-0.3-0.2
	s-0.1-0.3-0.1-0.4l1-3c0.1-0.2,0.3-0.3,0.5-0.3c0.2,0.1,0.3,0.3,0.3,0.5l-0.1,0.4l0.4,0.8c0.1-0.1,0.2-0.1,0.3-0.1
	c0.2,0,0.4,0.2,0.4,0.4v1h0.2C150.5,18.3,150.7,18.5,150.7,18.7z M147.6,10.5C147.6,10.5,147.6,10.5,147.6,10.5V10
	c0-0.2,0.2-0.4,0.4-0.4c0.1,0,0.2,0,0.3,0.1l0.1-0.1c0.1,0,0.1,0,0.2,0h0.6c0.1,0,0.1,0,0.2,0l0.4,0.2c0.1,0,0.2,0.1,0.2,0.2
	l0.2,0.4c0,0.1,0,0.1,0,0.2v2.2c0,0.2-0.2,0.4-0.4,0.4s-0.4-0.2-0.4-0.4v-0.6l-1-1.3v1.9c0,0.2-0.2,0.4-0.4,0.4s-0.4-0.2-0.4-0.4
	V10.5z"/>
</svg>
