<?xml version="1.0" encoding="UTF-8" standalone="no"?>
<!-- Created with Inkscape (http://www.inkscape.org/) -->

<svg
   xmlns:dc="http://purl.org/dc/elements/1.1/"
   xmlns:cc="http://creativecommons.org/ns#"
   xmlns:rdf="http://www.w3.org/1999/02/22-rdf-syntax-ns#"
   xmlns:svg="http://www.w3.org/2000/svg"
   xmlns="http://www.w3.org/2000/svg"
   xmlns:sodipodi="http://sodipodi.sourceforge.net/DTD/sodipodi-0.dtd"
   xmlns:inkscape="http://www.inkscape.org/namespaces/inkscape"
   width="120mm"
   height="120mm"
   viewBox="0 0 120 120"
   version="1.1"
   id="svg8"
   inkscape:version="0.92.5 (2060ec1f9f, 2020-04-08)"
   sodipodi:docname="drillholes.svg">
  <defs
     id="defs2" />
  <sodipodi:namedview
     id="base"
     pagecolor="#ffffff"
     bordercolor="#666666"
     borderopacity="1.0"
     inkscape:pageopacity="0.0"
     inkscape:pageshadow="2"
     inkscape:zoom="1.979899"
     inkscape:cx="117.64997"
     inkscape:cy="207.7038"
     inkscape:document-units="mm"
     inkscape:current-layer="layer1"
     showgrid="false"
     inkscape:window-width="1866"
     inkscape:window-height="1016"
     inkscape:window-x="54"
     inkscape:window-y="27"
     inkscape:window-maximized="1" />
  <metadata
     id="metadata5">
    <rdf:RDF>
      <cc:Work
         rdf:about="">
        <dc:format>image/svg+xml</dc:format>
        <dc:type
           rdf:resource="http://purl.org/dc/dcmitype/StillImage" />
        <dc:title></dc:title>
      </cc:Work>
    </rdf:RDF>
  </metadata>
  <g
     inkscape:label="Layer 1"
     inkscape:groupmode="layer"
     id="layer1"
     transform="translate(0,-177)">
    <path
       style="fill:#000000;stroke-width:0.02116667"
       d="m 21.903462,285.96614 c -0.114095,-0.0531 -0.210071,-0.15101 -0.256341,-0.26143 -0.04081,-0.0974 -0.03514,-0.29632 0.01138,-0.39873 0.05049,-0.11117 0.19068,-0.23019 0.31071,-0.26379 0.32258,-0.0903 0.633302,0.1444 0.630957,0.47663 -0.0026,0.36427 -0.369344,0.59976 -0.696706,0.44732 z m 2.540865,-3.4e-4 c -0.194062,-0.0917 -0.286099,-0.23742 -0.285284,-0.45158 5.93e-4,-0.15564 0.05306,-0.27235 0.165832,-0.36888 0.192274,-0.16458 0.460348,-0.16552 0.641067,-0.002 0.121666,0.10992 0.173496,0.22217 0.173496,0.37574 0,0.36193 -0.37074,0.60032 -0.695111,0.44697 z m 7.023131,0.0169 c -0.175964,-0.0649 -0.323881,-0.27724 -0.323881,-0.46499 0,-0.0907 0.0526,-0.23462 0.116241,-0.31804 0.07394,-0.0969 0.247622,-0.17832 0.380039,-0.17806 0.20727,4e-4 0.426946,0.15604 0.477704,0.33845 0.06736,0.24211 -0.03213,0.49012 -0.238957,0.59563 -0.11249,0.0574 -0.296022,0.0694 -0.411146,0.027 z m 2.54,0 c -0.127548,-0.047 -0.253354,-0.18116 -0.292017,-0.31134 -0.04014,-0.13516 -0.04008,-0.19802 2.96e-4,-0.31246 0.04753,-0.13473 0.122468,-0.22055 0.246566,-0.28239 0.415604,-0.2071 0.863257,0.2215 0.671991,0.6434 -0.02375,0.0524 -0.06402,0.1176 -0.08949,0.14493 -0.118404,0.12703 -0.365472,0.18122 -0.537346,0.11786 z m 5.888535,-0.0169 c -0.194063,-0.0917 -0.2861,-0.23742 -0.285285,-0.45158 5.93e-4,-0.15564 0.05306,-0.27235 0.165833,-0.36888 0.192273,-0.16458 0.460347,-0.16552 0.641066,-0.002 0.121666,0.10992 0.173497,0.22217 0.173497,0.37574 0,0.36193 -0.370741,0.60032 -0.695111,0.44697 z m 2.539999,0 c -0.189795,-0.0897 -0.288774,-0.24249 -0.288774,-0.4457 0,-0.14992 0.05431,-0.27267 0.162958,-0.3683 0.194206,-0.17095 0.463838,-0.17458 0.647431,-0.009 0.121666,0.10992 0.173497,0.22217 0.173497,0.37574 0,0.36193 -0.370741,0.60032 -0.695112,0.44697 z m 42.113982,-0.23253 c -0.19355,-0.07 -0.328976,-0.26274 -0.329226,-0.46844 -5.08e-4,-0.42967 0.48891,-0.65363 0.816193,-0.37349 0.04806,0.0411 0.104929,0.11343 0.126375,0.16065 0.04652,0.1024 0.05219,0.30134 0.01138,0.39873 -0.0998,0.23815 -0.387651,0.36834 -0.624722,0.28255 z m 20.311756,0 c -0.12577,-0.0469 -0.2187,-0.13037 -0.27823,-0.24982 -0.21061,-0.42264 0.22742,-0.86502 0.65801,-0.66454 0.26339,0.12263 0.36001,0.4536 0.20542,0.70364 -0.11886,0.19225 -0.38136,0.28677 -0.5852,0.21072 z m -50.539719,-1.01915 c -0.128606,-0.0581 -0.2158,-0.13998 -0.267591,-0.25121 -0.202433,-0.43476 0.248216,-0.87258 0.671695,-0.65258 0.446614,0.23202 0.304038,0.8954 -0.199509,0.92827 -0.08983,0.006 -0.154609,-0.002 -0.204595,-0.0245 z m 2.505812,-0.017 c -0.407943,-0.1951 -0.364643,-0.80433 0.06573,-0.92483 0.382499,-0.1071 0.727187,0.23693 0.616756,0.61556 -0.06057,0.20767 -0.223827,0.33604 -0.447198,0.35166 -0.104007,0.007 -0.148046,-6.6e-4 -0.235291,-0.0424 z m 2.54,-10e-4 c -0.325848,-0.15173 -0.386154,-0.59094 -0.113217,-0.82456 0.214336,-0.18347 0.552298,-0.14799 0.716435,0.0752 0.305837,0.41587 -0.137268,0.96633 -0.603218,0.74936 z m 2.540634,3e-4 c -0.186074,-0.0867 -0.284884,-0.24291 -0.284884,-0.45054 0,-0.15059 0.05803,-0.2776 0.171033,-0.37432 0.271787,-0.23264 0.695164,-0.10703 0.794832,0.23581 0.05691,0.19575 0.0071,0.36422 -0.150745,0.5097 -0.148996,0.13734 -0.343266,0.16642 -0.530236,0.0794 z m 2.54,0 c -0.186802,-0.087 -0.285212,-0.24336 -0.284418,-0.45193 5.92e-4,-0.15604 0.05309,-0.27238 0.166878,-0.36977 0.325189,-0.27835 0.815661,-0.0531 0.815147,0.37438 -4.45e-4,0.36237 -0.370484,0.59965 -0.697607,0.44732 z m 2.540866,-3.4e-4 c -0.194063,-0.0917 -0.286099,-0.23742 -0.285285,-0.45158 5.93e-4,-0.15604 0.05309,-0.27238 0.166878,-0.36978 0.196751,-0.16841 0.487693,-0.16072 0.666016,0.0176 0.0998,0.0998 0.147502,0.21518 0.147502,0.35678 0,0.36298 -0.369794,0.60076 -0.695111,0.44697 z m 2.574651,0.0215 c -0.105452,-0.0382 -0.23543,-0.15638 -0.280119,-0.25479 -0.05183,-0.11412 -0.05199,-0.31282 -3.6e-4,-0.4265 0.13212,-0.29087 0.531867,-0.37572 0.767442,-0.16289 0.121666,0.10992 0.173497,0.22217 0.173497,0.37574 0,0.33983 -0.343197,0.58325 -0.66046,0.46844 z m 14.975157,-1.52612 c -0.09773,-0.0348 -0.213756,-0.1412 -0.267312,-0.24505 -0.10312,-0.19997 -0.07112,-0.39317 0.093,-0.56139 0.111609,-0.11441 0.206093,-0.15694 0.349135,-0.15718 0.182262,-2.9e-4 0.36434,0.11498 0.445095,0.28179 0.05173,0.10686 0.05917,0.29756 0.01565,0.4014 -0.101488,0.24219 -0.388091,0.36864 -0.635565,0.28043 z m -69.198542,-6.57169 c -0.37659,-0.059 -0.745548,-0.31353 -0.926177,-0.63883 -0.347085,-0.62507 -0.106732,-1.42375 0.524633,-1.74333 0.08229,-0.0417 0.202004,-0.0896 0.266033,-0.10653 0.147925,-0.0391 0.485027,-0.0397 0.630097,-10e-4 0.807097,0.21485 1.198771,1.12635 0.795368,1.85097 -0.246595,0.44295 -0.797905,0.71598 -1.289954,0.63884 z m 21.542718,-0.81826 c -0.306101,-0.15254 -0.369919,-0.54723 -0.127652,-0.7895 0.05092,-0.0509 0.126514,-0.0982 0.191538,-0.11979 0.491428,-0.16323 0.871755,0.45172 0.505129,0.81674 -0.158159,0.15747 -0.369697,0.19187 -0.569015,0.0926 z m 47.630305,-0.23906 c -0.339393,-0.15414 -0.399811,-0.58931 -0.115598,-0.83258 0.151873,-0.13 0.339905,-0.15601 0.520341,-0.072 0.186802,0.087 0.285212,0.24335 0.284418,0.45193 -5.92e-4,0.15717 -0.0532,0.27247 -0.1699,0.37236 -0.146044,0.12501 -0.351011,0.1567 -0.519261,0.0803 z m -66.652118,-2.28561 c -0.319723,-0.14666 -0.396549,-0.57626 -0.144813,-0.80977 0.105684,-0.098 0.197227,-0.13329 0.345897,-0.13321 0.286461,2.1e-4 0.489857,0.20166 0.489857,0.48534 0,0.27989 -0.213698,0.49648 -0.489857,0.49648 -0.06805,0 -0.151591,-0.0161 -0.201084,-0.0388 z m 24.996966,-0.26433 c -0.356214,-0.16587 -0.380445,-0.6612 -0.04257,-0.87009 0.09006,-0.0557 0.123423,-0.0641 0.2551,-0.0641 0.131678,0 0.165037,0.008 0.255101,0.0641 0.214461,0.13259 0.297705,0.39201 0.199242,0.62089 -0.112156,0.26071 -0.406193,0.37059 -0.666875,0.2492 z m 41.629962,-0.004 c -0.321175,-0.16005 -0.367138,-0.58141 -0.08936,-0.81918 0.251608,-0.21537 0.646202,-0.11853 0.775634,0.19034 0.04102,0.0979 0.03519,0.29655 -0.01167,0.39755 -0.11851,0.25543 -0.419252,0.35853 -0.674602,0.23129 z m 20.324858,0.004 c -0.35621,-0.16587 -0.38044,-0.6612 -0.0426,-0.87009 0.0901,-0.0557 0.12343,-0.0641 0.2551,-0.0641 0.13168,0 0.16504,0.008 0.25511,0.0641 0.42588,0.26331 0.24381,0.91978 -0.25511,0.91978 -0.0666,0 -0.14534,-0.0184 -0.21253,-0.0497 z m -86.951786,-2.27583 c -0.321406,-0.14805 -0.397769,-0.57497 -0.144813,-0.80961 0.105684,-0.098 0.197227,-0.13329 0.345897,-0.13321 0.284673,2.1e-4 0.489857,0.20343 0.489857,0.48534 0,0.27989 -0.213698,0.49648 -0.489857,0.49648 -0.06835,0 -0.151371,-0.0161 -0.201084,-0.039 z m 25.034638,-0.24232 c -0.200158,-0.0726 -0.336289,-0.28731 -0.317002,-0.50001 0.01305,-0.14392 0.0525,-0.22702 0.155075,-0.32664 0.131831,-0.12803 0.322206,-0.16934 0.496714,-0.10777 0.203336,0.0718 0.337685,0.25661 0.337283,0.46412 -4.03e-4,0.20911 -0.148747,0.41804 -0.336815,0.47439 -0.101139,0.0303 -0.245267,0.0285 -0.335255,-0.004 z m -25.062666,-2.31314 c -0.209116,-0.10421 -0.313647,-0.34374 -0.248221,-0.5688 0.06586,-0.22656 0.241844,-0.35886 0.477333,-0.35886 0.290125,0 0.491043,0.2043 0.489639,0.49789 -0.0018,0.36854 -0.383536,0.59681 -0.718751,0.42977 z m 25.047026,-0.22837 c -0.290184,-0.12677 -0.396752,-0.5029 -0.213036,-0.75192 0.221717,-0.30052 0.681599,-0.26439 0.846489,0.0665 0.166838,0.3348 -0.07068,0.71645 -0.444343,0.71398 -0.06909,-4.6e-4 -0.154185,-0.0133 -0.18911,-0.0286 z m 41.860645,-2.05771 c -0.365517,-0.18215 -0.358553,-0.69784 0.01195,-0.88475 0.320635,-0.16176 0.702719,0.0787 0.703095,0.44244 4.03e-4,0.38035 -0.374279,0.61212 -0.715041,0.44231 z m 20.348173,0.0257 c -0.29018,-0.12677 -0.39675,-0.5029 -0.21303,-0.75192 0.17641,-0.23911 0.53243,-0.27549 0.7384,-0.0755 0.10416,0.10115 0.14388,0.18386 0.15682,0.32651 0.0189,0.20845 -0.10937,0.41972 -0.30426,0.50115 -0.0874,0.0365 -0.29407,0.0363 -0.37793,-3e-4 z m -87.254717,-0.27907 c -0.212587,-0.10594 -0.315593,-0.34149 -0.249202,-0.56986 0.06591,-0.22672 0.242658,-0.35919 0.477187,-0.35766 0.293634,0.002 0.486833,0.19849 0.486833,0.49531 0,0.3725 -0.377091,0.6005 -0.714818,0.43221 z m 25.045899,-0.22893 c -0.231819,-0.10128 -0.35332,-0.36356 -0.284024,-0.61312 0.02666,-0.096 0.161423,-0.24985 0.259746,-0.29651 0.252408,-0.11977 0.555443,-0.007 0.672036,0.2494 0.105884,0.23313 -0.0057,0.53118 -0.241747,0.64543 -0.105891,0.0513 -0.305858,0.0586 -0.406011,0.0148 z m -27.62953,-1.50445 c -0.203345,-0.0463 -0.429465,-0.16815 -0.591241,-0.31852 -0.243616,-0.22644 -0.379869,-0.51156 -0.401247,-0.83965 -0.01522,-0.23355 0.01741,-0.40299 0.119523,-0.62057 0.224549,-0.47849 0.677701,-0.75039 1.208081,-0.72486 0.476055,0.0229 0.863803,0.27805 1.069458,0.70369 0.143674,0.29737 0.172825,0.5624 0.09523,0.8658 -0.0588,0.22991 -0.156642,0.40126 -0.328603,0.57549 -0.167173,0.16937 -0.284076,0.24421 -0.497294,0.31836 -0.188942,0.0657 -0.484668,0.0834 -0.673905,0.0403 z m 69.490175,-0.55326 c -0.362884,-0.18083 -0.358604,-0.69809 0.0073,-0.88235 0.237992,-0.11985 0.546252,-0.014 0.657957,0.22589 0.20374,0.43756 -0.235248,0.87074 -0.665255,0.65646 z m -47.829644,-0.22829 c -0.305708,-0.13355 -0.399538,-0.52499 -0.185723,-0.77478 0.129938,-0.15181 0.308322,-0.21371 0.49014,-0.17009 0.281995,0.0677 0.442207,0.34933 0.362299,0.63698 -0.02851,0.10262 -0.158996,0.24995 -0.263368,0.29736 -0.101408,0.0461 -0.309571,0.0515 -0.403348,0.0105 z m 47.830895,-7.3814 c -0.310346,-0.15362 -0.364067,-0.58841 -0.101219,-0.81919 0.239672,-0.21043 0.618824,-0.13736 0.760294,0.14654 0.127008,0.25487 0.03367,0.54601 -0.215875,0.67332 -0.118658,0.0605 -0.320167,0.0602 -0.4432,-6.8e-4 z m -69.082227,-2.49567 c -0.440385,-0.0884 -0.814881,-0.4231 -0.967527,-0.86472 -0.04052,-0.11724 -0.04823,-0.18188 -0.04699,-0.39423 0.0013,-0.21873 0.009,-0.27382 0.05552,-0.3967 0.08008,-0.21146 0.180474,-0.36441 0.334927,-0.51024 0.320596,-0.30271 0.754224,-0.41761 1.172377,-0.31067 0.239108,0.0612 0.401484,0.15513 0.584828,0.33848 0.183344,0.18334 0.277321,0.34572 0.338474,0.58483 0.07638,0.29863 0.03673,0.62335 -0.110413,0.90419 -0.08996,0.17171 -0.346752,0.4285 -0.518461,0.51846 -0.247456,0.12965 -0.586051,0.18212 -0.842729,0.1306 z m 69.20831,-0.002 c -0.266878,-0.0492 -0.448069,-0.32677 -0.384992,-0.58969 0.109969,-0.45841 0.717341,-0.53465 0.922278,-0.11577 0.181392,0.37075 -0.130666,0.78048 -0.537286,0.70546 z m 20.322999,-2.5e-4 c -0.12414,-0.0219 -0.20287,-0.0673 -0.28713,-0.16579 -0.27441,-0.32058 -0.0471,-0.81224 0.37547,-0.81224 0.42261,0 0.64989,0.49166 0.37548,0.81224 -0.1181,0.13797 -0.28439,0.19741 -0.46382,0.16579 z m -67.796818,-0.76123 c -0.244901,-0.0453 -0.397125,-0.23118 -0.396996,-0.48477 2.12e-4,-0.29026 0.206011,-0.49381 0.497643,-0.49205 0.268228,0.002 0.48511,0.2216 0.48511,0.49205 0,0.31005 -0.279554,0.54141 -0.585757,0.48477 z m 5.321111,-1.26993 c -0.231216,-0.0543 -0.396187,-0.25617 -0.396187,-0.48484 0,-0.18394 0.134889,-0.38802 0.300194,-0.45416 0.198719,-0.0795 0.427713,-0.0279 0.564259,0.12726 0.08462,0.0961 0.13038,0.21087 0.13038,0.3269 0,0.30516 -0.306536,0.55343 -0.598646,0.48484 z m -24.402984,-1.27589 c -0.433498,-0.11879 -0.496936,-0.71381 -0.09799,-0.91912 0.116727,-0.0601 0.304439,-0.0687 0.422419,-0.0194 0.09521,0.0398 0.210576,0.15425 0.259617,0.2576 0.04617,0.0973 0.04971,0.2918 0.0072,0.39337 -0.09562,0.22822 -0.352222,0.35302 -0.591206,0.28754 z m 24.39838,-1.25995 c -0.107645,-0.0275 -0.193677,-0.082 -0.269644,-0.17078 -0.162581,-0.18994 -0.161781,-0.44743 0.002,-0.63875 0.09795,-0.11444 0.212988,-0.16537 0.373491,-0.16537 0.160502,0 0.275539,0.0509 0.37349,0.16537 0.164579,0.19227 0.165521,0.46034 0.0023,0.64106 -0.127277,0.14088 -0.322489,0.20917 -0.481578,0.16847 z M 18.300106,247.3983 c -0.332042,-0.10368 -0.461255,-0.50337 -0.251454,-0.77781 0.0975,-0.12754 0.221178,-0.18591 0.3939,-0.18591 0.121097,0 0.156144,0.009 0.253991,0.0688 0.369097,0.22369 0.299341,0.7716 -0.113932,0.8949 -0.124651,0.0372 -0.163503,0.0372 -0.282505,0 z m 24.411053,-1.25789 c -0.230177,-0.0589 -0.391968,-0.26643 -0.391376,-0.50204 2.54e-4,-0.10146 0.07979,-0.27467 0.161157,-0.35096 0.132429,-0.12417 0.376807,-0.16108 0.5489,-0.0829 0.290875,0.13212 0.375723,0.53187 0.162897,0.76744 -0.127278,0.14088 -0.322489,0.20917 -0.481578,0.16847 z M 18.300106,244.8583 c -0.250109,-0.0781 -0.39631,-0.32661 -0.341767,-0.58094 0.03044,-0.14191 0.116224,-0.25385 0.250523,-0.32686 0.09806,-0.0533 0.128321,-0.0595 0.254894,-0.0524 0.190935,0.0108 0.320053,0.0883 0.408318,0.2453 0.157273,0.27964 0.01822,0.62306 -0.289463,0.71485 -0.124651,0.0372 -0.163503,0.0372 -0.282505,0 z m 24.400332,-1.25749 c -0.232607,-0.0759 -0.381235,-0.2721 -0.380655,-0.50244 4.24e-4,-0.1721 0.141724,-0.37418 0.311322,-0.44525 0.09739,-0.0408 0.296327,-0.0351 0.398735,0.0114 0.161472,0.0733 0.284749,0.26809 0.284451,0.44937 -4.24e-4,0.25271 -0.205501,0.4728 -0.461705,0.49549 -0.0545,0.005 -0.122967,9.7e-4 -0.152148,-0.009 z M 18.32378,242.32914 c -0.259541,-0.0618 -0.428598,-0.34545 -0.360886,-0.60542 0.03811,-0.1463 0.124246,-0.2515 0.260515,-0.31817 0.09638,-0.0472 0.13546,-0.0546 0.249646,-0.0473 0.550593,0.0351 0.638151,0.80231 0.109556,0.96001 -0.112819,0.0337 -0.15565,0.0355 -0.258831,0.0109 z m -2.780035,-1.80592 c -0.538063,-0.16311 -0.910167,-0.66716 -0.910167,-1.23289 0,-0.16916 0.0658,-0.42329 0.152295,-0.58823 0.08385,-0.15988 0.323346,-0.40582 0.482705,-0.49568 0.215205,-0.12135 0.366312,-0.16057 0.624417,-0.16204 0.378649,-0.002 0.643228,0.10762 0.912049,0.37843 0.651385,0.6562 0.394612,1.76721 -0.480655,2.07969 -0.224411,0.0801 -0.555684,0.0889 -0.780644,0.0207 z m 21.822694,-0.73358 c -0.244837,-0.0745 -0.405583,-0.30753 -0.373512,-0.54152 0.03603,-0.26284 0.231621,-0.43408 0.494678,-0.43308 0.157175,6e-4 0.272474,0.0532 0.372362,0.1699 0.234817,0.27433 0.112012,0.69121 -0.234326,0.79544 -0.105132,0.0316 -0.177152,0.0342 -0.259202,0.009 z m 30.9458,-0.0117 c -0.2106,-0.0677 -0.339024,-0.24513 -0.338201,-0.46732 0.0011,-0.2873 0.204722,-0.49473 0.486368,-0.49535 0.440389,-9.7e-4 0.662595,0.50876 0.362708,0.83206 -0.122765,0.13235 -0.335896,0.18683 -0.510875,0.13061 z m 25.421028,0.0117 c -0.249523,-0.0759 -0.408408,-0.31542 -0.371684,-0.56031 0.01833,-0.12224 0.116393,-0.2722 0.224991,-0.34407 0.10363,-0.0686 0.305301,-0.0915 0.433254,-0.0493 0.104256,0.0344 0.239924,0.15897 0.287919,0.26436 0.08649,0.1899 0.01926,0.4723 -0.14166,0.59504 -0.121572,0.0927 -0.305896,0.13287 -0.43282,0.0943 z m 6.096,-1.016 c -0.244837,-0.0745 -0.405583,-0.30753 -0.373511,-0.54152 0.03591,-0.26201 0.231078,-0.43354 0.49329,-0.43354 0.369364,0 0.605304,0.38255 0.440244,0.71379 -0.10272,0.20613 -0.35474,0.32371 -0.560023,0.26127 z M 68.304355,237.2396 c -0.206013,-0.0766 -0.331085,-0.25292 -0.330317,-0.46564 0.0014,-0.38167 0.374153,-0.61445 0.713323,-0.44543 0.363572,0.18117 0.362342,0.69373 -0.0021,0.88113 -0.10787,0.0555 -0.276589,0.0687 -0.380892,0.0299 z m -20.574777,-1.01949 c -0.127651,-0.0468 -0.214574,-0.12438 -0.274897,-0.24543 -0.09166,-0.18394 -0.06705,-0.39107 0.06477,-0.54507 0.238197,-0.27828 0.686893,-0.20878 0.832157,0.1289 0.05476,0.12728 0.05149,0.30061 -0.0078,0.41532 -0.113716,0.2199 -0.387054,0.32951 -0.614198,0.24628 z m 2.54,0 c -0.127652,-0.0468 -0.214575,-0.12438 -0.274898,-0.24543 -0.199214,-0.39977 0.168572,-0.82201 0.602706,-0.69194 0.173825,0.0521 0.306745,0.22074 0.330227,0.41902 0.04182,0.35311 -0.323529,0.64091 -0.658035,0.51835 z m 2.539999,0 c -0.129989,-0.0476 -0.216112,-0.12592 -0.278282,-0.253 -0.05019,-0.10258 -0.05599,-0.13483 -0.04621,-0.2567 0.0087,-0.10795 0.02495,-0.15897 0.07222,-0.22622 0.0965,-0.13731 0.21734,-0.2107 0.364414,-0.22134 0.213927,-0.0155 0.378043,0.0656 0.478047,0.23629 0.114954,0.19615 0.09024,0.4101 -0.06768,0.58573 -0.138316,0.15385 -0.33371,0.20442 -0.522512,0.13524 z m 2.543329,0.003 c -0.252294,-0.09 -0.386478,-0.35972 -0.312132,-0.62735 0.02851,-0.10262 0.158996,-0.24995 0.263369,-0.29736 0.286408,-0.13009 0.654744,0.0658 0.700762,0.37266 0.0451,0.30077 -0.206781,0.58611 -0.513162,0.58132 -0.03268,-5.1e-4 -0.09516,-0.0137 -0.138837,-0.0293 z m 2.54,0 c -0.200236,-0.0715 -0.333713,-0.26259 -0.332867,-0.47666 0.0015,-0.36895 0.371217,-0.59537 0.712648,-0.43641 0.131648,0.0613 0.224426,0.17884 0.260784,0.3304 0.089,0.37099 -0.283718,0.71002 -0.640565,0.58267 z m 2.54,0.001 c -0.128109,-0.0478 -0.228299,-0.13796 -0.282486,-0.25434 -0.158748,-0.34093 0.07111,-0.71203 0.440599,-0.71135 0.437705,8.1e-4 0.656897,0.5104 0.358095,0.83253 -0.123281,0.1329 -0.355919,0.19291 -0.516208,0.13316 z m 39.369972,0.003 c -0.122485,-0.0325 -0.280955,-0.18745 -0.323848,-0.31658 -0.08632,-0.2599 0.05697,-0.5539 0.306396,-0.62863 0.434134,-0.13006 0.801924,0.29218 0.602714,0.69195 -0.10929,0.2193 -0.33893,0.31867 -0.585262,0.25326 z m -31.499999,-1.52885 c -0.19766,-0.0734 -0.312623,-0.2229 -0.325371,-0.42311 -0.01069,-0.16786 0.02126,-0.26826 0.120328,-0.37815 0.152556,-0.16921 0.383409,-0.21201 0.589525,-0.1093 0.363572,0.18117 0.362342,0.69372 -0.0021,0.88112 -0.108511,0.0558 -0.276551,0.0687 -0.382368,0.0294 z m 25.399506,0.005 c -0.130374,-0.0363 -0.29443,-0.21235 -0.327891,-0.35184 -0.05618,-0.23419 0.04253,-0.45299 0.253078,-0.56095 0.100571,-0.0516 0.135737,-0.0587 0.258379,-0.0523 0.166876,0.009 0.281057,0.0753 0.386613,0.22551 0.05797,0.0825 0.06409,0.10684 0.06409,0.25507 0,0.14547 -0.0072,0.17552 -0.06406,0.26749 -0.117678,0.19034 -0.349388,0.27852 -0.570211,0.217 z m -25.145506,-6.10143 c -0.197116,-0.0702 -0.312576,-0.22089 -0.325564,-0.42486 -0.01139,-0.1789 0.03303,-0.29669 0.153905,-0.40811 0.316973,-0.29218 0.823214,-0.0664 0.823214,0.36714 0,0.34071 -0.333487,0.57913 -0.651555,0.46583 z m 20.308193,0.005 c -0.04075,-0.0135 -0.123031,-0.0734 -0.182855,-0.13295 -0.08924,-0.0889 -0.113491,-0.12943 -0.135054,-0.22578 -0.08506,-0.3801 0.255152,-0.69451 0.636793,-0.58849 0.102623,0.0285 0.249953,0.159 0.29736,0.26337 0.04652,0.10241 0.05219,0.30134 0.01138,0.39873 -0.04252,0.10147 -0.135325,0.20205 -0.231878,0.25131 -0.101821,0.0519 -0.292219,0.0682 -0.395745,0.0338 z M 68.513323,226.0428 c -0.194063,-0.0917 -0.2861,-0.23743 -0.285285,-0.45159 5.93e-4,-0.15564 0.05306,-0.27234 0.165833,-0.36887 0.192273,-0.16458 0.460347,-0.16553 0.641066,-0.002 0.121666,0.10992 0.173497,0.22217 0.173497,0.37575 0,0.36192 -0.370741,0.60031 -0.695111,0.44697 z m 0.03465,-2.51854 c -0.105453,-0.0382 -0.235431,-0.15638 -0.28012,-0.25478 -0.05183,-0.11412 -0.05199,-0.31282 -3.6e-4,-0.4265 0.13212,-0.29088 0.531868,-0.37572 0.767442,-0.1629 0.121666,0.10992 0.173497,0.22217 0.173497,0.37575 0,0.34098 -0.342123,0.58363 -0.660459,0.46843 z m 20.313968,-4.6e-4 c -0.32985,-0.11784 -0.43754,-0.55566 -0.197472,-0.80285 0.101156,-0.10415 0.183867,-0.14388 0.326519,-0.15681 0.208445,-0.0189 0.419716,0.10936 0.501146,0.30426 0.03717,0.0889 0.03746,0.28525 5.51e-4,0.37331 -0.100578,0.24001 -0.388313,0.3687 -0.630752,0.28209 z m -31.936597,-2.13258 c -0.169526,-0.0502 -0.275939,-0.19185 -0.275939,-0.36739 0,-0.37976 0.477025,-0.51892 0.692694,-0.20207 0.09433,0.13859 0.08302,0.31213 -0.02903,0.44529 -0.0977,0.1161 -0.250061,0.1649 -0.387725,0.12417 z m 2.54,0 c -0.169526,-0.0502 -0.275939,-0.19185 -0.275939,-0.36739 0,-0.37976 0.477024,-0.51892 0.692694,-0.20207 0.09433,0.13859 0.08302,0.31213 -0.02903,0.44529 -0.09769,0.1161 -0.250061,0.1649 -0.387725,0.12417 z m 2.54,0 c -0.169526,-0.0502 -0.275939,-0.19185 -0.275939,-0.36739 0,-0.37643 0.477509,-0.5181 0.690757,-0.20494 0.191804,0.28167 -0.08879,0.66879 -0.414818,0.57233 z m 2.544806,0.004 c -0.165294,-0.0408 -0.280746,-0.19363 -0.280746,-0.37162 0,-0.24475 0.204024,-0.41177 0.451164,-0.36933 0.205272,0.0352 0.34512,0.25865 0.290012,0.4633 -0.05428,0.20159 -0.261755,0.32671 -0.46043,0.27765 z m -47.55385,-0.1593 c -0.259676,-0.0926 -0.397158,-0.43735 -0.271552,-0.68101 0.08538,-0.16562 0.271288,-0.28273 0.448828,-0.28273 0.183944,0 0.388017,0.13489 0.454158,0.30019 0.07951,0.19872 0.02787,0.42772 -0.127259,0.56426 -0.143232,0.12608 -0.32731,0.16233 -0.504175,0.0993 z m 82.724395,-2.31389 c -0.345777,-0.17964 -0.360028,-0.66841 -0.02523,-0.8652 0.08624,-0.0507 0.125561,-0.0601 0.252011,-0.0601 0.129834,0 0.163664,0.009 0.253454,0.0641 0.33881,0.20947 0.31462,0.70376 -0.0426,0.87009 -0.14967,0.0697 -0.291969,0.0668 -0.437668,-0.009 z M 16.9963,218.69592 c -0.183475,-0.0654 -0.316753,-0.26161 -0.316753,-0.46632 0,-0.36193 0.370741,-0.60032 0.695112,-0.44697 0.190804,0.0902 0.288774,0.24244 0.288774,0.44873 0,0.34693 -0.337601,0.58202 -0.667133,0.46456 z m 82.724395,-2.31389 c -0.345777,-0.17964 -0.360028,-0.66841 -0.02523,-0.8652 0.08624,-0.0507 0.125561,-0.0601 0.252011,-0.0601 0.129834,0 0.163664,0.009 0.253454,0.0641 0.33881,0.20947 0.31462,0.70376 -0.0426,0.87009 -0.14967,0.0697 -0.291969,0.0668 -0.437668,-0.009 z M 16.9963,216.15592 c -0.259113,-0.0924 -0.397154,-0.43737 -0.272069,-0.67999 0.09405,-0.18243 0.301374,-0.29965 0.490376,-0.27727 0.268886,0.0318 0.448826,0.22938 0.448826,0.4927 0,0.34693 -0.337601,0.58202 -0.667133,0.46456 z m 20.237781,-0.10404 c -0.194655,-0.0718 -0.289972,-0.22723 -0.260379,-0.42457 0.01613,-0.10758 0.102442,-0.2247 0.204463,-0.27746 0.168136,-0.087 0.421835,-0.003 0.503877,0.16621 0.14892,0.30763 -0.137573,0.65032 -0.447961,0.53582 z m 2.54,-2.7e-4 c -0.263209,-0.0962 -0.35459,-0.39847 -0.180435,-0.59683 0.08857,-0.10088 0.163644,-0.13561 0.29312,-0.13561 0.133695,0 0.243169,0.0566 0.316505,0.16362 0.07648,0.11161 0.07476,0.30333 -0.0038,0.42199 -0.09035,0.13654 -0.277174,0.20102 -0.425423,0.14683 z m 2.546265,0.005 c -0.110708,-0.0328 -0.182869,-0.0933 -0.231789,-0.19431 -0.07409,-0.15305 -0.05319,-0.30644 0.05774,-0.42368 0.08312,-0.0879 0.157586,-0.11982 0.279112,-0.11982 0.311491,0 0.483675,0.32937 0.309656,0.59233 -0.08264,0.12488 -0.266438,0.18935 -0.414717,0.14548 z m 2.54,0 c -0.110708,-0.0328 -0.182869,-0.0933 -0.23179,-0.19431 -0.07409,-0.15305 -0.05319,-0.30644 0.05774,-0.42368 0.08312,-0.0879 0.157586,-0.11982 0.279112,-0.11982 0.311491,0 0.483675,0.32937 0.309656,0.59233 -0.08264,0.12488 -0.266438,0.18935 -0.414718,0.14548 z m 2.54,-6.6e-4 c -0.110105,-0.0316 -0.182698,-0.0922 -0.23179,-0.19364 -0.07409,-0.15306 -0.05319,-0.30644 0.05774,-0.42369 0.08312,-0.0879 0.157585,-0.11982 0.279112,-0.11982 0.287604,0 0.463954,0.28094 0.338728,0.53963 -0.04939,0.10203 -0.129341,0.16694 -0.245254,0.19912 -0.09558,0.0265 -0.100599,0.0265 -0.198535,-0.002 z m 2.54,6.6e-4 c -0.314372,-0.093 -0.375406,-0.52228 -0.09742,-0.68519 0.104377,-0.0612 0.274367,-0.0713 0.369725,-0.022 0.160511,0.083 0.247116,0.28331 0.195848,0.45298 -0.05702,0.1887 -0.280081,0.30981 -0.468151,0.25416 z m 2.534811,0.004 c -0.308113,-0.0979 -0.365803,-0.52907 -0.09223,-0.68939 0.104629,-0.0613 0.274421,-0.0712 0.370345,-0.0216 0.197984,0.10238 0.268084,0.37326 0.143694,0.55526 -0.08462,0.12381 -0.287046,0.19856 -0.421805,0.15576 z m 2.539999,0 c -0.314439,-0.0999 -0.367599,-0.53563 -0.08474,-0.69461 0.0995,-0.0559 0.271405,-0.0637 0.362847,-0.0164 0.140727,0.0728 0.227286,0.24539 0.203289,0.40541 -0.03116,0.20776 -0.284023,0.36829 -0.4814,0.30561 z m 2.54,-9.4e-4 c -0.159897,-0.0482 -0.270751,-0.20102 -0.270751,-0.37325 0,-0.36928 0.484043,-0.50978 0.69219,-0.20091 0.102432,0.15199 0.08121,0.33466 -0.05465,0.47053 -0.104864,0.10486 -0.237956,0.14247 -0.366785,0.10363 z m 2.537748,-6.1e-4 c -0.161479,-0.0485 -0.268747,-0.19778 -0.26815,-0.37326 7.2e-4,-0.21575 0.157725,-0.36621 0.382812,-0.36687 0.338514,-9.9e-4 0.49658,0.39489 0.254374,0.6371 -0.07079,0.0708 -0.197859,0.1269 -0.277702,0.12262 -0.01746,-9.3e-4 -0.05856,-0.01 -0.09133,-0.0196 z m 2.518202,-0.009 c -0.281474,-0.10036 -0.337267,-0.49763 -0.0942,-0.67072 0.104441,-0.0744 0.319086,-0.0816 0.418491,-0.0141 0.214031,0.14533 0.244324,0.41336 0.06679,0.5909 -0.07042,0.0704 -0.194966,0.12588 -0.277948,0.12376 -0.01746,-4.5e-4 -0.06837,-0.0139 -0.113132,-0.0298 z m 2.54,0 c -0.281794,-0.10047 -0.337229,-0.49745 -0.09372,-0.67113 0.09623,-0.0686 0.34318,-0.0716 0.432844,-0.005 0.200768,0.14876 0.224093,0.4102 0.05196,0.58233 -0.07042,0.0704 -0.194966,0.12588 -0.277947,0.12376 -0.01746,-4.5e-4 -0.06837,-0.0139 -0.113132,-0.0298 z m 2.536715,-7.2e-4 c -0.302802,-0.10631 -0.329313,-0.56107 -0.04069,-0.69802 0.103393,-0.0491 0.303225,-0.0367 0.384935,0.0238 0.198901,0.14734 0.221524,0.40956 0.05012,0.58097 -0.07042,0.0704 -0.194966,0.12587 -0.277948,0.12375 -0.01746,-4.5e-4 -0.06985,-0.0142 -0.116417,-0.0305 z m 2.542906,5.7e-4 c -0.174016,-0.062 -0.258486,-0.20306 -0.24184,-0.40375 0.01769,-0.21332 0.173158,-0.33939 0.39845,-0.32309 0.330794,0.0239 0.469655,0.39824 0.234848,0.63305 -0.07042,0.0704 -0.194966,0.12587 -0.277948,0.12375 -0.01746,-4.4e-4 -0.06854,-0.0139 -0.11351,-0.03 z m 2.540379,2.1e-4 c -0.157793,-0.0563 -0.251587,-0.18702 -0.251587,-0.35074 0,-0.12663 0.05426,-0.24045 0.149092,-0.31278 0.06507,-0.0496 0.09436,-0.057 0.22621,-0.057 0.133297,0 0.160786,0.007 0.229212,0.0593 0.102326,0.078 0.147252,0.16974 0.147252,0.30053 0,0.1775 -0.108845,0.32291 -0.27658,0.36949 -0.0998,0.0277 -0.123897,0.0268 -0.223599,-0.009 z m 2.54,0 c -0.160621,-0.0573 -0.252749,-0.18875 -0.252749,-0.36071 0,-0.13079 0.04493,-0.22248 0.147252,-0.30053 0.06843,-0.0522 0.09591,-0.0593 0.229212,-0.0593 0.131849,0 0.16114,0.007 0.22621,0.057 0.09594,0.0732 0.148444,0.18508 0.147443,0.31424 -0.0013,0.17195 -0.108538,0.31217 -0.27377,0.35806 -0.0998,0.0277 -0.123897,0.0268 -0.223598,-0.009 z m 2.54,0 c -0.160621,-0.0573 -0.252749,-0.18875 -0.252749,-0.36071 0,-0.20922 0.133155,-0.35101 0.343948,-0.36626 0.148492,-0.0107 0.25339,0.0326 0.333722,0.13794 0.06524,0.0855 0.08774,0.25622 0.04918,0.37306 -0.03089,0.0936 -0.143592,0.19506 -0.249263,0.22441 -0.101109,0.0281 -0.124934,0.0272 -0.224834,-0.008 z m 2.536715,-9.1e-4 c -0.229756,-0.0812 -0.327722,-0.36738 -0.193341,-0.56472 0.07446,-0.10934 0.148719,-0.15127 0.285471,-0.16116 0.151013,-0.0109 0.255257,0.0318 0.336075,0.13777 0.06524,0.0855 0.08774,0.25622 0.04918,0.37306 -0.03089,0.0936 -0.143593,0.19506 -0.249263,0.22441 -0.101483,0.0282 -0.124642,0.0272 -0.228119,-0.009 z m 2.539999,9.6e-4 c -0.230441,-0.0841 -0.327636,-0.36847 -0.19334,-0.56568 0.07446,-0.10935 0.148719,-0.15127 0.28547,-0.16116 0.151856,-0.011 0.255302,0.0319 0.337689,0.13988 0.04963,0.0651 0.05701,0.0944 0.05701,0.22621 0,0.1333 -0.0071,0.16079 -0.0593,0.22921 -0.103907,0.13623 -0.27251,0.1881 -0.427531,0.13154 z m -45.150972,-4.99422 c -0.308504,-0.14365 -0.375245,-0.55063 -0.130099,-0.79335 0.365885,-0.36226 0.95904,0 0.818987,0.50032 -0.03556,0.12701 -0.190219,0.28814 -0.307937,0.32083 -0.132124,0.0367 -0.262962,0.0271 -0.380951,-0.0278 z m 20.317624,0.007 c -0.256969,-0.1272 -0.353098,-0.41936 -0.222692,-0.67682 0.105734,-0.20875 0.325698,-0.30766 0.559469,-0.25158 0.08773,0.0211 0.134264,0.0498 0.220645,0.13614 0.09115,0.0912 0.114048,0.12993 0.136824,0.2317 0.05056,0.22591 -0.04809,0.43875 -0.252967,0.54578 -0.143239,0.0748 -0.308769,0.0804 -0.441279,0.0148 z m 0.0048,-2.53515 c -0.105443,-0.048 -0.229958,-0.18367 -0.264409,-0.28807 -0.07031,-0.21305 0.02636,-0.4723 0.220975,-0.59263 0.188303,-0.11642 0.453547,-0.0782 0.607226,0.0875 0.17237,0.18583 0.187246,0.43486 0.03826,0.64053 -0.124796,0.17228 -0.403741,0.24303 -0.602052,0.15271 z m 41.655998,-1.5139 c -0.336017,-0.14679 -0.407211,-0.58142 -0.135287,-0.8259 0.379583,-0.34127 0.946137,0.0274 0.798647,0.51962 -0.0329,0.10979 -0.14551,0.23734 -0.25734,0.29148 -0.10589,0.0513 -0.305868,0.0585 -0.40602,0.0148 z m -82.817451,-0.28373 c -0.204832,-0.10667 -0.306351,-0.34805 -0.240102,-0.57088 0.06606,-0.2222 0.243557,-0.3535 0.47581,-0.35198 0.292166,0.002 0.491042,0.20386 0.489639,0.4972 -0.0018,0.37242 -0.390046,0.60027 -0.725347,0.42566 z M 99.75527,204.4739 c -0.305708,-0.13355 -0.399538,-0.52499 -0.185723,-0.77478 0.237768,-0.27778 0.659133,-0.23182 0.819183,0.0894 0.12355,0.24794 0.0161,0.56305 -0.23011,0.67489 -0.1014,0.0461 -0.309573,0.0515 -0.40335,0.0105 z m -82.810804,-0.27951 c -0.358121,-0.17846 -0.354048,-0.70201 0.0069,-0.88197 0.108965,-0.0543 0.231778,-0.0643 0.353762,-0.0285 0.225139,0.0659 0.359257,0.24452 0.358145,0.47701 -0.0018,0.37369 -0.380469,0.60208 -0.718769,0.4335 z m 41.154857,-3.28607 c -0.257024,-0.12264 -0.358487,-0.42046 -0.230644,-0.67701 0.183885,-0.36901 0.69204,-0.35895 0.888972,0.0176 0.02579,0.0493 0.03898,0.12065 0.03946,0.21333 6.14e-4,0.11874 -0.0087,0.15449 -0.06329,0.24276 -0.0352,0.0569 -0.104856,0.13224 -0.154792,0.16733 -0.07716,0.0542 -0.113625,0.0648 -0.242915,0.0701 -0.115748,0.005 -0.172371,-0.003 -0.236792,-0.0341 z m -20.29883,-2.5303 c -0.166897,-0.0729 -0.306284,-0.27487 -0.306709,-0.4444 -7.2e-4,-0.28232 0.219667,-0.50707 0.497209,-0.50707 0.341158,0 0.569337,0.30837 0.476216,0.64358 -0.02851,0.10262 -0.158996,0.24996 -0.263368,0.29736 -0.101408,0.0461 -0.309571,0.0515 -0.403348,0.0105 z m 20.29883,-0.0108 c -0.254927,-0.11828 -0.358514,-0.41929 -0.231798,-0.67357 0.184485,-0.37022 0.693081,-0.36148 0.890126,0.0153 0.05616,0.10739 0.05256,0.32273 -0.0073,0.43655 -0.05178,0.0985 -0.152309,0.19102 -0.253466,0.23341 -0.0979,0.041 -0.296554,0.0352 -0.397555,-0.0117 z m -20.923882,-5.19324 c -0.370831,-0.18734 -0.209165,-0.74025 0.207218,-0.70871 0.207744,0.0157 0.352418,0.18655 0.33855,0.39972 -0.0095,0.14619 -0.08488,0.25721 -0.214592,0.31612 -0.116097,0.0527 -0.217001,0.0506 -0.331176,-0.007 z m 2.54,0 c -0.273069,-0.13795 -0.27828,-0.51106 -0.0093,-0.66731 0.117926,-0.0685 0.291975,-0.058 0.399667,0.0241 0.150677,0.11493 0.201668,0.31572 0.120542,0.47467 -0.04951,0.097 -0.09759,0.14154 -0.198139,0.18355 -0.108246,0.0452 -0.20237,0.0407 -0.312748,-0.0151 z m 2.54,0 c -0.27298,-0.13791 -0.27824,-0.51377 -0.0093,-0.66608 0.245411,-0.139 0.56029,0.048 0.56029,0.3327 0,0.0926 -0.0551,0.22075 -0.120231,0.27965 -0.05861,0.053 -0.185591,0.10135 -0.266188,0.10135 -0.03865,0 -0.112699,-0.0214 -0.164549,-0.0476 z m 2.54,0 c -0.272981,-0.13791 -0.27824,-0.51377 -0.0093,-0.66608 0.27251,-0.15435 0.609953,0.0931 0.551546,0.40442 -0.03089,0.16465 -0.204967,0.30928 -0.372256,0.30928 -0.04163,0 -0.118119,-0.0214 -0.169968,-0.0476 z m 2.562432,0.0141 c -0.245347,-0.10642 -0.309298,-0.40518 -0.13037,-0.60903 0.105054,-0.11969 0.314073,-0.15222 0.457196,-0.0712 0.268918,0.15231 0.263658,0.52817 -0.0093,0.66608 -0.108653,0.0549 -0.21281,0.0595 -0.317504,0.0141 z m 2.526328,-0.007 c -0.129716,-0.0589 -0.20508,-0.16993 -0.214592,-0.31612 -0.0092,-0.14215 0.03274,-0.23389 0.150811,-0.32945 0.107564,-0.0871 0.2826,-0.0995 0.404279,-0.0289 0.268958,0.15625 0.263747,0.52936 -0.0093,0.66731 -0.114175,0.0577 -0.215079,0.0599 -0.331176,0.007 z m 2.539999,0 c -0.129716,-0.0589 -0.20508,-0.16993 -0.214592,-0.31612 -0.01387,-0.21317 0.130806,-0.38398 0.33855,-0.39972 0.416382,-0.0315 0.578049,0.52137 0.207218,0.70871 -0.114176,0.0577 -0.215079,0.0599 -0.331176,0.007 z m 2.542457,0.005 c -0.244107,-0.12869 -0.300768,-0.41478 -0.120362,-0.60773 0.254317,-0.272 0.720217,-0.0334 0.651368,0.33362 -0.04328,0.23068 -0.33133,0.37938 -0.531006,0.27411 z m 2.54,0.002 c -0.146579,-0.0762 -0.22225,-0.19392 -0.22225,-0.34565 0,-0.28697 0.27755,-0.46276 0.541414,-0.34292 0.21336,0.0969 0.281061,0.35299 0.146913,0.5557 -0.09643,0.14572 -0.319244,0.20924 -0.466077,0.13287 z m 2.54,0 c -0.14658,-0.0762 -0.22225,-0.19392 -0.22225,-0.34565 0,-0.37733 0.483897,-0.52582 0.691455,-0.21217 0.1254,0.18949 0.05302,0.45879 -0.147813,0.54997 -0.107918,0.049 -0.236254,0.0521 -0.321392,0.008 z m 2.550583,0.01 c -0.06761,-0.0269 -0.16458,-0.11869 -0.202974,-0.19219 -0.01642,-0.0314 -0.02986,-0.10572 -0.02986,-0.16509 0,-0.28807 0.276708,-0.46105 0.543643,-0.33986 0.198524,0.0901 0.273158,0.36057 0.150609,0.54575 -0.09502,0.14359 -0.306512,0.21298 -0.461418,0.15139 z m 2.54,0 c -0.06762,-0.0269 -0.16458,-0.11869 -0.202974,-0.19219 -0.01642,-0.0314 -0.02986,-0.10572 -0.02986,-0.16509 0,-0.28709 0.276723,-0.46107 0.541844,-0.34067 0.157839,0.0717 0.24875,0.26748 0.19995,0.43063 -0.0148,0.0495 -0.04495,0.11533 -0.067,0.14635 -0.08245,0.11597 -0.302823,0.17629 -0.441962,0.12097 z m 2.539999,0.001 c -0.06842,-0.0287 -0.165036,-0.12072 -0.202973,-0.19334 -0.03875,-0.0742 -0.03831,-0.25669 8.04e-4,-0.33233 0.107696,-0.20826 0.363963,-0.27324 0.561658,-0.14241 0.211488,0.13995 0.209164,0.48089 -0.0042,0.62211 -0.09212,0.061 -0.265883,0.0834 -0.355251,0.046 z m 2.54,-0.001 c -0.06762,-0.0269 -0.164579,-0.11869 -0.202973,-0.19219 -0.01642,-0.0314 -0.02986,-0.10572 -0.02986,-0.16509 0,-0.2898 0.280972,-0.46394 0.543503,-0.33685 0.278848,0.13499 0.276524,0.53984 -0.0039,0.67558 -0.09329,0.0452 -0.220514,0.0529 -0.306792,0.0186 z m 2.540001,0.001 c -0.138062,-0.0579 -0.237719,-0.20889 -0.237719,-0.36017 0,-0.37976 0.505795,-0.52036 0.697171,-0.1938 0.146274,0.2496 -0.01129,0.55192 -0.296776,0.56943 -0.06037,0.004 -0.133572,-0.003 -0.162676,-0.0155 z m 2.529416,-0.006 c -0.214862,-0.10027 -0.29247,-0.34492 -0.173702,-0.54759 0.14256,-0.24326 0.500272,-0.24481 0.64211,-0.003 0.104199,0.1778 0.05626,0.39989 -0.111068,0.51455 -0.09042,0.0619 -0.264039,0.0794 -0.35734,0.0358 z m 2.512972,-0.0159 c -0.265855,-0.1316 -0.268657,-0.52899 -0.0047,-0.66973 0.254965,-0.13595 0.550333,0.0423 0.550333,0.33221 0,0.29173 -0.283637,0.46719 -0.545611,0.33752 z m 2.540362,1.7e-4 c -0.276489,-0.13686 -0.275448,-0.539 0.0017,-0.67319 0.153058,-0.0741 0.30644,-0.0532 0.423685,0.0577 0.08785,0.0831 0.119818,0.15758 0.119818,0.27911 0,0.29017 -0.284262,0.46552 -0.545249,0.33634 z m 2.54,0 c -0.104292,-0.0516 -0.158689,-0.11982 -0.196545,-0.24638 -0.04902,-0.16388 0.03682,-0.34864 0.198291,-0.42681 0.153058,-0.0741 0.306441,-0.0532 0.423685,0.0577 0.08785,0.0831 0.119818,0.15758 0.119818,0.27911 0,0.29017 -0.284262,0.46552 -0.545249,0.33634 z m -26.008333,-4.81133 c -0.13425,-0.0599 -0.22225,-0.1989 -0.22225,-0.351 0,-0.15916 0.07388,-0.27251 0.22225,-0.34099 0.361531,-0.16686 0.697969,0.27082 0.450251,0.58575 -0.09253,0.11763 -0.309846,0.16891 -0.450251,0.10624 z m 2.550583,0.006 c -0.06762,-0.0269 -0.164579,-0.11869 -0.202973,-0.19218 -0.03535,-0.0677 -0.03903,-0.2228 -0.0073,-0.30659 0.04919,-0.12984 0.212558,-0.23858 0.358424,-0.23858 0.117271,0 0.243835,0.0693 0.310455,0.16996 0.1254,0.18949 0.05302,0.45879 -0.147813,0.54998 -0.09593,0.0436 -0.22664,0.0509 -0.310809,0.0174 z m 2.529416,-0.006 c -0.03493,-0.0156 -0.08909,-0.0557 -0.120362,-0.0891 -0.285282,-0.30497 0.06266,-0.78217 0.437871,-0.60053 0.282846,0.13692 0.285214,0.5508 0.0039,0.67853 -0.103219,0.0469 -0.2314,0.0513 -0.321393,0.0111 z m 2.550584,0.006 c -0.06762,-0.0269 -0.16458,-0.11869 -0.202974,-0.19218 -0.01642,-0.0314 -0.02986,-0.10573 -0.02986,-0.1651 0,-0.29066 0.280984,-0.46393 0.545048,-0.3361 0.27766,0.13441 0.276799,0.54966 -0.0014,0.67597 -0.09593,0.0436 -0.22664,0.0509 -0.310809,0.0174 z"
       id="path899"
       inkscape:connector-curvature="0" />
  </g>
</svg>
