<?xml version="1.0" encoding="UTF-8" standalone="no"?>
<svg
   xmlns:dc="http://purl.org/dc/elements/1.1/"
   xmlns:cc="http://creativecommons.org/ns#"
   xmlns:rdf="http://www.w3.org/1999/02/22-rdf-syntax-ns#"
   xmlns:svg="http://www.w3.org/2000/svg"
   xmlns="http://www.w3.org/2000/svg"
   xmlns:sodipodi="http://sodipodi.sourceforge.net/DTD/sodipodi-0.dtd"
   xmlns:inkscape="http://www.inkscape.org/namespaces/inkscape"
   height="800"
   width="1200"
   viewBox="-14.97 -24.95 129.74 149.7"
   version="1.1"
   id="svg8"
   sodipodi:docname="HP-Logo.svg"
   inkscape:version="0.92.5 (2060ec1f9f, 2020-04-08)">
  <metadata
     id="metadata14">
    <rdf:RDF>
      <cc:Work
         rdf:about="">
        <dc:format>image/svg+xml</dc:format>
        <dc:type
           rdf:resource="http://purl.org/dc/dcmitype/StillImage" />
        <dc:title></dc:title>
      </cc:Work>
    </rdf:RDF>
  </metadata>
  <defs
     id="defs12" />
  <sodipodi:namedview
     pagecolor="#ffffff"
     bordercolor="#666666"
     borderopacity="1"
     objecttolerance="10"
     gridtolerance="10"
     guidetolerance="10"
     inkscape:pageopacity="0"
     inkscape:pageshadow="2"
     inkscape:window-width="1848"
     inkscape:window-height="1016"
     id="namedview10"
     showgrid="false"
     inkscape:zoom="0.28916667"
     inkscape:cx="1014.9856"
     inkscape:cy="400"
     inkscape:window-x="72"
     inkscape:window-y="27"
     inkscape:window-maximized="1"
     inkscape:current-layer="svg8" />
  <g
     id="g6"
     transform="matrix(0.31181102,0,0,0.31181102,0,68.68126)"
     style="fill:#0096d6">
    <path
       d="M 99.8,49.9 C 99.8,22.34 77.46,0 49.9,0 49.1486,0 48.401,0.019 47.657,0.0531 L 37.4502,28.1066 h 8.89 c 5.2886,0 8.1387,4.0721 6.3284,9.0456 L 40.0784,71.7522 29.5071,71.7503 43.0177,34.6645 H 35.0688 L 21.5581,71.7503 H 10.9831 L 26.8694,28.1066 h 0.0019 l 9.556,-26.264 C 15.4139,7.721 0,27.0097 0,49.9 0,73.4695 16.3436,93.2212 38.3154,98.4451 l 9.2601,-25.448 h 0.0076 L 63.9191,28.1066 H 83.39 c 5.2942,0 8.1425,4.0721 6.3322,9.0456 L 78.6593,67.5416 c -0.8425,2.315 -3.5465,4.2087 -6.0095,4.2087 H 58.6155 L 48.418,99.7773 C 48.9095,99.7905 49.4047,99.8 49.9,99.8 77.46,99.8 99.8,77.4582 99.8,49.9"
       id="path2"
       inkscape:connector-curvature="0" />
    <path
       d="m 80.0939,34.638 h -7.945 L 61.0214,65.1677 h 7.9451 L 80.094,34.638"
       id="path4"
       inkscape:connector-curvature="0" />
  </g>
</svg>
